%TF.GenerationSoftware,KiCad,Pcbnew,7.0.6*%
%TF.CreationDate,2023-08-27T12:30:40+10:00*%
%TF.ProjectId,NanoGris,4e616e6f-4772-4697-932e-6b696361645f,rev?*%
%TF.SameCoordinates,Original*%
%TF.FileFunction,Drillmap*%
%TF.FilePolarity,Positive*%
%FSLAX45Y45*%
G04 Gerber Fmt 4.5, Leading zero omitted, Abs format (unit mm)*
G04 Created by KiCad (PCBNEW 7.0.6) date 2023-08-27 12:30:40*
%MOMM*%
%LPD*%
G01*
G04 APERTURE LIST*
%ADD10C,0.050000*%
%ADD11C,0.200000*%
%ADD12C,0.320000*%
G04 APERTURE END LIST*
D10*
X1856125Y-14723594D02*
X8891125Y-14723594D01*
X8891125Y-14723594D02*
X8891125Y-1874594D01*
X1856125Y-14723594D02*
X1856125Y-1874594D01*
X1856125Y-1874594D02*
X8891125Y-1874594D01*
D11*
D12*
X2533125Y-14263594D02*
X2853125Y-14583594D01*
X2853125Y-14263594D02*
X2533125Y-14583594D01*
D11*
X2553125Y-14583594D02*
X2833125Y-14583594D01*
X2833125Y-14583594D02*
G75*
G03*
X2833125Y-14263594I0J160000D01*
G01*
X2833125Y-14263594D02*
X2553125Y-14263594D01*
X2553125Y-14263594D02*
G75*
G03*
X2553125Y-14583594I0J-160000D01*
G01*
D12*
X2591536Y-2023071D02*
X2911536Y-2343071D01*
X2911536Y-2023071D02*
X2591536Y-2343071D01*
D11*
X2611536Y-2343071D02*
X2891536Y-2343071D01*
X2891536Y-2343071D02*
G75*
G03*
X2891536Y-2023071I0J160000D01*
G01*
X2891536Y-2023071D02*
X2611536Y-2023071D01*
X2611536Y-2023071D02*
G75*
G03*
X2611536Y-2343071I0J-160000D01*
G01*
D12*
X7881560Y-2027665D02*
X8201560Y-2347665D01*
X8201560Y-2027665D02*
X7881560Y-2347665D01*
D11*
X7901560Y-2347665D02*
X8181560Y-2347665D01*
X8181560Y-2347665D02*
G75*
G03*
X8181560Y-2027665I0J160000D01*
G01*
X8181560Y-2027665D02*
X7901560Y-2027665D01*
X7901560Y-2027665D02*
G75*
G03*
X7901560Y-2347665I0J-160000D01*
G01*
D12*
X7887754Y-14242789D02*
X8207754Y-14562789D01*
X8207754Y-14242789D02*
X7887754Y-14562789D01*
D11*
X7907754Y-14562789D02*
X8187754Y-14562789D01*
X8187754Y-14562789D02*
G75*
G03*
X8187754Y-14242789I0J160000D01*
G01*
X8187754Y-14242789D02*
X7907754Y-14242789D01*
X7907754Y-14242789D02*
G75*
G03*
X7907754Y-14562789I0J-160000D01*
G01*
X2114402Y-15037578D02*
X2114402Y-14837578D01*
X2114402Y-14837578D02*
X2162021Y-14837578D01*
X2162021Y-14837578D02*
X2190592Y-14847102D01*
X2190592Y-14847102D02*
X2209640Y-14866149D01*
X2209640Y-14866149D02*
X2219163Y-14885197D01*
X2219163Y-14885197D02*
X2228687Y-14923292D01*
X2228687Y-14923292D02*
X2228687Y-14951864D01*
X2228687Y-14951864D02*
X2219163Y-14989959D01*
X2219163Y-14989959D02*
X2209640Y-15009006D01*
X2209640Y-15009006D02*
X2190592Y-15028054D01*
X2190592Y-15028054D02*
X2162021Y-15037578D01*
X2162021Y-15037578D02*
X2114402Y-15037578D01*
X2314402Y-15037578D02*
X2314402Y-14904245D01*
X2314402Y-14942340D02*
X2323925Y-14923292D01*
X2323925Y-14923292D02*
X2333449Y-14913768D01*
X2333449Y-14913768D02*
X2352497Y-14904245D01*
X2352497Y-14904245D02*
X2371544Y-14904245D01*
X2438211Y-15037578D02*
X2438211Y-14904245D01*
X2438211Y-14837578D02*
X2428687Y-14847102D01*
X2428687Y-14847102D02*
X2438211Y-14856626D01*
X2438211Y-14856626D02*
X2447735Y-14847102D01*
X2447735Y-14847102D02*
X2438211Y-14837578D01*
X2438211Y-14837578D02*
X2438211Y-14856626D01*
X2562021Y-15037578D02*
X2542973Y-15028054D01*
X2542973Y-15028054D02*
X2533449Y-15009006D01*
X2533449Y-15009006D02*
X2533449Y-14837578D01*
X2666782Y-15037578D02*
X2647735Y-15028054D01*
X2647735Y-15028054D02*
X2638211Y-15009006D01*
X2638211Y-15009006D02*
X2638211Y-14837578D01*
X2895354Y-15037578D02*
X2895354Y-14837578D01*
X2895354Y-14837578D02*
X2962021Y-14980435D01*
X2962021Y-14980435D02*
X3028687Y-14837578D01*
X3028687Y-14837578D02*
X3028687Y-15037578D01*
X3209640Y-15037578D02*
X3209640Y-14932816D01*
X3209640Y-14932816D02*
X3200116Y-14913768D01*
X3200116Y-14913768D02*
X3181068Y-14904245D01*
X3181068Y-14904245D02*
X3142973Y-14904245D01*
X3142973Y-14904245D02*
X3123925Y-14913768D01*
X3209640Y-15028054D02*
X3190592Y-15037578D01*
X3190592Y-15037578D02*
X3142973Y-15037578D01*
X3142973Y-15037578D02*
X3123925Y-15028054D01*
X3123925Y-15028054D02*
X3114401Y-15009006D01*
X3114401Y-15009006D02*
X3114401Y-14989959D01*
X3114401Y-14989959D02*
X3123925Y-14970911D01*
X3123925Y-14970911D02*
X3142973Y-14961387D01*
X3142973Y-14961387D02*
X3190592Y-14961387D01*
X3190592Y-14961387D02*
X3209640Y-14951864D01*
X3304878Y-14904245D02*
X3304878Y-15104245D01*
X3304878Y-14913768D02*
X3323925Y-14904245D01*
X3323925Y-14904245D02*
X3362021Y-14904245D01*
X3362021Y-14904245D02*
X3381068Y-14913768D01*
X3381068Y-14913768D02*
X3390592Y-14923292D01*
X3390592Y-14923292D02*
X3400116Y-14942340D01*
X3400116Y-14942340D02*
X3400116Y-14999483D01*
X3400116Y-14999483D02*
X3390592Y-15018530D01*
X3390592Y-15018530D02*
X3381068Y-15028054D01*
X3381068Y-15028054D02*
X3362021Y-15037578D01*
X3362021Y-15037578D02*
X3323925Y-15037578D01*
X3323925Y-15037578D02*
X3304878Y-15028054D01*
X3485830Y-15018530D02*
X3495354Y-15028054D01*
X3495354Y-15028054D02*
X3485830Y-15037578D01*
X3485830Y-15037578D02*
X3476306Y-15028054D01*
X3476306Y-15028054D02*
X3485830Y-15018530D01*
X3485830Y-15018530D02*
X3485830Y-15037578D01*
X3485830Y-14913768D02*
X3495354Y-14923292D01*
X3495354Y-14923292D02*
X3485830Y-14932816D01*
X3485830Y-14932816D02*
X3476306Y-14923292D01*
X3476306Y-14923292D02*
X3485830Y-14913768D01*
X3485830Y-14913768D02*
X3485830Y-14932816D01*
X1653625Y-15266094D02*
X1853625Y-15466094D01*
X1853625Y-15266094D02*
X1653625Y-15466094D01*
X2095354Y-15257578D02*
X2219163Y-15257578D01*
X2219163Y-15257578D02*
X2152497Y-15333768D01*
X2152497Y-15333768D02*
X2181068Y-15333768D01*
X2181068Y-15333768D02*
X2200116Y-15343292D01*
X2200116Y-15343292D02*
X2209640Y-15352816D01*
X2209640Y-15352816D02*
X2219163Y-15371864D01*
X2219163Y-15371864D02*
X2219163Y-15419483D01*
X2219163Y-15419483D02*
X2209640Y-15438530D01*
X2209640Y-15438530D02*
X2200116Y-15448054D01*
X2200116Y-15448054D02*
X2181068Y-15457578D01*
X2181068Y-15457578D02*
X2123925Y-15457578D01*
X2123925Y-15457578D02*
X2104878Y-15448054D01*
X2104878Y-15448054D02*
X2095354Y-15438530D01*
X2304878Y-15438530D02*
X2314402Y-15448054D01*
X2314402Y-15448054D02*
X2304878Y-15457578D01*
X2304878Y-15457578D02*
X2295354Y-15448054D01*
X2295354Y-15448054D02*
X2304878Y-15438530D01*
X2304878Y-15438530D02*
X2304878Y-15457578D01*
X2390592Y-15276626D02*
X2400116Y-15267102D01*
X2400116Y-15267102D02*
X2419163Y-15257578D01*
X2419163Y-15257578D02*
X2466783Y-15257578D01*
X2466783Y-15257578D02*
X2485830Y-15267102D01*
X2485830Y-15267102D02*
X2495354Y-15276626D01*
X2495354Y-15276626D02*
X2504878Y-15295673D01*
X2504878Y-15295673D02*
X2504878Y-15314721D01*
X2504878Y-15314721D02*
X2495354Y-15343292D01*
X2495354Y-15343292D02*
X2381068Y-15457578D01*
X2381068Y-15457578D02*
X2504878Y-15457578D01*
X2628687Y-15257578D02*
X2647735Y-15257578D01*
X2647735Y-15257578D02*
X2666783Y-15267102D01*
X2666783Y-15267102D02*
X2676306Y-15276626D01*
X2676306Y-15276626D02*
X2685830Y-15295673D01*
X2685830Y-15295673D02*
X2695354Y-15333768D01*
X2695354Y-15333768D02*
X2695354Y-15381387D01*
X2695354Y-15381387D02*
X2685830Y-15419483D01*
X2685830Y-15419483D02*
X2676306Y-15438530D01*
X2676306Y-15438530D02*
X2666783Y-15448054D01*
X2666783Y-15448054D02*
X2647735Y-15457578D01*
X2647735Y-15457578D02*
X2628687Y-15457578D01*
X2628687Y-15457578D02*
X2609640Y-15448054D01*
X2609640Y-15448054D02*
X2600116Y-15438530D01*
X2600116Y-15438530D02*
X2590592Y-15419483D01*
X2590592Y-15419483D02*
X2581068Y-15381387D01*
X2581068Y-15381387D02*
X2581068Y-15333768D01*
X2581068Y-15333768D02*
X2590592Y-15295673D01*
X2590592Y-15295673D02*
X2600116Y-15276626D01*
X2600116Y-15276626D02*
X2609640Y-15267102D01*
X2609640Y-15267102D02*
X2628687Y-15257578D01*
X2819163Y-15257578D02*
X2838211Y-15257578D01*
X2838211Y-15257578D02*
X2857259Y-15267102D01*
X2857259Y-15267102D02*
X2866782Y-15276626D01*
X2866782Y-15276626D02*
X2876306Y-15295673D01*
X2876306Y-15295673D02*
X2885830Y-15333768D01*
X2885830Y-15333768D02*
X2885830Y-15381387D01*
X2885830Y-15381387D02*
X2876306Y-15419483D01*
X2876306Y-15419483D02*
X2866782Y-15438530D01*
X2866782Y-15438530D02*
X2857259Y-15448054D01*
X2857259Y-15448054D02*
X2838211Y-15457578D01*
X2838211Y-15457578D02*
X2819163Y-15457578D01*
X2819163Y-15457578D02*
X2800116Y-15448054D01*
X2800116Y-15448054D02*
X2790592Y-15438530D01*
X2790592Y-15438530D02*
X2781068Y-15419483D01*
X2781068Y-15419483D02*
X2771544Y-15381387D01*
X2771544Y-15381387D02*
X2771544Y-15333768D01*
X2771544Y-15333768D02*
X2781068Y-15295673D01*
X2781068Y-15295673D02*
X2790592Y-15276626D01*
X2790592Y-15276626D02*
X2800116Y-15267102D01*
X2800116Y-15267102D02*
X2819163Y-15257578D01*
X2971544Y-15457578D02*
X2971544Y-15324245D01*
X2971544Y-15343292D02*
X2981068Y-15333768D01*
X2981068Y-15333768D02*
X3000116Y-15324245D01*
X3000116Y-15324245D02*
X3028687Y-15324245D01*
X3028687Y-15324245D02*
X3047735Y-15333768D01*
X3047735Y-15333768D02*
X3057259Y-15352816D01*
X3057259Y-15352816D02*
X3057259Y-15457578D01*
X3057259Y-15352816D02*
X3066782Y-15333768D01*
X3066782Y-15333768D02*
X3085830Y-15324245D01*
X3085830Y-15324245D02*
X3114401Y-15324245D01*
X3114401Y-15324245D02*
X3133449Y-15333768D01*
X3133449Y-15333768D02*
X3142973Y-15352816D01*
X3142973Y-15352816D02*
X3142973Y-15457578D01*
X3238211Y-15457578D02*
X3238211Y-15324245D01*
X3238211Y-15343292D02*
X3247735Y-15333768D01*
X3247735Y-15333768D02*
X3266782Y-15324245D01*
X3266782Y-15324245D02*
X3295354Y-15324245D01*
X3295354Y-15324245D02*
X3314402Y-15333768D01*
X3314402Y-15333768D02*
X3323925Y-15352816D01*
X3323925Y-15352816D02*
X3323925Y-15457578D01*
X3323925Y-15352816D02*
X3333449Y-15333768D01*
X3333449Y-15333768D02*
X3352497Y-15324245D01*
X3352497Y-15324245D02*
X3381068Y-15324245D01*
X3381068Y-15324245D02*
X3400116Y-15333768D01*
X3400116Y-15333768D02*
X3409640Y-15352816D01*
X3409640Y-15352816D02*
X3409640Y-15457578D01*
X3800116Y-15248054D02*
X3628687Y-15505197D01*
X4057259Y-15257578D02*
X4076306Y-15257578D01*
X4076306Y-15257578D02*
X4095354Y-15267102D01*
X4095354Y-15267102D02*
X4104878Y-15276626D01*
X4104878Y-15276626D02*
X4114402Y-15295673D01*
X4114402Y-15295673D02*
X4123925Y-15333768D01*
X4123925Y-15333768D02*
X4123925Y-15381387D01*
X4123925Y-15381387D02*
X4114402Y-15419483D01*
X4114402Y-15419483D02*
X4104878Y-15438530D01*
X4104878Y-15438530D02*
X4095354Y-15448054D01*
X4095354Y-15448054D02*
X4076306Y-15457578D01*
X4076306Y-15457578D02*
X4057259Y-15457578D01*
X4057259Y-15457578D02*
X4038211Y-15448054D01*
X4038211Y-15448054D02*
X4028687Y-15438530D01*
X4028687Y-15438530D02*
X4019164Y-15419483D01*
X4019164Y-15419483D02*
X4009640Y-15381387D01*
X4009640Y-15381387D02*
X4009640Y-15333768D01*
X4009640Y-15333768D02*
X4019164Y-15295673D01*
X4019164Y-15295673D02*
X4028687Y-15276626D01*
X4028687Y-15276626D02*
X4038211Y-15267102D01*
X4038211Y-15267102D02*
X4057259Y-15257578D01*
X4209640Y-15438530D02*
X4219164Y-15448054D01*
X4219164Y-15448054D02*
X4209640Y-15457578D01*
X4209640Y-15457578D02*
X4200116Y-15448054D01*
X4200116Y-15448054D02*
X4209640Y-15438530D01*
X4209640Y-15438530D02*
X4209640Y-15457578D01*
X4409640Y-15457578D02*
X4295354Y-15457578D01*
X4352497Y-15457578D02*
X4352497Y-15257578D01*
X4352497Y-15257578D02*
X4333449Y-15286149D01*
X4333449Y-15286149D02*
X4314402Y-15305197D01*
X4314402Y-15305197D02*
X4295354Y-15314721D01*
X4485830Y-15276626D02*
X4495354Y-15267102D01*
X4495354Y-15267102D02*
X4514402Y-15257578D01*
X4514402Y-15257578D02*
X4562021Y-15257578D01*
X4562021Y-15257578D02*
X4581068Y-15267102D01*
X4581068Y-15267102D02*
X4590592Y-15276626D01*
X4590592Y-15276626D02*
X4600116Y-15295673D01*
X4600116Y-15295673D02*
X4600116Y-15314721D01*
X4600116Y-15314721D02*
X4590592Y-15343292D01*
X4590592Y-15343292D02*
X4476307Y-15457578D01*
X4476307Y-15457578D02*
X4600116Y-15457578D01*
X4771545Y-15257578D02*
X4733449Y-15257578D01*
X4733449Y-15257578D02*
X4714402Y-15267102D01*
X4714402Y-15267102D02*
X4704878Y-15276626D01*
X4704878Y-15276626D02*
X4685830Y-15305197D01*
X4685830Y-15305197D02*
X4676307Y-15343292D01*
X4676307Y-15343292D02*
X4676307Y-15419483D01*
X4676307Y-15419483D02*
X4685830Y-15438530D01*
X4685830Y-15438530D02*
X4695354Y-15448054D01*
X4695354Y-15448054D02*
X4714402Y-15457578D01*
X4714402Y-15457578D02*
X4752497Y-15457578D01*
X4752497Y-15457578D02*
X4771545Y-15448054D01*
X4771545Y-15448054D02*
X4781068Y-15438530D01*
X4781068Y-15438530D02*
X4790592Y-15419483D01*
X4790592Y-15419483D02*
X4790592Y-15371864D01*
X4790592Y-15371864D02*
X4781068Y-15352816D01*
X4781068Y-15352816D02*
X4771545Y-15343292D01*
X4771545Y-15343292D02*
X4752497Y-15333768D01*
X4752497Y-15333768D02*
X4714402Y-15333768D01*
X4714402Y-15333768D02*
X4695354Y-15343292D01*
X4695354Y-15343292D02*
X4685830Y-15352816D01*
X4685830Y-15352816D02*
X4676307Y-15371864D01*
X4914402Y-15257578D02*
X4933449Y-15257578D01*
X4933449Y-15257578D02*
X4952497Y-15267102D01*
X4952497Y-15267102D02*
X4962021Y-15276626D01*
X4962021Y-15276626D02*
X4971545Y-15295673D01*
X4971545Y-15295673D02*
X4981068Y-15333768D01*
X4981068Y-15333768D02*
X4981068Y-15381387D01*
X4981068Y-15381387D02*
X4971545Y-15419483D01*
X4971545Y-15419483D02*
X4962021Y-15438530D01*
X4962021Y-15438530D02*
X4952497Y-15448054D01*
X4952497Y-15448054D02*
X4933449Y-15457578D01*
X4933449Y-15457578D02*
X4914402Y-15457578D01*
X4914402Y-15457578D02*
X4895354Y-15448054D01*
X4895354Y-15448054D02*
X4885830Y-15438530D01*
X4885830Y-15438530D02*
X4876307Y-15419483D01*
X4876307Y-15419483D02*
X4866783Y-15381387D01*
X4866783Y-15381387D02*
X4866783Y-15333768D01*
X4866783Y-15333768D02*
X4876307Y-15295673D01*
X4876307Y-15295673D02*
X4885830Y-15276626D01*
X4885830Y-15276626D02*
X4895354Y-15267102D01*
X4895354Y-15267102D02*
X4914402Y-15257578D01*
X5057259Y-15257578D02*
X5057259Y-15295673D01*
X5133449Y-15257578D02*
X5133449Y-15295673D01*
X5428688Y-15533768D02*
X5419164Y-15524245D01*
X5419164Y-15524245D02*
X5400116Y-15495673D01*
X5400116Y-15495673D02*
X5390592Y-15476626D01*
X5390592Y-15476626D02*
X5381069Y-15448054D01*
X5381069Y-15448054D02*
X5371545Y-15400435D01*
X5371545Y-15400435D02*
X5371545Y-15362340D01*
X5371545Y-15362340D02*
X5381069Y-15314721D01*
X5381069Y-15314721D02*
X5390592Y-15286149D01*
X5390592Y-15286149D02*
X5400116Y-15267102D01*
X5400116Y-15267102D02*
X5419164Y-15238530D01*
X5419164Y-15238530D02*
X5428688Y-15229006D01*
X5542973Y-15257578D02*
X5562021Y-15257578D01*
X5562021Y-15257578D02*
X5581069Y-15267102D01*
X5581069Y-15267102D02*
X5590592Y-15276626D01*
X5590592Y-15276626D02*
X5600116Y-15295673D01*
X5600116Y-15295673D02*
X5609640Y-15333768D01*
X5609640Y-15333768D02*
X5609640Y-15381387D01*
X5609640Y-15381387D02*
X5600116Y-15419483D01*
X5600116Y-15419483D02*
X5590592Y-15438530D01*
X5590592Y-15438530D02*
X5581069Y-15448054D01*
X5581069Y-15448054D02*
X5562021Y-15457578D01*
X5562021Y-15457578D02*
X5542973Y-15457578D01*
X5542973Y-15457578D02*
X5523926Y-15448054D01*
X5523926Y-15448054D02*
X5514402Y-15438530D01*
X5514402Y-15438530D02*
X5504878Y-15419483D01*
X5504878Y-15419483D02*
X5495354Y-15381387D01*
X5495354Y-15381387D02*
X5495354Y-15333768D01*
X5495354Y-15333768D02*
X5504878Y-15295673D01*
X5504878Y-15295673D02*
X5514402Y-15276626D01*
X5514402Y-15276626D02*
X5523926Y-15267102D01*
X5523926Y-15267102D02*
X5542973Y-15257578D01*
X5847735Y-15457578D02*
X5847735Y-15257578D01*
X5933449Y-15457578D02*
X5933449Y-15352816D01*
X5933449Y-15352816D02*
X5923926Y-15333768D01*
X5923926Y-15333768D02*
X5904878Y-15324245D01*
X5904878Y-15324245D02*
X5876307Y-15324245D01*
X5876307Y-15324245D02*
X5857259Y-15333768D01*
X5857259Y-15333768D02*
X5847735Y-15343292D01*
X6057259Y-15457578D02*
X6038211Y-15448054D01*
X6038211Y-15448054D02*
X6028688Y-15438530D01*
X6028688Y-15438530D02*
X6019164Y-15419483D01*
X6019164Y-15419483D02*
X6019164Y-15362340D01*
X6019164Y-15362340D02*
X6028688Y-15343292D01*
X6028688Y-15343292D02*
X6038211Y-15333768D01*
X6038211Y-15333768D02*
X6057259Y-15324245D01*
X6057259Y-15324245D02*
X6085830Y-15324245D01*
X6085830Y-15324245D02*
X6104878Y-15333768D01*
X6104878Y-15333768D02*
X6114402Y-15343292D01*
X6114402Y-15343292D02*
X6123926Y-15362340D01*
X6123926Y-15362340D02*
X6123926Y-15419483D01*
X6123926Y-15419483D02*
X6114402Y-15438530D01*
X6114402Y-15438530D02*
X6104878Y-15448054D01*
X6104878Y-15448054D02*
X6085830Y-15457578D01*
X6085830Y-15457578D02*
X6057259Y-15457578D01*
X6238211Y-15457578D02*
X6219164Y-15448054D01*
X6219164Y-15448054D02*
X6209640Y-15429006D01*
X6209640Y-15429006D02*
X6209640Y-15257578D01*
X6390592Y-15448054D02*
X6371545Y-15457578D01*
X6371545Y-15457578D02*
X6333449Y-15457578D01*
X6333449Y-15457578D02*
X6314402Y-15448054D01*
X6314402Y-15448054D02*
X6304878Y-15429006D01*
X6304878Y-15429006D02*
X6304878Y-15352816D01*
X6304878Y-15352816D02*
X6314402Y-15333768D01*
X6314402Y-15333768D02*
X6333449Y-15324245D01*
X6333449Y-15324245D02*
X6371545Y-15324245D01*
X6371545Y-15324245D02*
X6390592Y-15333768D01*
X6390592Y-15333768D02*
X6400116Y-15352816D01*
X6400116Y-15352816D02*
X6400116Y-15371864D01*
X6400116Y-15371864D02*
X6304878Y-15390911D01*
X6476307Y-15448054D02*
X6495354Y-15457578D01*
X6495354Y-15457578D02*
X6533449Y-15457578D01*
X6533449Y-15457578D02*
X6552497Y-15448054D01*
X6552497Y-15448054D02*
X6562021Y-15429006D01*
X6562021Y-15429006D02*
X6562021Y-15419483D01*
X6562021Y-15419483D02*
X6552497Y-15400435D01*
X6552497Y-15400435D02*
X6533449Y-15390911D01*
X6533449Y-15390911D02*
X6504878Y-15390911D01*
X6504878Y-15390911D02*
X6485830Y-15381387D01*
X6485830Y-15381387D02*
X6476307Y-15362340D01*
X6476307Y-15362340D02*
X6476307Y-15352816D01*
X6476307Y-15352816D02*
X6485830Y-15333768D01*
X6485830Y-15333768D02*
X6504878Y-15324245D01*
X6504878Y-15324245D02*
X6533449Y-15324245D01*
X6533449Y-15324245D02*
X6552497Y-15333768D01*
X6800116Y-15381387D02*
X6952497Y-15381387D01*
X6876307Y-15457578D02*
X6876307Y-15305197D01*
X7285831Y-15324245D02*
X7285831Y-15457578D01*
X7238211Y-15248054D02*
X7190592Y-15390911D01*
X7190592Y-15390911D02*
X7314402Y-15390911D01*
X7533450Y-15448054D02*
X7552497Y-15457578D01*
X7552497Y-15457578D02*
X7590592Y-15457578D01*
X7590592Y-15457578D02*
X7609640Y-15448054D01*
X7609640Y-15448054D02*
X7619164Y-15429006D01*
X7619164Y-15429006D02*
X7619164Y-15419483D01*
X7619164Y-15419483D02*
X7609640Y-15400435D01*
X7609640Y-15400435D02*
X7590592Y-15390911D01*
X7590592Y-15390911D02*
X7562021Y-15390911D01*
X7562021Y-15390911D02*
X7542973Y-15381387D01*
X7542973Y-15381387D02*
X7533450Y-15362340D01*
X7533450Y-15362340D02*
X7533450Y-15352816D01*
X7533450Y-15352816D02*
X7542973Y-15333768D01*
X7542973Y-15333768D02*
X7562021Y-15324245D01*
X7562021Y-15324245D02*
X7590592Y-15324245D01*
X7590592Y-15324245D02*
X7609640Y-15333768D01*
X7733450Y-15457578D02*
X7714402Y-15448054D01*
X7714402Y-15448054D02*
X7704878Y-15429006D01*
X7704878Y-15429006D02*
X7704878Y-15257578D01*
X7838212Y-15457578D02*
X7819164Y-15448054D01*
X7819164Y-15448054D02*
X7809640Y-15438530D01*
X7809640Y-15438530D02*
X7800116Y-15419483D01*
X7800116Y-15419483D02*
X7800116Y-15362340D01*
X7800116Y-15362340D02*
X7809640Y-15343292D01*
X7809640Y-15343292D02*
X7819164Y-15333768D01*
X7819164Y-15333768D02*
X7838212Y-15324245D01*
X7838212Y-15324245D02*
X7866783Y-15324245D01*
X7866783Y-15324245D02*
X7885831Y-15333768D01*
X7885831Y-15333768D02*
X7895354Y-15343292D01*
X7895354Y-15343292D02*
X7904878Y-15362340D01*
X7904878Y-15362340D02*
X7904878Y-15419483D01*
X7904878Y-15419483D02*
X7895354Y-15438530D01*
X7895354Y-15438530D02*
X7885831Y-15448054D01*
X7885831Y-15448054D02*
X7866783Y-15457578D01*
X7866783Y-15457578D02*
X7838212Y-15457578D01*
X7962021Y-15324245D02*
X8038212Y-15324245D01*
X7990593Y-15257578D02*
X7990593Y-15429006D01*
X7990593Y-15429006D02*
X8000116Y-15448054D01*
X8000116Y-15448054D02*
X8019164Y-15457578D01*
X8019164Y-15457578D02*
X8038212Y-15457578D01*
X8095354Y-15448054D02*
X8114402Y-15457578D01*
X8114402Y-15457578D02*
X8152497Y-15457578D01*
X8152497Y-15457578D02*
X8171545Y-15448054D01*
X8171545Y-15448054D02*
X8181069Y-15429006D01*
X8181069Y-15429006D02*
X8181069Y-15419483D01*
X8181069Y-15419483D02*
X8171545Y-15400435D01*
X8171545Y-15400435D02*
X8152497Y-15390911D01*
X8152497Y-15390911D02*
X8123926Y-15390911D01*
X8123926Y-15390911D02*
X8104878Y-15381387D01*
X8104878Y-15381387D02*
X8095354Y-15362340D01*
X8095354Y-15362340D02*
X8095354Y-15352816D01*
X8095354Y-15352816D02*
X8104878Y-15333768D01*
X8104878Y-15333768D02*
X8123926Y-15324245D01*
X8123926Y-15324245D02*
X8152497Y-15324245D01*
X8152497Y-15324245D02*
X8171545Y-15333768D01*
X8247735Y-15533768D02*
X8257259Y-15524245D01*
X8257259Y-15524245D02*
X8276307Y-15495673D01*
X8276307Y-15495673D02*
X8285831Y-15476626D01*
X8285831Y-15476626D02*
X8295354Y-15448054D01*
X8295354Y-15448054D02*
X8304878Y-15400435D01*
X8304878Y-15400435D02*
X8304878Y-15362340D01*
X8304878Y-15362340D02*
X8295354Y-15314721D01*
X8295354Y-15314721D02*
X8285831Y-15286149D01*
X8285831Y-15286149D02*
X8276307Y-15267102D01*
X8276307Y-15267102D02*
X8257259Y-15238530D01*
X8257259Y-15238530D02*
X8247735Y-15229006D01*
M02*
