G04 #@! TF.GenerationSoftware,KiCad,Pcbnew,7.0.6*
G04 #@! TF.CreationDate,2023-08-27T12:29:34+10:00*
G04 #@! TF.ProjectId,NanoGris,4e616e6f-4772-4697-932e-6b696361645f,rev?*
G04 #@! TF.SameCoordinates,Original*
G04 #@! TF.FileFunction,Legend,Top*
G04 #@! TF.FilePolarity,Positive*
%FSLAX46Y46*%
G04 Gerber Fmt 4.6, Leading zero omitted, Abs format (unit mm)*
G04 Created by KiCad (PCBNEW 7.0.6) date 2023-08-27 12:29:34*
%MOMM*%
%LPD*%
G01*
G04 APERTURE LIST*
%ADD10C,1.000000*%
%ADD11C,0.200000*%
%ADD12C,0.500000*%
%ADD13C,5.500855*%
%ADD14C,0.250000*%
%ADD15C,3.000000*%
%ADD16C,0.300000*%
%ADD17C,0.375000*%
G04 APERTURE END LIST*
D10*
X85441247Y-124535942D02*
X85441247Y-122135942D01*
X42041247Y-136035942D02*
X44641247Y-132835942D01*
D11*
X55641247Y-69400000D02*
X55641247Y-69400000D01*
X55641247Y-70200000D02*
X55641247Y-70200000D01*
X55641247Y-71000000D02*
X55641247Y-71000000D01*
X55641247Y-71800000D02*
X55641247Y-71800000D01*
X55641247Y-72600000D02*
X55641247Y-72600000D01*
X55641247Y-73400000D02*
X55641247Y-73400000D01*
X55641247Y-74200000D02*
X55641247Y-74200000D01*
X55641247Y-75000000D02*
X55641247Y-75000000D01*
X55641247Y-75800000D02*
X55641247Y-75800000D01*
X55641247Y-76600000D02*
X55641247Y-76600000D01*
X55641247Y-77400000D02*
X55641247Y-77400000D01*
X55641247Y-78200000D02*
X55641247Y-78200000D01*
X55641247Y-79000000D02*
X55641247Y-79000000D01*
X55641247Y-79800000D02*
X55641247Y-79800000D01*
X55641247Y-80600000D02*
X55641247Y-80600000D01*
X55641247Y-81400000D02*
X55641247Y-81400000D01*
X55641247Y-82200000D02*
X55641247Y-82200000D01*
X55641247Y-83000000D02*
X55641247Y-83000000D01*
X55641247Y-83800000D02*
X55641247Y-83800000D01*
X55641247Y-84600000D02*
X55641247Y-84600000D01*
X55641247Y-85400000D02*
X55641247Y-85400000D01*
X55641247Y-86200000D02*
X55641247Y-86200000D01*
X55641247Y-87000000D02*
X55641247Y-87000000D01*
X55641247Y-87800000D02*
X55641247Y-87800000D01*
X55641247Y-88600000D02*
X55641247Y-88600000D01*
X55641247Y-89400000D02*
X55641247Y-89400000D01*
X55641247Y-90200000D02*
X55641247Y-90200000D01*
X55641247Y-91000000D02*
X55641247Y-91000000D01*
X55641247Y-91800000D02*
X55641247Y-91800000D01*
X55641247Y-92600000D02*
X55641247Y-92600000D01*
X55641247Y-93400000D02*
X55641247Y-93400000D01*
X55641247Y-94200000D02*
X55641247Y-94200000D01*
X55641247Y-95000000D02*
X55641247Y-95000000D01*
X55641247Y-95800000D02*
X55641247Y-95800000D01*
X55641247Y-96600000D02*
X55641247Y-96600000D01*
X55641247Y-97400000D02*
X55641247Y-97400000D01*
X55641247Y-98200000D02*
X55641247Y-98200000D01*
X55641247Y-99000000D02*
X55641247Y-99000000D01*
X55641247Y-99800000D02*
X55641247Y-99800000D01*
X55641247Y-100600000D02*
X55641247Y-100600000D01*
X55641247Y-101400000D02*
X55641247Y-101400000D01*
X55641247Y-102200000D02*
X55641247Y-102200000D01*
X55641247Y-103000000D02*
X55641247Y-103000000D01*
X55641247Y-103800000D02*
X55641247Y-103800000D01*
X55641247Y-104600000D02*
X55641247Y-104600000D01*
X55641247Y-105400000D02*
X55641247Y-105400000D01*
X55641247Y-106200000D02*
X55641247Y-106200000D01*
X55641247Y-107000000D02*
X55641247Y-107000000D01*
X55641247Y-107800000D02*
X55641247Y-107800000D01*
X55641247Y-108600000D02*
X55641247Y-108600000D01*
X55641247Y-109400000D02*
X55641247Y-109400000D01*
X55641247Y-110200000D02*
X55641247Y-110200000D01*
X55641247Y-111000000D02*
X55641247Y-111000000D01*
X55641247Y-111800000D02*
X55641247Y-111800000D01*
X55641247Y-112600000D02*
X55641247Y-112600000D01*
X55641247Y-113400000D02*
X55641247Y-113400000D01*
X55641247Y-114200000D02*
X55641247Y-114200000D01*
X55641247Y-115000000D02*
X55641247Y-115000000D01*
X55641247Y-115800000D02*
X55641247Y-115800000D01*
X55641247Y-116600000D02*
X55641247Y-116600000D01*
X55641247Y-117400000D02*
X55641247Y-117400000D01*
X55641247Y-118200000D02*
X55641247Y-118200000D01*
X55641247Y-119000000D02*
X55641247Y-119000000D01*
X55641247Y-119800000D02*
X55641247Y-119800000D01*
X55641247Y-120600000D02*
X55641247Y-120600000D01*
X55641247Y-121400000D02*
X55641247Y-121400000D01*
X55641247Y-122200000D02*
X55641247Y-122200000D01*
X55641247Y-123000000D02*
X55641247Y-123000000D01*
X55641247Y-123800000D02*
X55641247Y-123800000D01*
X55641247Y-124600000D02*
X55641247Y-124600000D01*
X55641247Y-125400000D02*
X55641247Y-125400000D01*
X55641247Y-126200000D02*
X55641247Y-126200000D01*
X55641247Y-127000000D02*
X55641247Y-127000000D01*
X55641247Y-127800000D02*
X55641247Y-127800000D01*
X55641247Y-128600000D02*
X55641247Y-128600000D01*
X55641247Y-129400000D02*
X55641247Y-129400000D01*
X55641247Y-130200000D02*
X55641247Y-130200000D01*
X55641247Y-131000000D02*
X55641247Y-131000000D01*
X55641247Y-131800000D02*
X55641247Y-131800000D01*
X55641247Y-132600000D02*
X55641247Y-132600000D01*
X55641247Y-133400000D02*
X55641247Y-133400000D01*
X55641247Y-134200000D02*
X55641247Y-134200000D01*
X55641247Y-135000000D02*
X55641247Y-135000000D01*
X55641247Y-135800000D02*
X55641247Y-135800000D01*
X55641247Y-136600000D02*
X55641247Y-136600000D01*
X55641247Y-137400000D02*
X55641247Y-137400000D01*
X55641247Y-138200000D02*
X55641247Y-138200000D01*
X55641247Y-139000000D02*
X55641247Y-139000000D01*
X55641247Y-139800000D02*
X55641247Y-139800000D01*
X55641247Y-140600000D02*
X55641247Y-140600000D01*
D10*
X34476694Y-134086538D02*
X32876693Y-132489231D01*
X69341247Y-124635942D02*
X69341247Y-122235942D01*
D11*
X72221247Y-81800000D02*
X72221247Y-81800000D01*
X72221247Y-82600000D02*
X72221247Y-82600000D01*
X72221247Y-83400000D02*
X72221247Y-83400000D01*
X72221247Y-84200000D02*
X72221247Y-84200000D01*
X72221247Y-85000000D02*
X72221247Y-85000000D01*
X72221247Y-85800000D02*
X72221247Y-85800000D01*
X72221247Y-86600000D02*
X72221247Y-86600000D01*
X72221247Y-87400000D02*
X72221247Y-87400000D01*
X72221247Y-88200000D02*
X72221247Y-88200000D01*
X72221247Y-89000000D02*
X72221247Y-89000000D01*
X72221247Y-89800000D02*
X72221247Y-89800000D01*
X72221247Y-90600000D02*
X72221247Y-90600000D01*
X72221247Y-91400000D02*
X72221247Y-91400000D01*
X72221247Y-92200000D02*
X72221247Y-92200000D01*
X72221247Y-93000000D02*
X72221247Y-93000000D01*
X72221247Y-93800000D02*
X72221247Y-93800000D01*
X72221247Y-94600000D02*
X72221247Y-94600000D01*
X72221247Y-95400000D02*
X72221247Y-95400000D01*
X72221247Y-96200000D02*
X72221247Y-96200000D01*
X72221247Y-97000000D02*
X72221247Y-97000000D01*
X72221247Y-97800000D02*
X72221247Y-97800000D01*
X72221247Y-98600000D02*
X72221247Y-98600000D01*
X72221247Y-99400000D02*
X72221247Y-99400000D01*
X72221247Y-100200000D02*
X72221247Y-100200000D01*
X72221247Y-101000000D02*
X72221247Y-101000000D01*
X72221247Y-101800000D02*
X72221247Y-101800000D01*
X72221247Y-102600000D02*
X72221247Y-102600000D01*
X72221247Y-103400000D02*
X72221247Y-103400000D01*
X72221247Y-104200000D02*
X72221247Y-104200000D01*
X72221247Y-105000000D02*
X72221247Y-105000000D01*
X72221247Y-105800000D02*
X72221247Y-105800000D01*
X72221247Y-106600000D02*
X72221247Y-106600000D01*
X72221247Y-107400000D02*
X72221247Y-107400000D01*
X72221247Y-108200000D02*
X72221247Y-108200000D01*
X72221247Y-109000000D02*
X72221247Y-109000000D01*
X72221247Y-109800000D02*
X72221247Y-109800000D01*
X72221247Y-110600000D02*
X72221247Y-110600000D01*
X72221247Y-111400000D02*
X72221247Y-111400000D01*
X72221247Y-112200000D02*
X72221247Y-112200000D01*
X72221247Y-113000000D02*
X72221247Y-113000000D01*
X72221247Y-113800000D02*
X72221247Y-113800000D01*
X72221247Y-114600000D02*
X72221247Y-114600000D01*
X72221247Y-115400000D02*
X72221247Y-115400000D01*
X72221247Y-116200000D02*
X72221247Y-116200000D01*
X72221247Y-117000000D02*
X72221247Y-117000000D01*
X72221247Y-117800000D02*
X72221247Y-117800000D01*
X72221247Y-118600000D02*
X72221247Y-118600000D01*
X72221247Y-119400000D02*
X72221247Y-119400000D01*
X72221247Y-120200000D02*
X72221247Y-120200000D01*
X72221247Y-121000000D02*
X72221247Y-121000000D01*
X72221247Y-121800000D02*
X72221247Y-121800000D01*
X72221247Y-122600000D02*
X72221247Y-122600000D01*
X72221247Y-123400000D02*
X72221247Y-123400000D01*
X72221247Y-124200000D02*
X72221247Y-124200000D01*
X72221247Y-125000000D02*
X72221247Y-125000000D01*
X72221247Y-125800000D02*
X72221247Y-125800000D01*
X72221247Y-126600000D02*
X72221247Y-126600000D01*
X72221247Y-127400000D02*
X72221247Y-127400000D01*
X72221247Y-128200000D02*
X72221247Y-128200000D01*
X72221247Y-129000000D02*
X72221247Y-129000000D01*
X72221247Y-129800000D02*
X72221247Y-129800000D01*
X72221247Y-130600000D02*
X72221247Y-130600000D01*
X72221247Y-131400000D02*
X72221247Y-131400000D01*
X72221247Y-132200000D02*
X72221247Y-132200000D01*
X72221247Y-133000000D02*
X72221247Y-133000000D01*
X72221247Y-133800000D02*
X72221247Y-133800000D01*
X72221247Y-134600000D02*
X72221247Y-134600000D01*
X72221247Y-135400000D02*
X72221247Y-135400000D01*
X72221247Y-136200000D02*
X72221247Y-136200000D01*
X72221247Y-137000000D02*
X72221247Y-137000000D01*
X72221247Y-137800000D02*
X72221247Y-137800000D01*
X72221247Y-138600000D02*
X72221247Y-138600000D01*
X72221247Y-139400000D02*
X72221247Y-139400000D01*
X72221247Y-140200000D02*
X72221247Y-140200000D01*
D10*
X25775000Y-136025000D02*
X24025000Y-134850000D01*
X34476694Y-134086538D02*
X35186287Y-127984031D01*
X23050000Y-138600000D02*
X22252896Y-135411689D01*
D11*
X38837500Y-84787500D02*
X38837500Y-84787500D01*
X38037501Y-84788477D02*
X38037501Y-84788477D01*
X37237501Y-84789454D02*
X37237501Y-84789454D01*
X36437502Y-84790430D02*
X36437502Y-84790430D01*
X35637502Y-84791407D02*
X35637502Y-84791407D01*
X34837503Y-84792384D02*
X34837503Y-84792384D01*
X34037504Y-84793361D02*
X34037504Y-84793361D01*
X33237504Y-84794338D02*
X33237504Y-84794338D01*
X32437505Y-84795314D02*
X32437505Y-84795314D01*
X31637505Y-84796291D02*
X31637505Y-84796291D01*
X30837506Y-84797268D02*
X30837506Y-84797268D01*
X30037507Y-84798245D02*
X30037507Y-84798245D01*
X29237507Y-84799222D02*
X29237507Y-84799222D01*
X28437508Y-84800198D02*
X28437508Y-84800198D01*
X27637508Y-84801175D02*
X27637508Y-84801175D01*
X26837509Y-84802152D02*
X26837509Y-84802152D01*
X26037510Y-84803129D02*
X26037510Y-84803129D01*
X25237510Y-84804106D02*
X25237510Y-84804106D01*
X24437511Y-84805082D02*
X24437511Y-84805082D01*
X23637511Y-84806059D02*
X23637511Y-84806059D01*
X22837512Y-84807036D02*
X22837512Y-84807036D01*
X22037513Y-84808013D02*
X22037513Y-84808013D01*
X21237513Y-84808990D02*
X21237513Y-84808990D01*
X20437514Y-84809966D02*
X20437514Y-84809966D01*
X19637514Y-84810943D02*
X19637514Y-84810943D01*
X18837515Y-84811920D02*
X18837515Y-84811920D01*
X39131247Y-57600000D02*
X39131247Y-57600000D01*
X39131247Y-58400000D02*
X39131247Y-58400000D01*
X39131247Y-59200000D02*
X39131247Y-59200000D01*
X39131247Y-60000000D02*
X39131247Y-60000000D01*
X39131247Y-60800000D02*
X39131247Y-60800000D01*
X39131247Y-61600000D02*
X39131247Y-61600000D01*
X39131247Y-62400000D02*
X39131247Y-62400000D01*
X39131247Y-63200000D02*
X39131247Y-63200000D01*
X39131247Y-64000000D02*
X39131247Y-64000000D01*
X39131247Y-64800000D02*
X39131247Y-64800000D01*
X39131247Y-65600000D02*
X39131247Y-65600000D01*
X39131247Y-66400000D02*
X39131247Y-66400000D01*
X39131247Y-67200000D02*
X39131247Y-67200000D01*
X39131247Y-68000000D02*
X39131247Y-68000000D01*
X39131247Y-68800000D02*
X39131247Y-68800000D01*
X39131247Y-69600000D02*
X39131247Y-69600000D01*
X39131247Y-70400000D02*
X39131247Y-70400000D01*
X39131247Y-71200000D02*
X39131247Y-71200000D01*
X39131247Y-72000000D02*
X39131247Y-72000000D01*
X39131247Y-72800000D02*
X39131247Y-72800000D01*
X39131247Y-73600000D02*
X39131247Y-73600000D01*
X39131247Y-74400000D02*
X39131247Y-74400000D01*
X39131247Y-75200000D02*
X39131247Y-75200000D01*
X39131247Y-76000000D02*
X39131247Y-76000000D01*
X39131247Y-76800000D02*
X39131247Y-76800000D01*
X39131247Y-77600000D02*
X39131247Y-77600000D01*
X39131247Y-78400000D02*
X39131247Y-78400000D01*
X39131247Y-79200000D02*
X39131247Y-79200000D01*
X39131247Y-80000000D02*
X39131247Y-80000000D01*
X39131247Y-80800000D02*
X39131247Y-80800000D01*
X39131247Y-81600000D02*
X39131247Y-81600000D01*
X39131247Y-82400000D02*
X39131247Y-82400000D01*
X39131247Y-83200000D02*
X39131247Y-83200000D01*
X39131247Y-84000000D02*
X39131247Y-84000000D01*
X39131247Y-84800000D02*
X39131247Y-84800000D01*
X39131247Y-85600000D02*
X39131247Y-85600000D01*
X39131247Y-86400000D02*
X39131247Y-86400000D01*
X39131247Y-87200000D02*
X39131247Y-87200000D01*
X39131247Y-88000000D02*
X39131247Y-88000000D01*
X39131247Y-88800000D02*
X39131247Y-88800000D01*
X39131247Y-89600000D02*
X39131247Y-89600000D01*
X39131247Y-90400000D02*
X39131247Y-90400000D01*
X39131247Y-91200000D02*
X39131247Y-91200000D01*
X39131247Y-92000000D02*
X39131247Y-92000000D01*
X39131247Y-92800000D02*
X39131247Y-92800000D01*
X39131247Y-93600000D02*
X39131247Y-93600000D01*
X39131247Y-94400000D02*
X39131247Y-94400000D01*
X39131247Y-95200000D02*
X39131247Y-95200000D01*
X39131247Y-96000000D02*
X39131247Y-96000000D01*
X39131247Y-96800000D02*
X39131247Y-96800000D01*
X39131247Y-97600000D02*
X39131247Y-97600000D01*
X39131247Y-98400000D02*
X39131247Y-98400000D01*
X39131247Y-99200000D02*
X39131247Y-99200000D01*
X39131247Y-100000000D02*
X39131247Y-100000000D01*
X39131247Y-100800000D02*
X39131247Y-100800000D01*
X39131247Y-101600000D02*
X39131247Y-101600000D01*
X39131247Y-102400000D02*
X39131247Y-102400000D01*
X39131247Y-103200000D02*
X39131247Y-103200000D01*
X39131247Y-104000000D02*
X39131247Y-104000000D01*
X39131247Y-104800000D02*
X39131247Y-104800000D01*
X39131247Y-105600000D02*
X39131247Y-105600000D01*
X39131247Y-106400000D02*
X39131247Y-106400000D01*
X39131247Y-107200000D02*
X39131247Y-107200000D01*
X39131247Y-108000000D02*
X39131247Y-108000000D01*
X39131247Y-108800000D02*
X39131247Y-108800000D01*
X39131247Y-109600000D02*
X39131247Y-109600000D01*
X39131247Y-110400000D02*
X39131247Y-110400000D01*
X39131247Y-111200000D02*
X39131247Y-111200000D01*
X39131247Y-112000000D02*
X39131247Y-112000000D01*
X39131247Y-112800000D02*
X39131247Y-112800000D01*
X39131247Y-113600000D02*
X39131247Y-113600000D01*
X39131247Y-114400000D02*
X39131247Y-114400000D01*
X39131247Y-115200000D02*
X39131247Y-115200000D01*
X39131247Y-116000000D02*
X39131247Y-116000000D01*
X39131247Y-116800000D02*
X39131247Y-116800000D01*
X39131247Y-117600000D02*
X39131247Y-117600000D01*
X39131247Y-118400000D02*
X39131247Y-118400000D01*
X39131247Y-119200000D02*
X39131247Y-119200000D01*
X39131247Y-120000000D02*
X39131247Y-120000000D01*
X39131247Y-120800000D02*
X39131247Y-120800000D01*
X39131247Y-121600000D02*
X39131247Y-121600000D01*
X39131247Y-122400000D02*
X39131247Y-122400000D01*
X39131247Y-123200000D02*
X39131247Y-123200000D01*
X39131247Y-124000000D02*
X39131247Y-124000000D01*
X39131247Y-124800000D02*
X39131247Y-124800000D01*
X39131247Y-125600000D02*
X39131247Y-125600000D01*
X39131247Y-126400000D02*
X39131247Y-126400000D01*
X39131247Y-127200000D02*
X39131247Y-127200000D01*
X39131247Y-128000000D02*
X39131247Y-128000000D01*
X39131247Y-128800000D02*
X39131247Y-128800000D01*
X39131247Y-129600000D02*
X39131247Y-129600000D01*
X39131247Y-130400000D02*
X39131247Y-130400000D01*
X39131247Y-131200000D02*
X39131247Y-131200000D01*
X39131247Y-132000000D02*
X39131247Y-132000000D01*
X39131247Y-132800000D02*
X39131247Y-132800000D01*
X39131247Y-133600000D02*
X39131247Y-133600000D01*
X39131247Y-134400000D02*
X39131247Y-134400000D01*
X39131247Y-135200000D02*
X39131247Y-135200000D01*
X39131247Y-136000000D02*
X39131247Y-136000000D01*
X39131247Y-136800000D02*
X39131247Y-136800000D01*
X39131247Y-137600000D02*
X39131247Y-137600000D01*
X39131247Y-138400000D02*
X39131247Y-138400000D01*
X39131247Y-139200000D02*
X39131247Y-139200000D01*
X39131247Y-140000000D02*
X39131247Y-140000000D01*
D12*
X87169754Y-140893580D02*
G75*
G03*
X88174608Y-139840341I-20454J1025480D01*
G01*
D10*
X46691247Y-137785942D02*
X46041247Y-136535942D01*
X79591247Y-137785942D02*
X78941247Y-136535942D01*
X25775000Y-136025000D02*
X27325000Y-132925000D01*
X69341247Y-124635942D02*
X66941247Y-124635942D01*
X63541247Y-137735942D02*
X58941247Y-136135942D01*
D12*
X88174419Y-115220799D02*
X88174609Y-139840341D01*
X87121247Y-114215942D02*
X20266321Y-114209003D01*
X88174430Y-115220799D02*
G75*
G03*
X87121247Y-114215943I-1025430J-20401D01*
G01*
D10*
X23050000Y-138600000D02*
X24025000Y-134850000D01*
X69341247Y-124635942D02*
X66141247Y-121535942D01*
X63591247Y-137785942D02*
X62241247Y-138235942D01*
D13*
X66910880Y-56850000D02*
G75*
G03*
X66910880Y-56850000I-2750427J0D01*
G01*
D12*
X20302018Y-140898023D02*
X87169753Y-140893513D01*
D10*
X79541247Y-137735942D02*
X74941247Y-136135942D01*
X52341247Y-124535942D02*
X49941247Y-124535942D01*
X36650000Y-130125000D02*
X35186287Y-127984031D01*
X52341247Y-124535942D02*
X52341247Y-122135942D01*
X22252896Y-135411689D02*
X19925000Y-140200000D01*
X52341247Y-124535942D02*
X49141247Y-121435942D01*
X36650000Y-130125000D02*
X37750000Y-127225000D01*
X46691247Y-137785942D02*
X45341247Y-138235942D01*
X74941247Y-136035942D02*
X77541247Y-132835942D01*
X79591247Y-137785942D02*
X78241247Y-138235942D01*
D12*
X20266321Y-114209004D02*
G75*
G03*
X19261466Y-115262175I20399J-1025426D01*
G01*
X19259851Y-115230987D02*
X19255643Y-139853894D01*
D10*
X37750000Y-127225000D02*
X38650000Y-131225000D01*
D12*
X19248843Y-139893168D02*
G75*
G03*
X20302018Y-140898022I1025387J20358D01*
G01*
D10*
X46641247Y-137735942D02*
X42041247Y-136135942D01*
X63591247Y-137785942D02*
X62941247Y-136535942D01*
X85441247Y-124535942D02*
X82241247Y-121435942D01*
X58941247Y-136035942D02*
X61541247Y-132835942D01*
D12*
X37850000Y-119100000D02*
X34050000Y-121375000D01*
X34050000Y-116825000D01*
X37850000Y-119100000D01*
G36*
X37850000Y-119100000D02*
G01*
X34050000Y-121375000D01*
X34050000Y-116825000D01*
X37850000Y-119100000D01*
G37*
D10*
X85441247Y-124535942D02*
X83041247Y-124535942D01*
D14*
G36*
X50960547Y-138526750D02*
G01*
X50700735Y-138786563D01*
X50440923Y-138266938D01*
X50960547Y-138526750D01*
G37*
G36*
X54075532Y-136674458D02*
G01*
X50871257Y-139878732D01*
X49330774Y-138338249D01*
X49659454Y-138009569D01*
X50038391Y-138009569D01*
X50040408Y-138015639D01*
X50040311Y-138018399D01*
X50042614Y-138022276D01*
X50049612Y-138043333D01*
X50756718Y-139457545D01*
X50804689Y-139509117D01*
X50872927Y-139526566D01*
X50939766Y-139504354D01*
X50983986Y-139449531D01*
X50991546Y-139379505D01*
X50980325Y-139345742D01*
X50818586Y-139022264D01*
X51196250Y-138644601D01*
X51519727Y-138806340D01*
X51589047Y-138818815D01*
X51654107Y-138791832D01*
X51694250Y-138733959D01*
X51696733Y-138663569D01*
X51660766Y-138603012D01*
X51631531Y-138582734D01*
X50217317Y-137875628D01*
X50186926Y-137870158D01*
X50157010Y-137862509D01*
X50152586Y-137863978D01*
X50147997Y-137863153D01*
X50119469Y-137874984D01*
X50090171Y-137884721D01*
X50087244Y-137888349D01*
X50082937Y-137890136D01*
X50065338Y-137915507D01*
X50045951Y-137939543D01*
X50045450Y-137944179D01*
X50042794Y-137948009D01*
X50041705Y-137978868D01*
X50038391Y-138009569D01*
X49659454Y-138009569D01*
X50287684Y-137381339D01*
X50945553Y-137381339D01*
X50946212Y-137383585D01*
X50945634Y-137385856D01*
X50951967Y-137420867D01*
X51002474Y-137572390D01*
X51004975Y-137575989D01*
X51013873Y-137597174D01*
X51165396Y-137849712D01*
X51167898Y-137852018D01*
X51184195Y-137873788D01*
X51335718Y-138025311D01*
X51338700Y-138026939D01*
X51359794Y-138044110D01*
X51612332Y-138195632D01*
X51616573Y-138196736D01*
X51637115Y-138207031D01*
X51788638Y-138257539D01*
X51790977Y-138257623D01*
X51792950Y-138258891D01*
X51828167Y-138263954D01*
X52030197Y-138263954D01*
X52041069Y-138260761D01*
X52052336Y-138261978D01*
X52086099Y-138250757D01*
X52288130Y-138149741D01*
X52289844Y-138148146D01*
X52292134Y-138147648D01*
X52320616Y-138126326D01*
X52421632Y-138025311D01*
X52422754Y-138023254D01*
X52424768Y-138022059D01*
X52445046Y-137992825D01*
X52546061Y-137790795D01*
X52548067Y-137779644D01*
X52554195Y-137770110D01*
X52559258Y-137734893D01*
X52559258Y-137633877D01*
X52539415Y-137566297D01*
X52486185Y-137520173D01*
X52416469Y-137510149D01*
X52352400Y-137539408D01*
X52314321Y-137598660D01*
X52309258Y-137633877D01*
X52309258Y-137705384D01*
X52230511Y-137862877D01*
X52158183Y-137935206D01*
X52000689Y-138013954D01*
X51848450Y-138013954D01*
X51729192Y-137974200D01*
X51501610Y-137837651D01*
X51371852Y-137707893D01*
X51235306Y-137480316D01*
X51195553Y-137361053D01*
X51195553Y-137208817D01*
X51274300Y-137051322D01*
X51346627Y-136978995D01*
X51504123Y-136900248D01*
X51575629Y-136900248D01*
X51643209Y-136880405D01*
X51689333Y-136827175D01*
X51699357Y-136757459D01*
X51670098Y-136693390D01*
X51610846Y-136655311D01*
X51575629Y-136650248D01*
X51474614Y-136650248D01*
X51463741Y-136653440D01*
X51452476Y-136652224D01*
X51418712Y-136663445D01*
X51216682Y-136764459D01*
X51214967Y-136766053D01*
X51212677Y-136766552D01*
X51184195Y-136787874D01*
X51083180Y-136888890D01*
X51082058Y-136890944D01*
X51080042Y-136892142D01*
X51059764Y-136921377D01*
X50958749Y-137123408D01*
X50956742Y-137134559D01*
X50950616Y-137144092D01*
X50945553Y-137179309D01*
X50945553Y-137381339D01*
X50287684Y-137381339D01*
X51348344Y-136320679D01*
X52006213Y-136320679D01*
X52006872Y-136322925D01*
X52006294Y-136325196D01*
X52012627Y-136360207D01*
X52063134Y-136511730D01*
X52065635Y-136515329D01*
X52074533Y-136536514D01*
X52226056Y-136789052D01*
X52228558Y-136791358D01*
X52244855Y-136813128D01*
X52396378Y-136964651D01*
X52399360Y-136966279D01*
X52420454Y-136983450D01*
X52672992Y-137134972D01*
X52677233Y-137136076D01*
X52697775Y-137146371D01*
X52849298Y-137196879D01*
X52851637Y-137196963D01*
X52853610Y-137198231D01*
X52888827Y-137203294D01*
X53090858Y-137203294D01*
X53101730Y-137200101D01*
X53112997Y-137201318D01*
X53146760Y-137190097D01*
X53348790Y-137089081D01*
X53350504Y-137087486D01*
X53352794Y-137086988D01*
X53381276Y-137065666D01*
X53482292Y-136964651D01*
X53483414Y-136962596D01*
X53485428Y-136961400D01*
X53505706Y-136932165D01*
X53606722Y-136730135D01*
X53608728Y-136718984D01*
X53614856Y-136709450D01*
X53619919Y-136674233D01*
X53619919Y-136573217D01*
X53600076Y-136505637D01*
X53546846Y-136459513D01*
X53477130Y-136449489D01*
X53413061Y-136478748D01*
X53374982Y-136538000D01*
X53369919Y-136573217D01*
X53369919Y-136644724D01*
X53291172Y-136802217D01*
X53218843Y-136874546D01*
X53061350Y-136953294D01*
X52909110Y-136953294D01*
X52789852Y-136913540D01*
X52562270Y-136776991D01*
X52432512Y-136647233D01*
X52295966Y-136419656D01*
X52256213Y-136300393D01*
X52256213Y-136148157D01*
X52334960Y-135990662D01*
X52407287Y-135918335D01*
X52564783Y-135839588D01*
X52636289Y-135839588D01*
X52703869Y-135819745D01*
X52749993Y-135766515D01*
X52760017Y-135696799D01*
X52730758Y-135632730D01*
X52671506Y-135594651D01*
X52636289Y-135589588D01*
X52535274Y-135589588D01*
X52524401Y-135592780D01*
X52513136Y-135591564D01*
X52479372Y-135602785D01*
X52277342Y-135703799D01*
X52275627Y-135705393D01*
X52273337Y-135705892D01*
X52244855Y-135727214D01*
X52143840Y-135828230D01*
X52142718Y-135830284D01*
X52140702Y-135831482D01*
X52120424Y-135860717D01*
X52019409Y-136062748D01*
X52017402Y-136073899D01*
X52011276Y-136083432D01*
X52006213Y-136118649D01*
X52006213Y-136320679D01*
X51348344Y-136320679D01*
X52535048Y-135133975D01*
X54075532Y-136674458D01*
G37*
G36*
X73990989Y-119481531D02*
G01*
X74033728Y-119524270D01*
X74082889Y-119622592D01*
X74082889Y-120039513D01*
X73547175Y-120039513D01*
X73547175Y-119622592D01*
X73596335Y-119524272D01*
X73639077Y-119481529D01*
X73737397Y-119432370D01*
X73892666Y-119432370D01*
X73990989Y-119481531D01*
G37*
G36*
X75261461Y-121859669D02*
G01*
X73082889Y-121859669D01*
X73082889Y-121521655D01*
X73297175Y-121521655D01*
X73317018Y-121589235D01*
X73370248Y-121635359D01*
X73439964Y-121645383D01*
X73504033Y-121616124D01*
X73542112Y-121556872D01*
X73547175Y-121521655D01*
X73547175Y-121218084D01*
X74922175Y-121218084D01*
X74989755Y-121198241D01*
X75035879Y-121145011D01*
X75045903Y-121075295D01*
X75016644Y-121011226D01*
X74957392Y-120973147D01*
X74922175Y-120968084D01*
X73547175Y-120968084D01*
X73547175Y-120664513D01*
X73527332Y-120596933D01*
X73474102Y-120550809D01*
X73404386Y-120540785D01*
X73340317Y-120570044D01*
X73302238Y-120629296D01*
X73297175Y-120664513D01*
X73297175Y-121521655D01*
X73082889Y-121521655D01*
X73082889Y-120164513D01*
X73297175Y-120164513D01*
X73299745Y-120173268D01*
X73298447Y-120182302D01*
X73309513Y-120206534D01*
X73317018Y-120232093D01*
X73323914Y-120238068D01*
X73327706Y-120246371D01*
X73350118Y-120260774D01*
X73370248Y-120278217D01*
X73379280Y-120279515D01*
X73386958Y-120284450D01*
X73422175Y-120289513D01*
X74922175Y-120289513D01*
X74989755Y-120269670D01*
X75035879Y-120216440D01*
X75045903Y-120146724D01*
X75016644Y-120082655D01*
X74957392Y-120044576D01*
X74922175Y-120039513D01*
X74332889Y-120039513D01*
X74332889Y-119872452D01*
X74993858Y-119409774D01*
X75037842Y-119354763D01*
X75045103Y-119284705D01*
X75013336Y-119221843D01*
X74952625Y-119186135D01*
X74882247Y-119188918D01*
X74850492Y-119204966D01*
X74330300Y-119569099D01*
X74319693Y-119537183D01*
X74248265Y-119394326D01*
X74246670Y-119392611D01*
X74246172Y-119390321D01*
X74224849Y-119361839D01*
X74153420Y-119290410D01*
X74151365Y-119289288D01*
X74150168Y-119287272D01*
X74120934Y-119266995D01*
X73978076Y-119195566D01*
X73966924Y-119193559D01*
X73957392Y-119187433D01*
X73922175Y-119182370D01*
X73707889Y-119182370D01*
X73697019Y-119185561D01*
X73685751Y-119184345D01*
X73651988Y-119195566D01*
X73509131Y-119266994D01*
X73507415Y-119268589D01*
X73505125Y-119269088D01*
X73476643Y-119290410D01*
X73405215Y-119361839D01*
X73404092Y-119363893D01*
X73402079Y-119365090D01*
X73381801Y-119394325D01*
X73310372Y-119537182D01*
X73308365Y-119548332D01*
X73302238Y-119557867D01*
X73297175Y-119593084D01*
X73297175Y-120164513D01*
X73082889Y-120164513D01*
X73082889Y-118682302D01*
X73298447Y-118682302D01*
X73327706Y-118746371D01*
X73386958Y-118784450D01*
X73422175Y-118789513D01*
X74922175Y-118789513D01*
X74989755Y-118769670D01*
X75035879Y-118716440D01*
X75045903Y-118646724D01*
X75016644Y-118582655D01*
X74957392Y-118544576D01*
X74922175Y-118539513D01*
X73422175Y-118539513D01*
X73354595Y-118559356D01*
X73308471Y-118612586D01*
X73298447Y-118682302D01*
X73082889Y-118682302D01*
X73082889Y-117521655D01*
X73297175Y-117521655D01*
X73297834Y-117523901D01*
X73297256Y-117526173D01*
X73303590Y-117561184D01*
X73375019Y-117775469D01*
X73381484Y-117784772D01*
X73383894Y-117795847D01*
X73405216Y-117824329D01*
X73548072Y-117967186D01*
X73550127Y-117968308D01*
X73551324Y-117970323D01*
X73580559Y-117990601D01*
X73723416Y-118062030D01*
X73727727Y-118062805D01*
X73749001Y-118071495D01*
X74034715Y-118142923D01*
X74038112Y-118142784D01*
X74065032Y-118146655D01*
X74279318Y-118146655D01*
X74282581Y-118145696D01*
X74309635Y-118142923D01*
X74595349Y-118071495D01*
X74599130Y-118069276D01*
X74620934Y-118062030D01*
X74763791Y-117990601D01*
X74765504Y-117989007D01*
X74767795Y-117988509D01*
X74796277Y-117967187D01*
X74939135Y-117824330D01*
X74944565Y-117814385D01*
X74953393Y-117807278D01*
X74969333Y-117775469D01*
X75040761Y-117561183D01*
X75040845Y-117558842D01*
X75042112Y-117556872D01*
X75047175Y-117521655D01*
X75047175Y-117378798D01*
X75046515Y-117376551D01*
X75047094Y-117374281D01*
X75040761Y-117339270D01*
X74969333Y-117124984D01*
X74962866Y-117115678D01*
X74960457Y-117104605D01*
X74939135Y-117076123D01*
X74867706Y-117004695D01*
X74840559Y-116989872D01*
X74814535Y-116973147D01*
X74808284Y-116972248D01*
X74805888Y-116970940D01*
X74801411Y-116971260D01*
X74779318Y-116968084D01*
X74279318Y-116968084D01*
X74270562Y-116970654D01*
X74261529Y-116969356D01*
X74237296Y-116980422D01*
X74211738Y-116987927D01*
X74205762Y-116994823D01*
X74197460Y-116998615D01*
X74183056Y-117021027D01*
X74165614Y-117041157D01*
X74164315Y-117050189D01*
X74159381Y-117057867D01*
X74154318Y-117093084D01*
X74154318Y-117378798D01*
X74174161Y-117446378D01*
X74227391Y-117492502D01*
X74297107Y-117502526D01*
X74361176Y-117473267D01*
X74399255Y-117414015D01*
X74404318Y-117378798D01*
X74404318Y-117218084D01*
X74727542Y-117218084D01*
X74741492Y-117232034D01*
X74797175Y-117399083D01*
X74797175Y-117501369D01*
X74741492Y-117668418D01*
X74633843Y-117776067D01*
X74521404Y-117832286D01*
X74263929Y-117896655D01*
X74080421Y-117896655D01*
X73822945Y-117832286D01*
X73710506Y-117776067D01*
X73602857Y-117668418D01*
X73547175Y-117501370D01*
X73547175Y-117336878D01*
X73605407Y-117220414D01*
X73617882Y-117151094D01*
X73590899Y-117086035D01*
X73533026Y-117045891D01*
X73462636Y-117043408D01*
X73402079Y-117079376D01*
X73381801Y-117108610D01*
X73310372Y-117251468D01*
X73308365Y-117262618D01*
X73302238Y-117272153D01*
X73297175Y-117307370D01*
X73297175Y-117521655D01*
X73082889Y-117521655D01*
X73082889Y-116753798D01*
X75261461Y-116753798D01*
X75261461Y-121859669D01*
G37*
D10*
X46925000Y-93702285D02*
X47210714Y-93988000D01*
X47210714Y-93988000D02*
X46925000Y-94273714D01*
X46925000Y-94273714D02*
X46639286Y-93988000D01*
X46639286Y-93988000D02*
X46925000Y-93702285D01*
X46925000Y-93702285D02*
X46925000Y-94273714D01*
D14*
G36*
X41090989Y-119481531D02*
G01*
X41133727Y-119524270D01*
X41182889Y-119622591D01*
X41182889Y-120039513D01*
X40647175Y-120039513D01*
X40647175Y-119622592D01*
X40696335Y-119524272D01*
X40739077Y-119481529D01*
X40837397Y-119432370D01*
X40992666Y-119432370D01*
X41090989Y-119481531D01*
G37*
G36*
X42361461Y-121859669D02*
G01*
X40182889Y-121859669D01*
X40182889Y-121521655D01*
X40397175Y-121521655D01*
X40417018Y-121589235D01*
X40470248Y-121635359D01*
X40539964Y-121645383D01*
X40604033Y-121616124D01*
X40642112Y-121556872D01*
X40647175Y-121521655D01*
X40647175Y-121218084D01*
X42022175Y-121218084D01*
X42089755Y-121198241D01*
X42135879Y-121145011D01*
X42145903Y-121075295D01*
X42116644Y-121011226D01*
X42057392Y-120973147D01*
X42022175Y-120968084D01*
X40647175Y-120968084D01*
X40647175Y-120664513D01*
X40627332Y-120596933D01*
X40574102Y-120550809D01*
X40504386Y-120540785D01*
X40440317Y-120570044D01*
X40402238Y-120629296D01*
X40397175Y-120664513D01*
X40397175Y-121521655D01*
X40182889Y-121521655D01*
X40182889Y-120164513D01*
X40397175Y-120164513D01*
X40399745Y-120173268D01*
X40398447Y-120182302D01*
X40409513Y-120206534D01*
X40417018Y-120232093D01*
X40423914Y-120238068D01*
X40427706Y-120246371D01*
X40450118Y-120260774D01*
X40470248Y-120278217D01*
X40479280Y-120279515D01*
X40486958Y-120284450D01*
X40522175Y-120289513D01*
X42022175Y-120289513D01*
X42089755Y-120269670D01*
X42135879Y-120216440D01*
X42145903Y-120146724D01*
X42116644Y-120082655D01*
X42057392Y-120044576D01*
X42022175Y-120039513D01*
X41432889Y-120039513D01*
X41432889Y-119872452D01*
X42093858Y-119409774D01*
X42137842Y-119354763D01*
X42145103Y-119284705D01*
X42113336Y-119221843D01*
X42052625Y-119186135D01*
X41982247Y-119188918D01*
X41950492Y-119204966D01*
X41430300Y-119569099D01*
X41419693Y-119537183D01*
X41348265Y-119394326D01*
X41346670Y-119392611D01*
X41346172Y-119390321D01*
X41324849Y-119361839D01*
X41253420Y-119290410D01*
X41251365Y-119289288D01*
X41250168Y-119287272D01*
X41220934Y-119266995D01*
X41078076Y-119195566D01*
X41066924Y-119193559D01*
X41057392Y-119187433D01*
X41022175Y-119182370D01*
X40807889Y-119182370D01*
X40797019Y-119185561D01*
X40785751Y-119184345D01*
X40751988Y-119195566D01*
X40609131Y-119266994D01*
X40607415Y-119268589D01*
X40605125Y-119269088D01*
X40576643Y-119290410D01*
X40505215Y-119361839D01*
X40504092Y-119363893D01*
X40502079Y-119365090D01*
X40481801Y-119394325D01*
X40410372Y-119537182D01*
X40408365Y-119548332D01*
X40402238Y-119557867D01*
X40397175Y-119593084D01*
X40397175Y-120164513D01*
X40182889Y-120164513D01*
X40182889Y-118682302D01*
X40398447Y-118682302D01*
X40427706Y-118746371D01*
X40486958Y-118784450D01*
X40522175Y-118789513D01*
X42022175Y-118789513D01*
X42089755Y-118769670D01*
X42135879Y-118716440D01*
X42145903Y-118646724D01*
X42116644Y-118582655D01*
X42057392Y-118544576D01*
X42022175Y-118539513D01*
X40522175Y-118539513D01*
X40454595Y-118559356D01*
X40408471Y-118612586D01*
X40398447Y-118682302D01*
X40182889Y-118682302D01*
X40182889Y-117521655D01*
X40397175Y-117521655D01*
X40397834Y-117523901D01*
X40397256Y-117526173D01*
X40403590Y-117561184D01*
X40475019Y-117775469D01*
X40481484Y-117784772D01*
X40483894Y-117795847D01*
X40505216Y-117824329D01*
X40648072Y-117967186D01*
X40650127Y-117968308D01*
X40651324Y-117970323D01*
X40680559Y-117990601D01*
X40823416Y-118062030D01*
X40827727Y-118062805D01*
X40849001Y-118071495D01*
X41134715Y-118142923D01*
X41138112Y-118142784D01*
X41165032Y-118146655D01*
X41379318Y-118146655D01*
X41382581Y-118145696D01*
X41409635Y-118142923D01*
X41695349Y-118071495D01*
X41699130Y-118069276D01*
X41720934Y-118062030D01*
X41863791Y-117990601D01*
X41865504Y-117989007D01*
X41867795Y-117988509D01*
X41896277Y-117967187D01*
X42039135Y-117824330D01*
X42044565Y-117814385D01*
X42053393Y-117807278D01*
X42069333Y-117775469D01*
X42140761Y-117561183D01*
X42140845Y-117558842D01*
X42142112Y-117556872D01*
X42147175Y-117521655D01*
X42147175Y-117378798D01*
X42146515Y-117376551D01*
X42147094Y-117374281D01*
X42140761Y-117339270D01*
X42069333Y-117124984D01*
X42062866Y-117115678D01*
X42060457Y-117104605D01*
X42039135Y-117076123D01*
X41967706Y-117004695D01*
X41940559Y-116989872D01*
X41914535Y-116973147D01*
X41908284Y-116972248D01*
X41905888Y-116970940D01*
X41901411Y-116971260D01*
X41879318Y-116968084D01*
X41379318Y-116968084D01*
X41370562Y-116970654D01*
X41361529Y-116969356D01*
X41337296Y-116980422D01*
X41311738Y-116987927D01*
X41305762Y-116994823D01*
X41297460Y-116998615D01*
X41283056Y-117021027D01*
X41265614Y-117041157D01*
X41264315Y-117050189D01*
X41259381Y-117057867D01*
X41254318Y-117093084D01*
X41254318Y-117378798D01*
X41274161Y-117446378D01*
X41327391Y-117492502D01*
X41397107Y-117502526D01*
X41461176Y-117473267D01*
X41499255Y-117414015D01*
X41504318Y-117378798D01*
X41504318Y-117218084D01*
X41827542Y-117218084D01*
X41841492Y-117232034D01*
X41897175Y-117399083D01*
X41897175Y-117501369D01*
X41841492Y-117668418D01*
X41733843Y-117776067D01*
X41621404Y-117832286D01*
X41363929Y-117896655D01*
X41180421Y-117896655D01*
X40922945Y-117832286D01*
X40810506Y-117776067D01*
X40702857Y-117668418D01*
X40647175Y-117501370D01*
X40647175Y-117336877D01*
X40705407Y-117220414D01*
X40717882Y-117151094D01*
X40690899Y-117086035D01*
X40633026Y-117045891D01*
X40562636Y-117043408D01*
X40502079Y-117079376D01*
X40481801Y-117108610D01*
X40410372Y-117251468D01*
X40408365Y-117262618D01*
X40402238Y-117272153D01*
X40397175Y-117307370D01*
X40397175Y-117521655D01*
X40182889Y-117521655D01*
X40182889Y-116753798D01*
X42361461Y-116753798D01*
X42361461Y-121859669D01*
G37*
D10*
X21967523Y-106121427D02*
X22158000Y-106311903D01*
X22158000Y-106311903D02*
X22348476Y-106883332D01*
X22348476Y-106883332D02*
X22348476Y-107264284D01*
X22348476Y-107264284D02*
X22158000Y-107835713D01*
X22158000Y-107835713D02*
X21777047Y-108216665D01*
X21777047Y-108216665D02*
X21396095Y-108407142D01*
X21396095Y-108407142D02*
X20634190Y-108597618D01*
X20634190Y-108597618D02*
X20062761Y-108597618D01*
X20062761Y-108597618D02*
X19300857Y-108407142D01*
X19300857Y-108407142D02*
X18919904Y-108216665D01*
X18919904Y-108216665D02*
X18538952Y-107835713D01*
X18538952Y-107835713D02*
X18348476Y-107264284D01*
X18348476Y-107264284D02*
X18348476Y-106883332D01*
X18348476Y-106883332D02*
X18538952Y-106311903D01*
X18538952Y-106311903D02*
X18729428Y-106121427D01*
X22348476Y-104407142D02*
X18348476Y-104407142D01*
X20253238Y-104407142D02*
X20253238Y-102121427D01*
X22348476Y-102121427D02*
X18348476Y-102121427D01*
X21205619Y-100407142D02*
X21205619Y-98502380D01*
X22348476Y-100788094D02*
X18348476Y-99454761D01*
X18348476Y-99454761D02*
X22348476Y-98121427D01*
X18348476Y-96026190D02*
X18348476Y-95264285D01*
X18348476Y-95264285D02*
X18538952Y-94883333D01*
X18538952Y-94883333D02*
X18919904Y-94502380D01*
X18919904Y-94502380D02*
X19681809Y-94311904D01*
X19681809Y-94311904D02*
X21015142Y-94311904D01*
X21015142Y-94311904D02*
X21777047Y-94502380D01*
X21777047Y-94502380D02*
X22158000Y-94883333D01*
X22158000Y-94883333D02*
X22348476Y-95264285D01*
X22348476Y-95264285D02*
X22348476Y-96026190D01*
X22348476Y-96026190D02*
X22158000Y-96407142D01*
X22158000Y-96407142D02*
X21777047Y-96788095D01*
X21777047Y-96788095D02*
X21015142Y-96978571D01*
X21015142Y-96978571D02*
X19681809Y-96978571D01*
X19681809Y-96978571D02*
X18919904Y-96788095D01*
X18919904Y-96788095D02*
X18538952Y-96407142D01*
X18538952Y-96407142D02*
X18348476Y-96026190D01*
X22158000Y-92788095D02*
X22348476Y-92216666D01*
X22348476Y-92216666D02*
X22348476Y-91264285D01*
X22348476Y-91264285D02*
X22158000Y-90883333D01*
X22158000Y-90883333D02*
X21967523Y-90692857D01*
X21967523Y-90692857D02*
X21586571Y-90502380D01*
X21586571Y-90502380D02*
X21205619Y-90502380D01*
X21205619Y-90502380D02*
X20824666Y-90692857D01*
X20824666Y-90692857D02*
X20634190Y-90883333D01*
X20634190Y-90883333D02*
X20443714Y-91264285D01*
X20443714Y-91264285D02*
X20253238Y-92026190D01*
X20253238Y-92026190D02*
X20062761Y-92407142D01*
X20062761Y-92407142D02*
X19872285Y-92597619D01*
X19872285Y-92597619D02*
X19491333Y-92788095D01*
X19491333Y-92788095D02*
X19110380Y-92788095D01*
X19110380Y-92788095D02*
X18729428Y-92597619D01*
X18729428Y-92597619D02*
X18538952Y-92407142D01*
X18538952Y-92407142D02*
X18348476Y-92026190D01*
X18348476Y-92026190D02*
X18348476Y-91073809D01*
X18348476Y-91073809D02*
X18538952Y-90502380D01*
D14*
X74075214Y-109057143D02*
X74075214Y-109557143D01*
X74860928Y-109557143D02*
X73360928Y-109557143D01*
X73360928Y-109557143D02*
X73360928Y-108842857D01*
X74860928Y-108271429D02*
X73360928Y-108271429D01*
X74860928Y-106842857D02*
X74860928Y-107557143D01*
X74860928Y-107557143D02*
X73360928Y-107557143D01*
X74860928Y-105628571D02*
X74860928Y-106342857D01*
X74860928Y-106342857D02*
X73360928Y-106342857D01*
D12*
X39881246Y-28755180D02*
X39214579Y-27802799D01*
X38738389Y-28755180D02*
X38738389Y-26755180D01*
X38738389Y-26755180D02*
X39500294Y-26755180D01*
X39500294Y-26755180D02*
X39690770Y-26850418D01*
X39690770Y-26850418D02*
X39786008Y-26945656D01*
X39786008Y-26945656D02*
X39881246Y-27136132D01*
X39881246Y-27136132D02*
X39881246Y-27421846D01*
X39881246Y-27421846D02*
X39786008Y-27612322D01*
X39786008Y-27612322D02*
X39690770Y-27707561D01*
X39690770Y-27707561D02*
X39500294Y-27802799D01*
X39500294Y-27802799D02*
X38738389Y-27802799D01*
X40738389Y-27707561D02*
X41405056Y-27707561D01*
X41690770Y-28755180D02*
X40738389Y-28755180D01*
X40738389Y-28755180D02*
X40738389Y-26755180D01*
X40738389Y-26755180D02*
X41690770Y-26755180D01*
X42452675Y-28659942D02*
X42738389Y-28755180D01*
X42738389Y-28755180D02*
X43214580Y-28755180D01*
X43214580Y-28755180D02*
X43405056Y-28659942D01*
X43405056Y-28659942D02*
X43500294Y-28564703D01*
X43500294Y-28564703D02*
X43595532Y-28374227D01*
X43595532Y-28374227D02*
X43595532Y-28183751D01*
X43595532Y-28183751D02*
X43500294Y-27993275D01*
X43500294Y-27993275D02*
X43405056Y-27898037D01*
X43405056Y-27898037D02*
X43214580Y-27802799D01*
X43214580Y-27802799D02*
X42833627Y-27707561D01*
X42833627Y-27707561D02*
X42643151Y-27612322D01*
X42643151Y-27612322D02*
X42547913Y-27517084D01*
X42547913Y-27517084D02*
X42452675Y-27326608D01*
X42452675Y-27326608D02*
X42452675Y-27136132D01*
X42452675Y-27136132D02*
X42547913Y-26945656D01*
X42547913Y-26945656D02*
X42643151Y-26850418D01*
X42643151Y-26850418D02*
X42833627Y-26755180D01*
X42833627Y-26755180D02*
X43309818Y-26755180D01*
X43309818Y-26755180D02*
X43595532Y-26850418D01*
X44452675Y-27707561D02*
X45119342Y-27707561D01*
X45405056Y-28755180D02*
X44452675Y-28755180D01*
X44452675Y-28755180D02*
X44452675Y-26755180D01*
X44452675Y-26755180D02*
X45405056Y-26755180D01*
X45976485Y-26755180D02*
X47119342Y-26755180D01*
X46547913Y-28755180D02*
X46547913Y-26755180D01*
D10*
X62371428Y-93702285D02*
X62657142Y-93988000D01*
X62657142Y-93988000D02*
X62371428Y-94273714D01*
X62371428Y-94273714D02*
X62085714Y-93988000D01*
X62085714Y-93988000D02*
X62371428Y-93702285D01*
X62371428Y-93702285D02*
X62371428Y-94273714D01*
X65228571Y-93702285D02*
X65514285Y-93988000D01*
X65514285Y-93988000D02*
X65228571Y-94273714D01*
X65228571Y-94273714D02*
X64942857Y-93988000D01*
X64942857Y-93988000D02*
X65228571Y-93702285D01*
X65228571Y-93702285D02*
X65228571Y-94273714D01*
D14*
X41075214Y-109057143D02*
X41075214Y-109557143D01*
X41860928Y-109557143D02*
X40360928Y-109557143D01*
X40360928Y-109557143D02*
X40360928Y-108842857D01*
X41860928Y-108271429D02*
X40360928Y-108271429D01*
X41860928Y-106842857D02*
X41860928Y-107557143D01*
X41860928Y-107557143D02*
X40360928Y-107557143D01*
X41860928Y-105628571D02*
X41860928Y-106342857D01*
X41860928Y-106342857D02*
X40360928Y-106342857D01*
X57675214Y-109057143D02*
X57675214Y-109557143D01*
X58460928Y-109557143D02*
X56960928Y-109557143D01*
X56960928Y-109557143D02*
X56960928Y-108842857D01*
X58460928Y-108271429D02*
X56960928Y-108271429D01*
X58460928Y-106842857D02*
X58460928Y-107557143D01*
X58460928Y-107557143D02*
X56960928Y-107557143D01*
X58460928Y-105628571D02*
X58460928Y-106342857D01*
X58460928Y-106342857D02*
X56960928Y-106342857D01*
D10*
X81593190Y-35409524D02*
X81593190Y-36933333D01*
X82926523Y-35980952D02*
X79497952Y-35980952D01*
X79497952Y-35980952D02*
X79117000Y-36171429D01*
X79117000Y-36171429D02*
X78926523Y-36552381D01*
X78926523Y-36552381D02*
X78926523Y-36933333D01*
X78926523Y-38266666D02*
X81593190Y-38266666D01*
X80831285Y-38266666D02*
X81212238Y-38457143D01*
X81212238Y-38457143D02*
X81402714Y-38647619D01*
X81402714Y-38647619D02*
X81593190Y-39028571D01*
X81593190Y-39028571D02*
X81593190Y-39409524D01*
X78926523Y-40742856D02*
X81593190Y-40742856D01*
X82926523Y-40742856D02*
X82736047Y-40552380D01*
X82736047Y-40552380D02*
X82545571Y-40742856D01*
X82545571Y-40742856D02*
X82736047Y-40933333D01*
X82736047Y-40933333D02*
X82926523Y-40742856D01*
X82926523Y-40742856D02*
X82545571Y-40742856D01*
X81593190Y-44361904D02*
X78355095Y-44361904D01*
X78355095Y-44361904D02*
X77974142Y-44171428D01*
X77974142Y-44171428D02*
X77783666Y-43980952D01*
X77783666Y-43980952D02*
X77593190Y-43599999D01*
X77593190Y-43599999D02*
X77593190Y-43028571D01*
X77593190Y-43028571D02*
X77783666Y-42647618D01*
X79117000Y-44361904D02*
X78926523Y-43980952D01*
X78926523Y-43980952D02*
X78926523Y-43219047D01*
X78926523Y-43219047D02*
X79117000Y-42838095D01*
X79117000Y-42838095D02*
X79307476Y-42647618D01*
X79307476Y-42647618D02*
X79688428Y-42457142D01*
X79688428Y-42457142D02*
X80831285Y-42457142D01*
X80831285Y-42457142D02*
X81212238Y-42647618D01*
X81212238Y-42647618D02*
X81402714Y-42838095D01*
X81402714Y-42838095D02*
X81593190Y-43219047D01*
X81593190Y-43219047D02*
X81593190Y-43980952D01*
X81593190Y-43980952D02*
X81402714Y-44361904D01*
X81593190Y-47980952D02*
X78355095Y-47980952D01*
X78355095Y-47980952D02*
X77974142Y-47790476D01*
X77974142Y-47790476D02*
X77783666Y-47600000D01*
X77783666Y-47600000D02*
X77593190Y-47219047D01*
X77593190Y-47219047D02*
X77593190Y-46647619D01*
X77593190Y-46647619D02*
X77783666Y-46266666D01*
X79117000Y-47980952D02*
X78926523Y-47600000D01*
X78926523Y-47600000D02*
X78926523Y-46838095D01*
X78926523Y-46838095D02*
X79117000Y-46457143D01*
X79117000Y-46457143D02*
X79307476Y-46266666D01*
X79307476Y-46266666D02*
X79688428Y-46076190D01*
X79688428Y-46076190D02*
X80831285Y-46076190D01*
X80831285Y-46076190D02*
X81212238Y-46266666D01*
X81212238Y-46266666D02*
X81402714Y-46457143D01*
X81402714Y-46457143D02*
X81593190Y-46838095D01*
X81593190Y-46838095D02*
X81593190Y-47600000D01*
X81593190Y-47600000D02*
X81402714Y-47980952D01*
X79117000Y-51409524D02*
X78926523Y-51028572D01*
X78926523Y-51028572D02*
X78926523Y-50266667D01*
X78926523Y-50266667D02*
X79117000Y-49885714D01*
X79117000Y-49885714D02*
X79497952Y-49695238D01*
X79497952Y-49695238D02*
X81021761Y-49695238D01*
X81021761Y-49695238D02*
X81402714Y-49885714D01*
X81402714Y-49885714D02*
X81593190Y-50266667D01*
X81593190Y-50266667D02*
X81593190Y-51028572D01*
X81593190Y-51028572D02*
X81402714Y-51409524D01*
X81402714Y-51409524D02*
X81021761Y-51600000D01*
X81021761Y-51600000D02*
X80640809Y-51600000D01*
X80640809Y-51600000D02*
X80259857Y-49695238D01*
X78926523Y-53314285D02*
X81593190Y-53314285D01*
X80831285Y-53314285D02*
X81212238Y-53504762D01*
X81212238Y-53504762D02*
X81402714Y-53695238D01*
X81402714Y-53695238D02*
X81593190Y-54076190D01*
X81593190Y-54076190D02*
X81593190Y-54457143D01*
X79117000Y-55599999D02*
X78926523Y-55980952D01*
X78926523Y-55980952D02*
X78926523Y-56742856D01*
X78926523Y-56742856D02*
X79117000Y-57123809D01*
X79117000Y-57123809D02*
X79497952Y-57314285D01*
X79497952Y-57314285D02*
X79688428Y-57314285D01*
X79688428Y-57314285D02*
X80069380Y-57123809D01*
X80069380Y-57123809D02*
X80259857Y-56742856D01*
X80259857Y-56742856D02*
X80259857Y-56171428D01*
X80259857Y-56171428D02*
X80450333Y-55790475D01*
X80450333Y-55790475D02*
X80831285Y-55599999D01*
X80831285Y-55599999D02*
X81021761Y-55599999D01*
X81021761Y-55599999D02*
X81402714Y-55790475D01*
X81402714Y-55790475D02*
X81593190Y-56171428D01*
X81593190Y-56171428D02*
X81593190Y-56742856D01*
X81593190Y-56742856D02*
X81402714Y-57123809D01*
X81593190Y-59028570D02*
X77593190Y-59028570D01*
X81402714Y-59028570D02*
X81593190Y-59409523D01*
X81593190Y-59409523D02*
X81593190Y-60171428D01*
X81593190Y-60171428D02*
X81402714Y-60552380D01*
X81402714Y-60552380D02*
X81212238Y-60742856D01*
X81212238Y-60742856D02*
X80831285Y-60933332D01*
X80831285Y-60933332D02*
X79688428Y-60933332D01*
X79688428Y-60933332D02*
X79307476Y-60742856D01*
X79307476Y-60742856D02*
X79117000Y-60552380D01*
X79117000Y-60552380D02*
X78926523Y-60171428D01*
X78926523Y-60171428D02*
X78926523Y-59409523D01*
X78926523Y-59409523D02*
X79117000Y-59028570D01*
X78926523Y-64361904D02*
X81021761Y-64361904D01*
X81021761Y-64361904D02*
X81402714Y-64171428D01*
X81402714Y-64171428D02*
X81593190Y-63790476D01*
X81593190Y-63790476D02*
X81593190Y-63028571D01*
X81593190Y-63028571D02*
X81402714Y-62647618D01*
X79117000Y-64361904D02*
X78926523Y-63980952D01*
X78926523Y-63980952D02*
X78926523Y-63028571D01*
X78926523Y-63028571D02*
X79117000Y-62647618D01*
X79117000Y-62647618D02*
X79497952Y-62457142D01*
X79497952Y-62457142D02*
X79878904Y-62457142D01*
X79878904Y-62457142D02*
X80259857Y-62647618D01*
X80259857Y-62647618D02*
X80450333Y-63028571D01*
X80450333Y-63028571D02*
X80450333Y-63980952D01*
X80450333Y-63980952D02*
X80640809Y-64361904D01*
X79117000Y-67980952D02*
X78926523Y-67600000D01*
X78926523Y-67600000D02*
X78926523Y-66838095D01*
X78926523Y-66838095D02*
X79117000Y-66457143D01*
X79117000Y-66457143D02*
X79307476Y-66266666D01*
X79307476Y-66266666D02*
X79688428Y-66076190D01*
X79688428Y-66076190D02*
X80831285Y-66076190D01*
X80831285Y-66076190D02*
X81212238Y-66266666D01*
X81212238Y-66266666D02*
X81402714Y-66457143D01*
X81402714Y-66457143D02*
X81593190Y-66838095D01*
X81593190Y-66838095D02*
X81593190Y-67600000D01*
X81593190Y-67600000D02*
X81402714Y-67980952D01*
X79117000Y-71219047D02*
X78926523Y-70838095D01*
X78926523Y-70838095D02*
X78926523Y-70076190D01*
X78926523Y-70076190D02*
X79117000Y-69695237D01*
X79117000Y-69695237D02*
X79497952Y-69504761D01*
X79497952Y-69504761D02*
X81021761Y-69504761D01*
X81021761Y-69504761D02*
X81402714Y-69695237D01*
X81402714Y-69695237D02*
X81593190Y-70076190D01*
X81593190Y-70076190D02*
X81593190Y-70838095D01*
X81593190Y-70838095D02*
X81402714Y-71219047D01*
X81402714Y-71219047D02*
X81021761Y-71409523D01*
X81021761Y-71409523D02*
X80640809Y-71409523D01*
X80640809Y-71409523D02*
X80259857Y-69504761D01*
X76967857Y-93702285D02*
X77253571Y-93988000D01*
X77253571Y-93988000D02*
X76967857Y-94273714D01*
X76967857Y-94273714D02*
X76682143Y-93988000D01*
X76682143Y-93988000D02*
X76967857Y-93702285D01*
X76967857Y-93702285D02*
X76967857Y-94273714D01*
X79825000Y-93702285D02*
X80110714Y-93988000D01*
X80110714Y-93988000D02*
X79825000Y-94273714D01*
X79825000Y-94273714D02*
X79539286Y-93988000D01*
X79539286Y-93988000D02*
X79825000Y-93702285D01*
X79825000Y-93702285D02*
X79825000Y-94273714D01*
X82682143Y-93702285D02*
X82967857Y-93988000D01*
X82967857Y-93988000D02*
X82682143Y-94273714D01*
X82682143Y-94273714D02*
X82396429Y-93988000D01*
X82396429Y-93988000D02*
X82682143Y-93702285D01*
X82682143Y-93702285D02*
X82682143Y-94273714D01*
D14*
G36*
X57590989Y-119481531D02*
G01*
X57633728Y-119524270D01*
X57682889Y-119622592D01*
X57682889Y-120039513D01*
X57147175Y-120039513D01*
X57147175Y-119622592D01*
X57196335Y-119524272D01*
X57239077Y-119481529D01*
X57337397Y-119432370D01*
X57492666Y-119432370D01*
X57590989Y-119481531D01*
G37*
G36*
X58861461Y-121859669D02*
G01*
X56682889Y-121859669D01*
X56682889Y-121521655D01*
X56897175Y-121521655D01*
X56917018Y-121589235D01*
X56970248Y-121635359D01*
X57039964Y-121645383D01*
X57104033Y-121616124D01*
X57142112Y-121556872D01*
X57147175Y-121521655D01*
X57147175Y-121218084D01*
X58522175Y-121218084D01*
X58589755Y-121198241D01*
X58635879Y-121145011D01*
X58645903Y-121075295D01*
X58616644Y-121011226D01*
X58557392Y-120973147D01*
X58522175Y-120968084D01*
X57147175Y-120968084D01*
X57147175Y-120664513D01*
X57127332Y-120596933D01*
X57074102Y-120550809D01*
X57004386Y-120540785D01*
X56940317Y-120570044D01*
X56902238Y-120629296D01*
X56897175Y-120664513D01*
X56897175Y-121521655D01*
X56682889Y-121521655D01*
X56682889Y-120164513D01*
X56897175Y-120164513D01*
X56899745Y-120173268D01*
X56898447Y-120182302D01*
X56909513Y-120206534D01*
X56917018Y-120232093D01*
X56923914Y-120238068D01*
X56927706Y-120246371D01*
X56950118Y-120260774D01*
X56970248Y-120278217D01*
X56979280Y-120279515D01*
X56986958Y-120284450D01*
X57022175Y-120289513D01*
X58522175Y-120289513D01*
X58589755Y-120269670D01*
X58635879Y-120216440D01*
X58645903Y-120146724D01*
X58616644Y-120082655D01*
X58557392Y-120044576D01*
X58522175Y-120039513D01*
X57932889Y-120039513D01*
X57932889Y-119872452D01*
X58593858Y-119409774D01*
X58637842Y-119354763D01*
X58645103Y-119284705D01*
X58613336Y-119221843D01*
X58552625Y-119186135D01*
X58482247Y-119188918D01*
X58450492Y-119204966D01*
X57930300Y-119569099D01*
X57919693Y-119537183D01*
X57848265Y-119394326D01*
X57846670Y-119392611D01*
X57846172Y-119390321D01*
X57824849Y-119361839D01*
X57753420Y-119290410D01*
X57751365Y-119289288D01*
X57750168Y-119287272D01*
X57720934Y-119266995D01*
X57578076Y-119195566D01*
X57566924Y-119193559D01*
X57557392Y-119187433D01*
X57522175Y-119182370D01*
X57307889Y-119182370D01*
X57297019Y-119185561D01*
X57285751Y-119184345D01*
X57251988Y-119195566D01*
X57109131Y-119266994D01*
X57107415Y-119268589D01*
X57105125Y-119269088D01*
X57076643Y-119290410D01*
X57005215Y-119361839D01*
X57004092Y-119363893D01*
X57002079Y-119365090D01*
X56981801Y-119394325D01*
X56910372Y-119537182D01*
X56908365Y-119548332D01*
X56902238Y-119557867D01*
X56897175Y-119593084D01*
X56897175Y-120164513D01*
X56682889Y-120164513D01*
X56682889Y-118682302D01*
X56898447Y-118682302D01*
X56927706Y-118746371D01*
X56986958Y-118784450D01*
X57022175Y-118789513D01*
X58522175Y-118789513D01*
X58589755Y-118769670D01*
X58635879Y-118716440D01*
X58645903Y-118646724D01*
X58616644Y-118582655D01*
X58557392Y-118544576D01*
X58522175Y-118539513D01*
X57022175Y-118539513D01*
X56954595Y-118559356D01*
X56908471Y-118612586D01*
X56898447Y-118682302D01*
X56682889Y-118682302D01*
X56682889Y-117521655D01*
X56897175Y-117521655D01*
X56897834Y-117523901D01*
X56897256Y-117526173D01*
X56903590Y-117561184D01*
X56975019Y-117775469D01*
X56981484Y-117784772D01*
X56983894Y-117795847D01*
X57005216Y-117824329D01*
X57148072Y-117967186D01*
X57150127Y-117968308D01*
X57151324Y-117970323D01*
X57180559Y-117990601D01*
X57323416Y-118062030D01*
X57327727Y-118062805D01*
X57349001Y-118071495D01*
X57634715Y-118142923D01*
X57638112Y-118142784D01*
X57665032Y-118146655D01*
X57879318Y-118146655D01*
X57882581Y-118145696D01*
X57909635Y-118142923D01*
X58195349Y-118071495D01*
X58199130Y-118069276D01*
X58220934Y-118062030D01*
X58363791Y-117990601D01*
X58365504Y-117989007D01*
X58367795Y-117988509D01*
X58396277Y-117967187D01*
X58539135Y-117824330D01*
X58544565Y-117814385D01*
X58553393Y-117807278D01*
X58569333Y-117775469D01*
X58640761Y-117561183D01*
X58640845Y-117558842D01*
X58642112Y-117556872D01*
X58647175Y-117521655D01*
X58647175Y-117378798D01*
X58646515Y-117376551D01*
X58647094Y-117374281D01*
X58640761Y-117339270D01*
X58569333Y-117124984D01*
X58562866Y-117115678D01*
X58560457Y-117104605D01*
X58539135Y-117076123D01*
X58467706Y-117004695D01*
X58440559Y-116989872D01*
X58414535Y-116973147D01*
X58408284Y-116972248D01*
X58405888Y-116970940D01*
X58401411Y-116971260D01*
X58379318Y-116968084D01*
X57879318Y-116968084D01*
X57870562Y-116970654D01*
X57861529Y-116969356D01*
X57837296Y-116980422D01*
X57811738Y-116987927D01*
X57805762Y-116994823D01*
X57797460Y-116998615D01*
X57783056Y-117021027D01*
X57765614Y-117041157D01*
X57764315Y-117050189D01*
X57759381Y-117057867D01*
X57754318Y-117093084D01*
X57754318Y-117378798D01*
X57774161Y-117446378D01*
X57827391Y-117492502D01*
X57897107Y-117502526D01*
X57961176Y-117473267D01*
X57999255Y-117414015D01*
X58004318Y-117378798D01*
X58004318Y-117218084D01*
X58327542Y-117218084D01*
X58341492Y-117232034D01*
X58397174Y-117399083D01*
X58397174Y-117501369D01*
X58341492Y-117668418D01*
X58233843Y-117776067D01*
X58121404Y-117832286D01*
X57863929Y-117896655D01*
X57680421Y-117896655D01*
X57422945Y-117832286D01*
X57310506Y-117776067D01*
X57202857Y-117668418D01*
X57147175Y-117501370D01*
X57147175Y-117336877D01*
X57205407Y-117220414D01*
X57217882Y-117151094D01*
X57190899Y-117086035D01*
X57133026Y-117045891D01*
X57062636Y-117043408D01*
X57002079Y-117079376D01*
X56981801Y-117108610D01*
X56910372Y-117251468D01*
X56908365Y-117262618D01*
X56902238Y-117272153D01*
X56897175Y-117307370D01*
X56897175Y-117521655D01*
X56682889Y-117521655D01*
X56682889Y-116753798D01*
X58861461Y-116753798D01*
X58861461Y-121859669D01*
G37*
G36*
X68010547Y-138526750D02*
G01*
X67750735Y-138786563D01*
X67490923Y-138266938D01*
X68010547Y-138526750D01*
G37*
G36*
X71125532Y-136674458D02*
G01*
X67921257Y-139878732D01*
X66380774Y-138338249D01*
X66709454Y-138009569D01*
X67088391Y-138009569D01*
X67090408Y-138015639D01*
X67090311Y-138018399D01*
X67092614Y-138022276D01*
X67099612Y-138043333D01*
X67806718Y-139457545D01*
X67854689Y-139509117D01*
X67922927Y-139526566D01*
X67989766Y-139504354D01*
X68033986Y-139449531D01*
X68041546Y-139379505D01*
X68030325Y-139345742D01*
X67868586Y-139022264D01*
X68246250Y-138644601D01*
X68569727Y-138806340D01*
X68639047Y-138818815D01*
X68704107Y-138791832D01*
X68744250Y-138733959D01*
X68746733Y-138663569D01*
X68710766Y-138603012D01*
X68681531Y-138582734D01*
X67267317Y-137875628D01*
X67236926Y-137870158D01*
X67207010Y-137862509D01*
X67202586Y-137863978D01*
X67197997Y-137863153D01*
X67169469Y-137874984D01*
X67140171Y-137884721D01*
X67137244Y-137888349D01*
X67132937Y-137890136D01*
X67115338Y-137915507D01*
X67095951Y-137939543D01*
X67095450Y-137944179D01*
X67092794Y-137948009D01*
X67091705Y-137978868D01*
X67088391Y-138009569D01*
X66709454Y-138009569D01*
X67337684Y-137381339D01*
X67995553Y-137381339D01*
X67996212Y-137383585D01*
X67995634Y-137385856D01*
X68001967Y-137420867D01*
X68052474Y-137572390D01*
X68054975Y-137575989D01*
X68063873Y-137597174D01*
X68215396Y-137849712D01*
X68217898Y-137852018D01*
X68234195Y-137873788D01*
X68385718Y-138025311D01*
X68388700Y-138026939D01*
X68409794Y-138044110D01*
X68662332Y-138195632D01*
X68666573Y-138196736D01*
X68687115Y-138207031D01*
X68838638Y-138257539D01*
X68840977Y-138257623D01*
X68842950Y-138258891D01*
X68878167Y-138263954D01*
X69080197Y-138263954D01*
X69091069Y-138260761D01*
X69102336Y-138261978D01*
X69136099Y-138250757D01*
X69338130Y-138149741D01*
X69339844Y-138148146D01*
X69342134Y-138147648D01*
X69370616Y-138126326D01*
X69471632Y-138025311D01*
X69472754Y-138023254D01*
X69474768Y-138022059D01*
X69495046Y-137992825D01*
X69596061Y-137790795D01*
X69598067Y-137779644D01*
X69604195Y-137770110D01*
X69609258Y-137734893D01*
X69609258Y-137633877D01*
X69589415Y-137566297D01*
X69536185Y-137520173D01*
X69466469Y-137510149D01*
X69402400Y-137539408D01*
X69364321Y-137598660D01*
X69359258Y-137633877D01*
X69359258Y-137705384D01*
X69280511Y-137862877D01*
X69208183Y-137935206D01*
X69050689Y-138013954D01*
X68898450Y-138013954D01*
X68779192Y-137974200D01*
X68551610Y-137837651D01*
X68421852Y-137707893D01*
X68285306Y-137480316D01*
X68245553Y-137361053D01*
X68245553Y-137208817D01*
X68324300Y-137051322D01*
X68396627Y-136978995D01*
X68554123Y-136900248D01*
X68625629Y-136900248D01*
X68693209Y-136880405D01*
X68739333Y-136827175D01*
X68749357Y-136757459D01*
X68720098Y-136693390D01*
X68660846Y-136655311D01*
X68625629Y-136650248D01*
X68524614Y-136650248D01*
X68513741Y-136653440D01*
X68502476Y-136652224D01*
X68468712Y-136663445D01*
X68266682Y-136764459D01*
X68264967Y-136766053D01*
X68262677Y-136766552D01*
X68234195Y-136787874D01*
X68133180Y-136888890D01*
X68132058Y-136890944D01*
X68130042Y-136892142D01*
X68109764Y-136921377D01*
X68008749Y-137123408D01*
X68006742Y-137134559D01*
X68000616Y-137144092D01*
X67995553Y-137179309D01*
X67995553Y-137381339D01*
X67337684Y-137381339D01*
X68398344Y-136320679D01*
X69056213Y-136320679D01*
X69056872Y-136322925D01*
X69056294Y-136325196D01*
X69062627Y-136360207D01*
X69113134Y-136511730D01*
X69115635Y-136515329D01*
X69124533Y-136536514D01*
X69276056Y-136789052D01*
X69278558Y-136791358D01*
X69294855Y-136813128D01*
X69446378Y-136964651D01*
X69449360Y-136966279D01*
X69470454Y-136983450D01*
X69722992Y-137134972D01*
X69727233Y-137136076D01*
X69747775Y-137146371D01*
X69899298Y-137196879D01*
X69901637Y-137196963D01*
X69903610Y-137198231D01*
X69938827Y-137203294D01*
X70140858Y-137203294D01*
X70151730Y-137200101D01*
X70162997Y-137201318D01*
X70196760Y-137190097D01*
X70398790Y-137089081D01*
X70400504Y-137087486D01*
X70402794Y-137086988D01*
X70431276Y-137065666D01*
X70532292Y-136964651D01*
X70533414Y-136962596D01*
X70535428Y-136961400D01*
X70555706Y-136932165D01*
X70656722Y-136730135D01*
X70658728Y-136718984D01*
X70664856Y-136709450D01*
X70669919Y-136674233D01*
X70669919Y-136573217D01*
X70650076Y-136505637D01*
X70596846Y-136459513D01*
X70527130Y-136449489D01*
X70463061Y-136478748D01*
X70424982Y-136538000D01*
X70419919Y-136573217D01*
X70419919Y-136644724D01*
X70341172Y-136802217D01*
X70268843Y-136874546D01*
X70111350Y-136953294D01*
X69959110Y-136953294D01*
X69839852Y-136913540D01*
X69612270Y-136776991D01*
X69482512Y-136647233D01*
X69345966Y-136419656D01*
X69306213Y-136300393D01*
X69306213Y-136148157D01*
X69384960Y-135990662D01*
X69457287Y-135918335D01*
X69614783Y-135839588D01*
X69686289Y-135839588D01*
X69753869Y-135819745D01*
X69799993Y-135766515D01*
X69810017Y-135696799D01*
X69780758Y-135632730D01*
X69721506Y-135594651D01*
X69686289Y-135589588D01*
X69585274Y-135589588D01*
X69574401Y-135592780D01*
X69563136Y-135591564D01*
X69529372Y-135602785D01*
X69327342Y-135703799D01*
X69325627Y-135705393D01*
X69323337Y-135705892D01*
X69294855Y-135727214D01*
X69193840Y-135828230D01*
X69192718Y-135830284D01*
X69190702Y-135831482D01*
X69170424Y-135860717D01*
X69069409Y-136062748D01*
X69067402Y-136073899D01*
X69061276Y-136083432D01*
X69056213Y-136118649D01*
X69056213Y-136320679D01*
X68398344Y-136320679D01*
X69585048Y-135133975D01*
X71125532Y-136674458D01*
G37*
D12*
G36*
X22126958Y-132561683D02*
G01*
X22239783Y-132674508D01*
X22290485Y-132775911D01*
X22290485Y-133038829D01*
X22239783Y-133140232D01*
X22126958Y-133253057D01*
X21843040Y-133324037D01*
X21237929Y-133324037D01*
X20954011Y-133253057D01*
X20841186Y-133140232D01*
X20790485Y-133038830D01*
X20790485Y-132775911D01*
X20841185Y-132674509D01*
X20954011Y-132561683D01*
X21237929Y-132490704D01*
X21843040Y-132490704D01*
X22126958Y-132561683D01*
G37*
G36*
X21249537Y-126922357D02*
G01*
X21287402Y-126960222D01*
X21338104Y-127061625D01*
X21338104Y-127514513D01*
X20790485Y-127514513D01*
X20790485Y-127061625D01*
X20841186Y-126960222D01*
X20879051Y-126922357D01*
X20980455Y-126871656D01*
X21148134Y-126871656D01*
X21249537Y-126922357D01*
G37*
G36*
X23076199Y-134109751D02*
G01*
X20004771Y-134109751D01*
X20004771Y-133097847D01*
X20290485Y-133097847D01*
X20292237Y-133106657D01*
X20291114Y-133115569D01*
X20301697Y-133154215D01*
X20309515Y-133193518D01*
X20314505Y-133200987D01*
X20316878Y-133209650D01*
X20412116Y-133400127D01*
X20436683Y-133431781D01*
X20458946Y-133465100D01*
X20649422Y-133655576D01*
X20664877Y-133665903D01*
X20677366Y-133679669D01*
X20705059Y-133692751D01*
X20730528Y-133709769D01*
X20748758Y-133713395D01*
X20765565Y-133721335D01*
X21146517Y-133816573D01*
X21177111Y-133818061D01*
X21207151Y-133824037D01*
X21873818Y-133824037D01*
X21903857Y-133818061D01*
X21934452Y-133816573D01*
X22315404Y-133721335D01*
X22332212Y-133713394D01*
X22350440Y-133709769D01*
X22375905Y-133692753D01*
X22403603Y-133679669D01*
X22416092Y-133665901D01*
X22431546Y-133655576D01*
X22622023Y-133465100D01*
X22644283Y-133431784D01*
X22668854Y-133400126D01*
X22764092Y-133209650D01*
X22766464Y-133200987D01*
X22771455Y-133193518D01*
X22779272Y-133154215D01*
X22789856Y-133115569D01*
X22788732Y-133106657D01*
X22790485Y-133097847D01*
X22790485Y-132716894D01*
X22788732Y-132708083D01*
X22789856Y-132699172D01*
X22779272Y-132660525D01*
X22771455Y-132621223D01*
X22766464Y-132613753D01*
X22764092Y-132605091D01*
X22668854Y-132414615D01*
X22644283Y-132382956D01*
X22622023Y-132349641D01*
X22431546Y-132159165D01*
X22416092Y-132148839D01*
X22403603Y-132135072D01*
X22375905Y-132121987D01*
X22350440Y-132104972D01*
X22332212Y-132101346D01*
X22315404Y-132093406D01*
X21934452Y-131998168D01*
X21903857Y-131996679D01*
X21873818Y-131990704D01*
X21207151Y-131990704D01*
X21177111Y-131996679D01*
X21146517Y-131998168D01*
X20765565Y-132093406D01*
X20748758Y-132101345D01*
X20730528Y-132104972D01*
X20705059Y-132121989D01*
X20677366Y-132135072D01*
X20664877Y-132148837D01*
X20649422Y-132159165D01*
X20458946Y-132349641D01*
X20436683Y-132382959D01*
X20412116Y-132414614D01*
X20316878Y-132605091D01*
X20314505Y-132613753D01*
X20309515Y-132621223D01*
X20301697Y-132660525D01*
X20291114Y-132699172D01*
X20292237Y-132708083D01*
X20290485Y-132716894D01*
X20290485Y-133097847D01*
X20004771Y-133097847D01*
X20004771Y-131383561D01*
X20290485Y-131383561D01*
X20309515Y-131479232D01*
X20363708Y-131560338D01*
X20444814Y-131614531D01*
X20540485Y-131633561D01*
X22159532Y-131633561D01*
X22168342Y-131631808D01*
X22177254Y-131632932D01*
X22215900Y-131622348D01*
X22255203Y-131614531D01*
X22262672Y-131609540D01*
X22271335Y-131607168D01*
X22461812Y-131511930D01*
X22493463Y-131487364D01*
X22526784Y-131465101D01*
X22622023Y-131369862D01*
X22644286Y-131336542D01*
X22668854Y-131304888D01*
X22764092Y-131114412D01*
X22766464Y-131105749D01*
X22771455Y-131098280D01*
X22779272Y-131058977D01*
X22789856Y-131020331D01*
X22788732Y-131011419D01*
X22790485Y-131002609D01*
X22790485Y-130621656D01*
X22788732Y-130612845D01*
X22789856Y-130603934D01*
X22779272Y-130565287D01*
X22771455Y-130525985D01*
X22766464Y-130518515D01*
X22764092Y-130509853D01*
X22668854Y-130319377D01*
X22644286Y-130287722D01*
X22622023Y-130254403D01*
X22526784Y-130159164D01*
X22493463Y-130136900D01*
X22461812Y-130112335D01*
X22271335Y-130017097D01*
X22262672Y-130014724D01*
X22255203Y-130009734D01*
X22215900Y-130001916D01*
X22177254Y-129991333D01*
X22168342Y-129992456D01*
X22159532Y-129990704D01*
X20540485Y-129990704D01*
X20444814Y-130009734D01*
X20363708Y-130063927D01*
X20309515Y-130145033D01*
X20290485Y-130240704D01*
X20309515Y-130336375D01*
X20363708Y-130417481D01*
X20444814Y-130471674D01*
X20540485Y-130490704D01*
X22100515Y-130490704D01*
X22201918Y-130541405D01*
X22239783Y-130579270D01*
X22290485Y-130680673D01*
X22290485Y-130943591D01*
X22239783Y-131044994D01*
X22201918Y-131082859D01*
X22100515Y-131133561D01*
X20540485Y-131133561D01*
X20444814Y-131152591D01*
X20363708Y-131206784D01*
X20309515Y-131287890D01*
X20290485Y-131383561D01*
X20004771Y-131383561D01*
X20004771Y-129574037D01*
X20290485Y-129574037D01*
X20309515Y-129669708D01*
X20363708Y-129750814D01*
X20444814Y-129805007D01*
X20540485Y-129824037D01*
X20636156Y-129805007D01*
X20717262Y-129750814D01*
X20771455Y-129669708D01*
X20790485Y-129574037D01*
X20790485Y-129252609D01*
X22540485Y-129252609D01*
X22636156Y-129233579D01*
X22717262Y-129179386D01*
X22771455Y-129098280D01*
X22790485Y-129002609D01*
X22771455Y-128906938D01*
X22717262Y-128825832D01*
X22636156Y-128771639D01*
X22540485Y-128752609D01*
X20790485Y-128752609D01*
X20790485Y-128431180D01*
X20771455Y-128335509D01*
X20717262Y-128254403D01*
X20636156Y-128200210D01*
X20540485Y-128181180D01*
X20444814Y-128200210D01*
X20363708Y-128254403D01*
X20309515Y-128335509D01*
X20290485Y-128431180D01*
X20290485Y-129574037D01*
X20004771Y-129574037D01*
X20004771Y-127764513D01*
X20290485Y-127764513D01*
X20309515Y-127860184D01*
X20363708Y-127941290D01*
X20444814Y-127995483D01*
X20540485Y-128014513D01*
X21588104Y-128014513D01*
X22540485Y-128014513D01*
X22636156Y-127995483D01*
X22717262Y-127941290D01*
X22771455Y-127860184D01*
X22790485Y-127764513D01*
X22771455Y-127668842D01*
X22717262Y-127587736D01*
X22636156Y-127533543D01*
X22540485Y-127514513D01*
X21838104Y-127514513D01*
X21838104Y-127002608D01*
X21836351Y-126993797D01*
X21837475Y-126984886D01*
X21826891Y-126946239D01*
X21819074Y-126906937D01*
X21814083Y-126899467D01*
X21811711Y-126890805D01*
X21716473Y-126700329D01*
X21691905Y-126668674D01*
X21669642Y-126635355D01*
X21574403Y-126540116D01*
X21541082Y-126517852D01*
X21509431Y-126493287D01*
X21318954Y-126398049D01*
X21310291Y-126395676D01*
X21302822Y-126390686D01*
X21263519Y-126382868D01*
X21224873Y-126372285D01*
X21215961Y-126373408D01*
X21207151Y-126371656D01*
X20921437Y-126371656D01*
X20912626Y-126373408D01*
X20903715Y-126372285D01*
X20865068Y-126382868D01*
X20825766Y-126390686D01*
X20818296Y-126395676D01*
X20809634Y-126398049D01*
X20619158Y-126493287D01*
X20587506Y-126517851D01*
X20554184Y-126540117D01*
X20458946Y-126635355D01*
X20436683Y-126668673D01*
X20412116Y-126700328D01*
X20316878Y-126890805D01*
X20314505Y-126899467D01*
X20309515Y-126906937D01*
X20301697Y-126946239D01*
X20291114Y-126984886D01*
X20292237Y-126993797D01*
X20290485Y-127002608D01*
X20290485Y-127764513D01*
X20004771Y-127764513D01*
X20004771Y-125764513D01*
X20290485Y-125764513D01*
X20309515Y-125860184D01*
X20363708Y-125941290D01*
X20444814Y-125995483D01*
X20540485Y-126014513D01*
X22159532Y-126014513D01*
X22168342Y-126012760D01*
X22177254Y-126013884D01*
X22215900Y-126003300D01*
X22255203Y-125995483D01*
X22262672Y-125990492D01*
X22271335Y-125988120D01*
X22461812Y-125892882D01*
X22493463Y-125868316D01*
X22526784Y-125846053D01*
X22622023Y-125750814D01*
X22644286Y-125717494D01*
X22668854Y-125685840D01*
X22764092Y-125495364D01*
X22766464Y-125486701D01*
X22771455Y-125479232D01*
X22779272Y-125439929D01*
X22789856Y-125401283D01*
X22788732Y-125392371D01*
X22790485Y-125383561D01*
X22790485Y-125002608D01*
X22788732Y-124993797D01*
X22789856Y-124984886D01*
X22779272Y-124946239D01*
X22771455Y-124906937D01*
X22766464Y-124899467D01*
X22764092Y-124890805D01*
X22668854Y-124700329D01*
X22644286Y-124668674D01*
X22622023Y-124635355D01*
X22526784Y-124540116D01*
X22493463Y-124517852D01*
X22461812Y-124493287D01*
X22271335Y-124398049D01*
X22262672Y-124395676D01*
X22255203Y-124390686D01*
X22215900Y-124382868D01*
X22177254Y-124372285D01*
X22168342Y-124373408D01*
X22159532Y-124371656D01*
X20540485Y-124371656D01*
X20444814Y-124390686D01*
X20363708Y-124444879D01*
X20309515Y-124525985D01*
X20290485Y-124621656D01*
X20309515Y-124717327D01*
X20363708Y-124798433D01*
X20444814Y-124852626D01*
X20540485Y-124871656D01*
X22100515Y-124871656D01*
X22201918Y-124922357D01*
X22239783Y-124960222D01*
X22290485Y-125061625D01*
X22290485Y-125324543D01*
X22239783Y-125425946D01*
X22201918Y-125463811D01*
X22100515Y-125514513D01*
X20540485Y-125514513D01*
X20444814Y-125533543D01*
X20363708Y-125587736D01*
X20309515Y-125668842D01*
X20290485Y-125764513D01*
X20004771Y-125764513D01*
X20004771Y-123954989D01*
X20290485Y-123954989D01*
X20309515Y-124050660D01*
X20363708Y-124131766D01*
X20444814Y-124185959D01*
X20540485Y-124204989D01*
X20636156Y-124185959D01*
X20717262Y-124131766D01*
X20771455Y-124050660D01*
X20790485Y-123954989D01*
X20790485Y-123633561D01*
X22540485Y-123633561D01*
X22636156Y-123614531D01*
X22717262Y-123560338D01*
X22771455Y-123479232D01*
X22790485Y-123383561D01*
X22771455Y-123287890D01*
X22717262Y-123206784D01*
X22636156Y-123152591D01*
X22540485Y-123133561D01*
X20790485Y-123133561D01*
X20790485Y-122812132D01*
X20771455Y-122716461D01*
X20717262Y-122635355D01*
X20636156Y-122581162D01*
X20540485Y-122562132D01*
X20444814Y-122581162D01*
X20363708Y-122635355D01*
X20309515Y-122716461D01*
X20290485Y-122812132D01*
X20290485Y-123954989D01*
X20004771Y-123954989D01*
X20004771Y-121859751D01*
X20290485Y-121859751D01*
X20292237Y-121868561D01*
X20291114Y-121877473D01*
X20301697Y-121916119D01*
X20309515Y-121955422D01*
X20314505Y-121962891D01*
X20316878Y-121971554D01*
X20412116Y-122162031D01*
X20436683Y-122193685D01*
X20458946Y-122227004D01*
X20554184Y-122322242D01*
X20587506Y-122344507D01*
X20619158Y-122369072D01*
X20809634Y-122464310D01*
X20818296Y-122466682D01*
X20825766Y-122471673D01*
X20865068Y-122479490D01*
X20903715Y-122490074D01*
X20912626Y-122488950D01*
X20921437Y-122490703D01*
X21111913Y-122490703D01*
X21120723Y-122488950D01*
X21129635Y-122490074D01*
X21168281Y-122479490D01*
X21207584Y-122471673D01*
X21215053Y-122466682D01*
X21223716Y-122464310D01*
X21414193Y-122369072D01*
X21445847Y-122344504D01*
X21479166Y-122322242D01*
X21574404Y-122227004D01*
X21596669Y-122193680D01*
X21621233Y-122162031D01*
X21716472Y-121971555D01*
X21723703Y-121945147D01*
X21735402Y-121920385D01*
X21823984Y-121566053D01*
X21888804Y-121436413D01*
X21926670Y-121398547D01*
X22028074Y-121347846D01*
X22100515Y-121347846D01*
X22201918Y-121398547D01*
X22239783Y-121436412D01*
X22290485Y-121537815D01*
X22290485Y-121914419D01*
X22208076Y-122161646D01*
X22195876Y-122258425D01*
X22221640Y-122352507D01*
X22281446Y-122429567D01*
X22366190Y-122477874D01*
X22462969Y-122490074D01*
X22557051Y-122464310D01*
X22634111Y-122404504D01*
X22682418Y-122319760D01*
X22777656Y-122034046D01*
X22782667Y-121994289D01*
X22790485Y-121954989D01*
X22790485Y-121478798D01*
X22788732Y-121469987D01*
X22789856Y-121461076D01*
X22779272Y-121422429D01*
X22771455Y-121383127D01*
X22766464Y-121375657D01*
X22764092Y-121366995D01*
X22668854Y-121176519D01*
X22644286Y-121144864D01*
X22622023Y-121111545D01*
X22526784Y-121016306D01*
X22493463Y-120994042D01*
X22461812Y-120969477D01*
X22271335Y-120874239D01*
X22262672Y-120871866D01*
X22255203Y-120866876D01*
X22215900Y-120859058D01*
X22177254Y-120848475D01*
X22168342Y-120849598D01*
X22159532Y-120847846D01*
X21969056Y-120847846D01*
X21960245Y-120849598D01*
X21951334Y-120848475D01*
X21912687Y-120859058D01*
X21873385Y-120866876D01*
X21865915Y-120871866D01*
X21857253Y-120874239D01*
X21666777Y-120969477D01*
X21635125Y-120994041D01*
X21601803Y-121016307D01*
X21506565Y-121111545D01*
X21484302Y-121144863D01*
X21459735Y-121176518D01*
X21364497Y-121366995D01*
X21357264Y-121393405D01*
X21345568Y-121418165D01*
X21256985Y-121772496D01*
X21192165Y-121902134D01*
X21154298Y-121940001D01*
X21052896Y-121990703D01*
X20980455Y-121990703D01*
X20879051Y-121940001D01*
X20841185Y-121902135D01*
X20790485Y-121800734D01*
X20790485Y-121424130D01*
X20872894Y-121176903D01*
X20885094Y-121080124D01*
X20859330Y-120986042D01*
X20799524Y-120908982D01*
X20714780Y-120860675D01*
X20618001Y-120848475D01*
X20523919Y-120874239D01*
X20446859Y-120934045D01*
X20398552Y-121018789D01*
X20303314Y-121304503D01*
X20298302Y-121344259D01*
X20290485Y-121383560D01*
X20290485Y-121859751D01*
X20004771Y-121859751D01*
X20004771Y-120562132D01*
X23076199Y-120562132D01*
X23076199Y-134109751D01*
G37*
D14*
G36*
X36999742Y-138345589D02*
G01*
X37042481Y-138388328D01*
X37091642Y-138486650D01*
X37091642Y-138903571D01*
X36555928Y-138903571D01*
X36555928Y-138486650D01*
X36605088Y-138388330D01*
X36647830Y-138345587D01*
X36746150Y-138296428D01*
X36901419Y-138296428D01*
X36999742Y-138345589D01*
G37*
G36*
X37530157Y-135289367D02*
G01*
X37642596Y-135345586D01*
X37750245Y-135453235D01*
X37805928Y-135620284D01*
X37805928Y-135832142D01*
X36555928Y-135832142D01*
X36555928Y-135620283D01*
X36611610Y-135453235D01*
X36719259Y-135345586D01*
X36831698Y-135289367D01*
X37089174Y-135224999D01*
X37272682Y-135224999D01*
X37530157Y-135289367D01*
G37*
G36*
X38270214Y-139367857D02*
G01*
X36091642Y-139367857D01*
X36091642Y-139028571D01*
X36305928Y-139028571D01*
X36308498Y-139037326D01*
X36307200Y-139046360D01*
X36318266Y-139070592D01*
X36325771Y-139096151D01*
X36332667Y-139102126D01*
X36336459Y-139110429D01*
X36358871Y-139124832D01*
X36379001Y-139142275D01*
X36388033Y-139143573D01*
X36395711Y-139148508D01*
X36430928Y-139153571D01*
X37930928Y-139153571D01*
X37998508Y-139133728D01*
X38044632Y-139080498D01*
X38054656Y-139010782D01*
X38025397Y-138946713D01*
X37966145Y-138908634D01*
X37930928Y-138903571D01*
X37341642Y-138903571D01*
X37341642Y-138736510D01*
X38002611Y-138273832D01*
X38046595Y-138218821D01*
X38053856Y-138148763D01*
X38022089Y-138085901D01*
X37961378Y-138050193D01*
X37891000Y-138052976D01*
X37859245Y-138069024D01*
X37339053Y-138433157D01*
X37328446Y-138401241D01*
X37257018Y-138258384D01*
X37255423Y-138256669D01*
X37254925Y-138254379D01*
X37233602Y-138225897D01*
X37162173Y-138154468D01*
X37160118Y-138153346D01*
X37158921Y-138151330D01*
X37129687Y-138131053D01*
X36986829Y-138059624D01*
X36975677Y-138057617D01*
X36966145Y-138051491D01*
X36930928Y-138046428D01*
X36716642Y-138046428D01*
X36705772Y-138049619D01*
X36694504Y-138048403D01*
X36660741Y-138059624D01*
X36517884Y-138131052D01*
X36516168Y-138132647D01*
X36513878Y-138133146D01*
X36485396Y-138154468D01*
X36413968Y-138225897D01*
X36412845Y-138227951D01*
X36410832Y-138229148D01*
X36390554Y-138258383D01*
X36319125Y-138401240D01*
X36317118Y-138412390D01*
X36310991Y-138421925D01*
X36305928Y-138457142D01*
X36305928Y-139028571D01*
X36091642Y-139028571D01*
X36091642Y-137539899D01*
X36306442Y-137539899D01*
X36307678Y-137543029D01*
X36307200Y-137546360D01*
X36320533Y-137575556D01*
X36332328Y-137605402D01*
X36335060Y-137607365D01*
X36336459Y-137610429D01*
X36363468Y-137627787D01*
X36389519Y-137646513D01*
X36392879Y-137646688D01*
X36395711Y-137648508D01*
X36430928Y-137653571D01*
X37930928Y-137653571D01*
X37998508Y-137633728D01*
X38044632Y-137580498D01*
X38054656Y-137510782D01*
X38025397Y-137446713D01*
X37966145Y-137408634D01*
X37930928Y-137403571D01*
X36901623Y-137403571D01*
X37992946Y-136779958D01*
X37995278Y-136777533D01*
X37998508Y-136776585D01*
X38019519Y-136752336D01*
X38041777Y-136729201D01*
X38042428Y-136725897D01*
X38044632Y-136723355D01*
X38049198Y-136691593D01*
X38055414Y-136660100D01*
X38054177Y-136656969D01*
X38054656Y-136653639D01*
X38041324Y-136624446D01*
X38029528Y-136594596D01*
X38026795Y-136592631D01*
X38025397Y-136589570D01*
X37998400Y-136572220D01*
X37972337Y-136553485D01*
X37968975Y-136553309D01*
X37966145Y-136551491D01*
X37930928Y-136546428D01*
X36430928Y-136546428D01*
X36363348Y-136566271D01*
X36317224Y-136619501D01*
X36307200Y-136689217D01*
X36336459Y-136753286D01*
X36395711Y-136791365D01*
X36430928Y-136796428D01*
X37460232Y-136796428D01*
X36368911Y-137420041D01*
X36366578Y-137422465D01*
X36363348Y-137423414D01*
X36342327Y-137447673D01*
X36320080Y-137470798D01*
X36319428Y-137474100D01*
X36317224Y-137476644D01*
X36312656Y-137508413D01*
X36306442Y-137539899D01*
X36091642Y-137539899D01*
X36091642Y-135957142D01*
X36305928Y-135957142D01*
X36308498Y-135965897D01*
X36307200Y-135974931D01*
X36318266Y-135999163D01*
X36325771Y-136024722D01*
X36332667Y-136030697D01*
X36336459Y-136039000D01*
X36358871Y-136053403D01*
X36379001Y-136070846D01*
X36388033Y-136072144D01*
X36395711Y-136077079D01*
X36430928Y-136082142D01*
X37930928Y-136082142D01*
X37939683Y-136079571D01*
X37948717Y-136080870D01*
X37972949Y-136069803D01*
X37998508Y-136062299D01*
X38004483Y-136055402D01*
X38012786Y-136051611D01*
X38027189Y-136029198D01*
X38044632Y-136009069D01*
X38045930Y-136000036D01*
X38050865Y-135992359D01*
X38055928Y-135957142D01*
X38055928Y-135599999D01*
X38055268Y-135597752D01*
X38055847Y-135595482D01*
X38049514Y-135560471D01*
X37978086Y-135346185D01*
X37971618Y-135336879D01*
X37969210Y-135325807D01*
X37947888Y-135297324D01*
X37805030Y-135154467D01*
X37802975Y-135153344D01*
X37801779Y-135151331D01*
X37772544Y-135131053D01*
X37629687Y-135059624D01*
X37625375Y-135058848D01*
X37604102Y-135050159D01*
X37318388Y-134978731D01*
X37314990Y-134978869D01*
X37288071Y-134974999D01*
X37073785Y-134974999D01*
X37070521Y-134975957D01*
X37043468Y-134978731D01*
X36757754Y-135050159D01*
X36753972Y-135052377D01*
X36732169Y-135059624D01*
X36589312Y-135131053D01*
X36587597Y-135132647D01*
X36585308Y-135133146D01*
X36556825Y-135154468D01*
X36413969Y-135297325D01*
X36408539Y-135307268D01*
X36399711Y-135314376D01*
X36383772Y-135346185D01*
X36312343Y-135560470D01*
X36312258Y-135562809D01*
X36310991Y-135564782D01*
X36305928Y-135599999D01*
X36305928Y-135957142D01*
X36091642Y-135957142D01*
X36091642Y-134760713D01*
X38270214Y-134760713D01*
X38270214Y-139367857D01*
G37*
D12*
X55661928Y-49765180D02*
X56804785Y-49765180D01*
X56233356Y-51765180D02*
X56233356Y-49765180D01*
X57376214Y-51193751D02*
X58328595Y-51193751D01*
X57185738Y-51765180D02*
X57852404Y-49765180D01*
X57852404Y-49765180D02*
X58519071Y-51765180D01*
X59185738Y-51765180D02*
X59185738Y-49765180D01*
X59185738Y-49765180D02*
X59947643Y-49765180D01*
X59947643Y-49765180D02*
X60138119Y-49860418D01*
X60138119Y-49860418D02*
X60233357Y-49955656D01*
X60233357Y-49955656D02*
X60328595Y-50146132D01*
X60328595Y-50146132D02*
X60328595Y-50431846D01*
X60328595Y-50431846D02*
X60233357Y-50622322D01*
X60233357Y-50622322D02*
X60138119Y-50717561D01*
X60138119Y-50717561D02*
X59947643Y-50812799D01*
X59947643Y-50812799D02*
X59185738Y-50812799D01*
X39881247Y-42534703D02*
X39786009Y-42629942D01*
X39786009Y-42629942D02*
X39500295Y-42725180D01*
X39500295Y-42725180D02*
X39309819Y-42725180D01*
X39309819Y-42725180D02*
X39024104Y-42629942D01*
X39024104Y-42629942D02*
X38833628Y-42439465D01*
X38833628Y-42439465D02*
X38738390Y-42248989D01*
X38738390Y-42248989D02*
X38643152Y-41868037D01*
X38643152Y-41868037D02*
X38643152Y-41582322D01*
X38643152Y-41582322D02*
X38738390Y-41201370D01*
X38738390Y-41201370D02*
X38833628Y-41010894D01*
X38833628Y-41010894D02*
X39024104Y-40820418D01*
X39024104Y-40820418D02*
X39309819Y-40725180D01*
X39309819Y-40725180D02*
X39500295Y-40725180D01*
X39500295Y-40725180D02*
X39786009Y-40820418D01*
X39786009Y-40820418D02*
X39881247Y-40915656D01*
X41690771Y-42725180D02*
X40738390Y-42725180D01*
X40738390Y-42725180D02*
X40738390Y-40725180D01*
X42738390Y-40725180D02*
X43119343Y-40725180D01*
X43119343Y-40725180D02*
X43309819Y-40820418D01*
X43309819Y-40820418D02*
X43500295Y-41010894D01*
X43500295Y-41010894D02*
X43595533Y-41391846D01*
X43595533Y-41391846D02*
X43595533Y-42058513D01*
X43595533Y-42058513D02*
X43500295Y-42439465D01*
X43500295Y-42439465D02*
X43309819Y-42629942D01*
X43309819Y-42629942D02*
X43119343Y-42725180D01*
X43119343Y-42725180D02*
X42738390Y-42725180D01*
X42738390Y-42725180D02*
X42547914Y-42629942D01*
X42547914Y-42629942D02*
X42357438Y-42439465D01*
X42357438Y-42439465D02*
X42262200Y-42058513D01*
X42262200Y-42058513D02*
X42262200Y-41391846D01*
X42262200Y-41391846D02*
X42357438Y-41010894D01*
X42357438Y-41010894D02*
X42547914Y-40820418D01*
X42547914Y-40820418D02*
X42738390Y-40725180D01*
X45595533Y-42534703D02*
X45500295Y-42629942D01*
X45500295Y-42629942D02*
X45214581Y-42725180D01*
X45214581Y-42725180D02*
X45024105Y-42725180D01*
X45024105Y-42725180D02*
X44738390Y-42629942D01*
X44738390Y-42629942D02*
X44547914Y-42439465D01*
X44547914Y-42439465D02*
X44452676Y-42248989D01*
X44452676Y-42248989D02*
X44357438Y-41868037D01*
X44357438Y-41868037D02*
X44357438Y-41582322D01*
X44357438Y-41582322D02*
X44452676Y-41201370D01*
X44452676Y-41201370D02*
X44547914Y-41010894D01*
X44547914Y-41010894D02*
X44738390Y-40820418D01*
X44738390Y-40820418D02*
X45024105Y-40725180D01*
X45024105Y-40725180D02*
X45214581Y-40725180D01*
X45214581Y-40725180D02*
X45500295Y-40820418D01*
X45500295Y-40820418D02*
X45595533Y-40915656D01*
X46452676Y-42725180D02*
X46452676Y-40725180D01*
X47595533Y-42725180D02*
X46738390Y-41582322D01*
X47595533Y-40725180D02*
X46452676Y-41868037D01*
D14*
G36*
X28896762Y-137661610D02*
G01*
X29004411Y-137769259D01*
X29060630Y-137881698D01*
X29124999Y-138139173D01*
X29124999Y-138322682D01*
X29060630Y-138580157D01*
X29004411Y-138692596D01*
X28896762Y-138800245D01*
X28729713Y-138855928D01*
X28517856Y-138855928D01*
X28517856Y-137605928D01*
X28729715Y-137605928D01*
X28896762Y-137661610D01*
G37*
G36*
X34375000Y-139320214D02*
G01*
X25624998Y-139320214D01*
X25624998Y-138980928D01*
X25839284Y-138980928D01*
X25859127Y-139048508D01*
X25912357Y-139094632D01*
X25982073Y-139104656D01*
X26046142Y-139075397D01*
X26084221Y-139016145D01*
X26089284Y-138980928D01*
X26089284Y-138044374D01*
X26351011Y-138605218D01*
X26362226Y-138617947D01*
X26369145Y-138633434D01*
X26385022Y-138643824D01*
X26397571Y-138658067D01*
X26413887Y-138662712D01*
X26428081Y-138672000D01*
X26447059Y-138672156D01*
X26465313Y-138677353D01*
X26481549Y-138672440D01*
X26498513Y-138672580D01*
X26514562Y-138662451D01*
X26532727Y-138656955D01*
X26543730Y-138644043D01*
X26558076Y-138634990D01*
X26577557Y-138605218D01*
X26839284Y-138044373D01*
X26839284Y-138980928D01*
X26859127Y-139048508D01*
X26912357Y-139094632D01*
X26982073Y-139104656D01*
X27046142Y-139075397D01*
X27084221Y-139016145D01*
X27089284Y-138980928D01*
X27553570Y-138980928D01*
X27573413Y-139048508D01*
X27626643Y-139094632D01*
X27696359Y-139104656D01*
X27760428Y-139075397D01*
X27798507Y-139016145D01*
X27803570Y-138980928D01*
X28267856Y-138980928D01*
X28270426Y-138989683D01*
X28269128Y-138998717D01*
X28280194Y-139022949D01*
X28287699Y-139048508D01*
X28294595Y-139054483D01*
X28298387Y-139062786D01*
X28320799Y-139077189D01*
X28340929Y-139094632D01*
X28349961Y-139095930D01*
X28357639Y-139100865D01*
X28392856Y-139105928D01*
X28749999Y-139105928D01*
X28752245Y-139105268D01*
X28754516Y-139105847D01*
X28789527Y-139099514D01*
X29003813Y-139028086D01*
X29013118Y-139021618D01*
X29024191Y-139019210D01*
X29052674Y-138997888D01*
X29069634Y-138980928D01*
X29767856Y-138980928D01*
X29787699Y-139048508D01*
X29840929Y-139094632D01*
X29910645Y-139104656D01*
X29974714Y-139075397D01*
X30012793Y-139016145D01*
X30017856Y-138980928D01*
X32339285Y-138980928D01*
X32359128Y-139048508D01*
X32412358Y-139094632D01*
X32482074Y-139104656D01*
X32546143Y-139075397D01*
X32584222Y-139016145D01*
X32589285Y-138980928D01*
X33053571Y-138980928D01*
X33073414Y-139048508D01*
X33126644Y-139094632D01*
X33196360Y-139104656D01*
X33260429Y-139075397D01*
X33298508Y-139016145D01*
X33303571Y-138980928D01*
X33303571Y-137951622D01*
X33927184Y-139042946D01*
X33929608Y-139045278D01*
X33930557Y-139048508D01*
X33954805Y-139069519D01*
X33977941Y-139091777D01*
X33981244Y-139092428D01*
X33983787Y-139094632D01*
X34015548Y-139099198D01*
X34047042Y-139105414D01*
X34050172Y-139104177D01*
X34053503Y-139104656D01*
X34082695Y-139091324D01*
X34112546Y-139079528D01*
X34114510Y-139076795D01*
X34117572Y-139075397D01*
X34134921Y-139048400D01*
X34153657Y-139022337D01*
X34153832Y-139018975D01*
X34155651Y-139016145D01*
X34160714Y-138980928D01*
X34160714Y-137480928D01*
X34140871Y-137413348D01*
X34087641Y-137367224D01*
X34017925Y-137357200D01*
X33953856Y-137386459D01*
X33915777Y-137445711D01*
X33910714Y-137480928D01*
X33910714Y-138510232D01*
X33287101Y-137418911D01*
X33284676Y-137416578D01*
X33283728Y-137413348D01*
X33259468Y-137392327D01*
X33236344Y-137370080D01*
X33233041Y-137369428D01*
X33230498Y-137367224D01*
X33198728Y-137362656D01*
X33167243Y-137356442D01*
X33164112Y-137357678D01*
X33160782Y-137357200D01*
X33131585Y-137370533D01*
X33101740Y-137382328D01*
X33099776Y-137385060D01*
X33096713Y-137386459D01*
X33079354Y-137413468D01*
X33060629Y-137439519D01*
X33060453Y-137442879D01*
X33058634Y-137445711D01*
X33053571Y-137480928D01*
X33053571Y-138980928D01*
X32589285Y-138980928D01*
X32589285Y-137480928D01*
X32569442Y-137413348D01*
X32516212Y-137367224D01*
X32446496Y-137357200D01*
X32382427Y-137386459D01*
X32344348Y-137445711D01*
X32339285Y-137480928D01*
X32339285Y-138980928D01*
X30017856Y-138980928D01*
X30017856Y-138427289D01*
X30483414Y-138427289D01*
X30512673Y-138491358D01*
X30571925Y-138529437D01*
X30607142Y-138534500D01*
X31750000Y-138534500D01*
X31817580Y-138514657D01*
X31863704Y-138461427D01*
X31873728Y-138391711D01*
X31844469Y-138327642D01*
X31785217Y-138289563D01*
X31750000Y-138284500D01*
X30607142Y-138284500D01*
X30539562Y-138304343D01*
X30493438Y-138357573D01*
X30483414Y-138427289D01*
X30017856Y-138427289D01*
X30017856Y-137480928D01*
X29998013Y-137413348D01*
X29944783Y-137367224D01*
X29875067Y-137357200D01*
X29810998Y-137386459D01*
X29772919Y-137445711D01*
X29767856Y-137480928D01*
X29767856Y-138980928D01*
X29069634Y-138980928D01*
X29195531Y-138855030D01*
X29196653Y-138852975D01*
X29198667Y-138851779D01*
X29218945Y-138822544D01*
X29290374Y-138679687D01*
X29291149Y-138675375D01*
X29299839Y-138654102D01*
X29371267Y-138368388D01*
X29371128Y-138364990D01*
X29374999Y-138338071D01*
X29374999Y-138123785D01*
X29374040Y-138120521D01*
X29371267Y-138093468D01*
X29299839Y-137807754D01*
X29297620Y-137803972D01*
X29290374Y-137782169D01*
X29218945Y-137639312D01*
X29217350Y-137637597D01*
X29216852Y-137635308D01*
X29195530Y-137606825D01*
X29052673Y-137463969D01*
X29042729Y-137458539D01*
X29035622Y-137449711D01*
X29003813Y-137433772D01*
X28789528Y-137362343D01*
X28787188Y-137362258D01*
X28785216Y-137360991D01*
X28749999Y-137355928D01*
X28392856Y-137355928D01*
X28384100Y-137358498D01*
X28375067Y-137357200D01*
X28350834Y-137368266D01*
X28325276Y-137375771D01*
X28319300Y-137382667D01*
X28310998Y-137386459D01*
X28296594Y-137408871D01*
X28279152Y-137429001D01*
X28277853Y-137438033D01*
X28272919Y-137445711D01*
X28267856Y-137480928D01*
X28267856Y-138980928D01*
X27803570Y-138980928D01*
X27803570Y-137480928D01*
X27783727Y-137413348D01*
X27730497Y-137367224D01*
X27660781Y-137357200D01*
X27596712Y-137386459D01*
X27558633Y-137445711D01*
X27553570Y-137480928D01*
X27553570Y-138980928D01*
X27089284Y-138980928D01*
X27089284Y-137480928D01*
X27086858Y-137472668D01*
X27088154Y-137464157D01*
X27077085Y-137439382D01*
X27069441Y-137413348D01*
X27062934Y-137407710D01*
X27059423Y-137399850D01*
X27036715Y-137384991D01*
X27016211Y-137367224D01*
X27007691Y-137365998D01*
X27000487Y-137361285D01*
X26973351Y-137361061D01*
X26946495Y-137357200D01*
X26938664Y-137360775D01*
X26930055Y-137360705D01*
X26907105Y-137375188D01*
X26882426Y-137386459D01*
X26877772Y-137393700D01*
X26870492Y-137398295D01*
X26851011Y-137428067D01*
X26464283Y-138256768D01*
X26077557Y-137428067D01*
X26071866Y-137421607D01*
X26069441Y-137413348D01*
X26048934Y-137395579D01*
X26030997Y-137375219D01*
X26022717Y-137372861D01*
X26016211Y-137367224D01*
X25989353Y-137363362D01*
X25963256Y-137355932D01*
X25955016Y-137358425D01*
X25946495Y-137357200D01*
X25921814Y-137368471D01*
X25895841Y-137376330D01*
X25890256Y-137382882D01*
X25882426Y-137386459D01*
X25867756Y-137409284D01*
X25850156Y-137429938D01*
X25849000Y-137438469D01*
X25844347Y-137445711D01*
X25839284Y-137480928D01*
X25839284Y-138980928D01*
X25624998Y-138980928D01*
X25624998Y-137141642D01*
X34375000Y-137141642D01*
X34375000Y-139320214D01*
G37*
D15*
X21351247Y-44047084D02*
X21351247Y-49761370D01*
X17351247Y-37761370D02*
X21351247Y-44047084D01*
X21351247Y-44047084D02*
X25351247Y-37761370D01*
D16*
X41235486Y-144752093D02*
X41449772Y-144823521D01*
X41449772Y-144823521D02*
X41806914Y-144823521D01*
X41806914Y-144823521D02*
X41949772Y-144752093D01*
X41949772Y-144752093D02*
X42021200Y-144680664D01*
X42021200Y-144680664D02*
X42092629Y-144537807D01*
X42092629Y-144537807D02*
X42092629Y-144394950D01*
X42092629Y-144394950D02*
X42021200Y-144252093D01*
X42021200Y-144252093D02*
X41949772Y-144180664D01*
X41949772Y-144180664D02*
X41806914Y-144109235D01*
X41806914Y-144109235D02*
X41521200Y-144037807D01*
X41521200Y-144037807D02*
X41378343Y-143966378D01*
X41378343Y-143966378D02*
X41306914Y-143894950D01*
X41306914Y-143894950D02*
X41235486Y-143752093D01*
X41235486Y-143752093D02*
X41235486Y-143609235D01*
X41235486Y-143609235D02*
X41306914Y-143466378D01*
X41306914Y-143466378D02*
X41378343Y-143394950D01*
X41378343Y-143394950D02*
X41521200Y-143323521D01*
X41521200Y-143323521D02*
X41878343Y-143323521D01*
X41878343Y-143323521D02*
X42092629Y-143394950D01*
X42735485Y-144037807D02*
X43235485Y-144037807D01*
X43449771Y-144823521D02*
X42735485Y-144823521D01*
X42735485Y-144823521D02*
X42735485Y-143323521D01*
X42735485Y-143323521D02*
X43449771Y-143323521D01*
X44092628Y-144823521D02*
X44092628Y-143323521D01*
X44092628Y-143323521D02*
X44592628Y-144394950D01*
X44592628Y-144394950D02*
X45092628Y-143323521D01*
X45092628Y-143323521D02*
X45092628Y-144823521D01*
X45806914Y-144823521D02*
X45806914Y-143323521D01*
X46521200Y-144252093D02*
X47664058Y-144252093D01*
X48306915Y-144752093D02*
X48521201Y-144823521D01*
X48521201Y-144823521D02*
X48878343Y-144823521D01*
X48878343Y-144823521D02*
X49021201Y-144752093D01*
X49021201Y-144752093D02*
X49092629Y-144680664D01*
X49092629Y-144680664D02*
X49164058Y-144537807D01*
X49164058Y-144537807D02*
X49164058Y-144394950D01*
X49164058Y-144394950D02*
X49092629Y-144252093D01*
X49092629Y-144252093D02*
X49021201Y-144180664D01*
X49021201Y-144180664D02*
X48878343Y-144109235D01*
X48878343Y-144109235D02*
X48592629Y-144037807D01*
X48592629Y-144037807D02*
X48449772Y-143966378D01*
X48449772Y-143966378D02*
X48378343Y-143894950D01*
X48378343Y-143894950D02*
X48306915Y-143752093D01*
X48306915Y-143752093D02*
X48306915Y-143609235D01*
X48306915Y-143609235D02*
X48378343Y-143466378D01*
X48378343Y-143466378D02*
X48449772Y-143394950D01*
X48449772Y-143394950D02*
X48592629Y-143323521D01*
X48592629Y-143323521D02*
X48949772Y-143323521D01*
X48949772Y-143323521D02*
X49164058Y-143394950D01*
X49806914Y-144037807D02*
X50306914Y-144037807D01*
X50521200Y-144823521D02*
X49806914Y-144823521D01*
X49806914Y-144823521D02*
X49806914Y-143323521D01*
X49806914Y-143323521D02*
X50521200Y-143323521D01*
X51164057Y-144823521D02*
X51164057Y-143323521D01*
X51164057Y-143323521D02*
X52021200Y-144823521D01*
X52021200Y-144823521D02*
X52021200Y-143323521D01*
X52664058Y-144752093D02*
X52878344Y-144823521D01*
X52878344Y-144823521D02*
X53235486Y-144823521D01*
X53235486Y-144823521D02*
X53378344Y-144752093D01*
X53378344Y-144752093D02*
X53449772Y-144680664D01*
X53449772Y-144680664D02*
X53521201Y-144537807D01*
X53521201Y-144537807D02*
X53521201Y-144394950D01*
X53521201Y-144394950D02*
X53449772Y-144252093D01*
X53449772Y-144252093D02*
X53378344Y-144180664D01*
X53378344Y-144180664D02*
X53235486Y-144109235D01*
X53235486Y-144109235D02*
X52949772Y-144037807D01*
X52949772Y-144037807D02*
X52806915Y-143966378D01*
X52806915Y-143966378D02*
X52735486Y-143894950D01*
X52735486Y-143894950D02*
X52664058Y-143752093D01*
X52664058Y-143752093D02*
X52664058Y-143609235D01*
X52664058Y-143609235D02*
X52735486Y-143466378D01*
X52735486Y-143466378D02*
X52806915Y-143394950D01*
X52806915Y-143394950D02*
X52949772Y-143323521D01*
X52949772Y-143323521D02*
X53306915Y-143323521D01*
X53306915Y-143323521D02*
X53521201Y-143394950D01*
X54164057Y-144823521D02*
X54164057Y-143323521D01*
X55378343Y-144037807D02*
X55592629Y-144109235D01*
X55592629Y-144109235D02*
X55664058Y-144180664D01*
X55664058Y-144180664D02*
X55735486Y-144323521D01*
X55735486Y-144323521D02*
X55735486Y-144537807D01*
X55735486Y-144537807D02*
X55664058Y-144680664D01*
X55664058Y-144680664D02*
X55592629Y-144752093D01*
X55592629Y-144752093D02*
X55449772Y-144823521D01*
X55449772Y-144823521D02*
X54878343Y-144823521D01*
X54878343Y-144823521D02*
X54878343Y-143323521D01*
X54878343Y-143323521D02*
X55378343Y-143323521D01*
X55378343Y-143323521D02*
X55521201Y-143394950D01*
X55521201Y-143394950D02*
X55592629Y-143466378D01*
X55592629Y-143466378D02*
X55664058Y-143609235D01*
X55664058Y-143609235D02*
X55664058Y-143752093D01*
X55664058Y-143752093D02*
X55592629Y-143894950D01*
X55592629Y-143894950D02*
X55521201Y-143966378D01*
X55521201Y-143966378D02*
X55378343Y-144037807D01*
X55378343Y-144037807D02*
X54878343Y-144037807D01*
X57092629Y-144823521D02*
X56378343Y-144823521D01*
X56378343Y-144823521D02*
X56378343Y-143323521D01*
X57592629Y-144037807D02*
X58092629Y-144037807D01*
X58306915Y-144823521D02*
X57592629Y-144823521D01*
X57592629Y-144823521D02*
X57592629Y-143323521D01*
X57592629Y-143323521D02*
X58306915Y-143323521D01*
X60021201Y-144752093D02*
X60235487Y-144823521D01*
X60235487Y-144823521D02*
X60592629Y-144823521D01*
X60592629Y-144823521D02*
X60735487Y-144752093D01*
X60735487Y-144752093D02*
X60806915Y-144680664D01*
X60806915Y-144680664D02*
X60878344Y-144537807D01*
X60878344Y-144537807D02*
X60878344Y-144394950D01*
X60878344Y-144394950D02*
X60806915Y-144252093D01*
X60806915Y-144252093D02*
X60735487Y-144180664D01*
X60735487Y-144180664D02*
X60592629Y-144109235D01*
X60592629Y-144109235D02*
X60306915Y-144037807D01*
X60306915Y-144037807D02*
X60164058Y-143966378D01*
X60164058Y-143966378D02*
X60092629Y-143894950D01*
X60092629Y-143894950D02*
X60021201Y-143752093D01*
X60021201Y-143752093D02*
X60021201Y-143609235D01*
X60021201Y-143609235D02*
X60092629Y-143466378D01*
X60092629Y-143466378D02*
X60164058Y-143394950D01*
X60164058Y-143394950D02*
X60306915Y-143323521D01*
X60306915Y-143323521D02*
X60664058Y-143323521D01*
X60664058Y-143323521D02*
X60878344Y-143394950D01*
X61806915Y-144109235D02*
X61806915Y-144823521D01*
X61306915Y-143323521D02*
X61806915Y-144109235D01*
X61806915Y-144109235D02*
X62306915Y-143323521D01*
X62806914Y-144823521D02*
X62806914Y-143323521D01*
X62806914Y-143323521D02*
X63664057Y-144823521D01*
X63664057Y-144823521D02*
X63664057Y-143323521D01*
X64164058Y-143323521D02*
X65021201Y-143323521D01*
X64592629Y-144823521D02*
X64592629Y-143323521D01*
X65521200Y-144823521D02*
X65521200Y-143323521D01*
X65521200Y-144037807D02*
X66378343Y-144037807D01*
X66378343Y-144823521D02*
X66378343Y-143323521D01*
D15*
X17351247Y-64431370D02*
X25351247Y-76431370D01*
X25351247Y-64431370D02*
X17351247Y-76431370D01*
D12*
X55619047Y-28659942D02*
X55904761Y-28755180D01*
X55904761Y-28755180D02*
X56380952Y-28755180D01*
X56380952Y-28755180D02*
X56571428Y-28659942D01*
X56571428Y-28659942D02*
X56666666Y-28564703D01*
X56666666Y-28564703D02*
X56761904Y-28374227D01*
X56761904Y-28374227D02*
X56761904Y-28183751D01*
X56761904Y-28183751D02*
X56666666Y-27993275D01*
X56666666Y-27993275D02*
X56571428Y-27898037D01*
X56571428Y-27898037D02*
X56380952Y-27802799D01*
X56380952Y-27802799D02*
X55999999Y-27707561D01*
X55999999Y-27707561D02*
X55809523Y-27612322D01*
X55809523Y-27612322D02*
X55714285Y-27517084D01*
X55714285Y-27517084D02*
X55619047Y-27326608D01*
X55619047Y-27326608D02*
X55619047Y-27136132D01*
X55619047Y-27136132D02*
X55714285Y-26945656D01*
X55714285Y-26945656D02*
X55809523Y-26850418D01*
X55809523Y-26850418D02*
X55999999Y-26755180D01*
X55999999Y-26755180D02*
X56476190Y-26755180D01*
X56476190Y-26755180D02*
X56761904Y-26850418D01*
X57619047Y-28755180D02*
X57619047Y-26755180D01*
X57619047Y-26755180D02*
X58380952Y-26755180D01*
X58380952Y-26755180D02*
X58571428Y-26850418D01*
X58571428Y-26850418D02*
X58666666Y-26945656D01*
X58666666Y-26945656D02*
X58761904Y-27136132D01*
X58761904Y-27136132D02*
X58761904Y-27421846D01*
X58761904Y-27421846D02*
X58666666Y-27612322D01*
X58666666Y-27612322D02*
X58571428Y-27707561D01*
X58571428Y-27707561D02*
X58380952Y-27802799D01*
X58380952Y-27802799D02*
X57619047Y-27802799D01*
X59619047Y-27707561D02*
X60285714Y-27707561D01*
X60571428Y-28755180D02*
X59619047Y-28755180D01*
X59619047Y-28755180D02*
X59619047Y-26755180D01*
X59619047Y-26755180D02*
X60571428Y-26755180D01*
X61428571Y-27707561D02*
X62095238Y-27707561D01*
X62380952Y-28755180D02*
X61428571Y-28755180D01*
X61428571Y-28755180D02*
X61428571Y-26755180D01*
X61428571Y-26755180D02*
X62380952Y-26755180D01*
X63238095Y-28755180D02*
X63238095Y-26755180D01*
X63238095Y-26755180D02*
X63714285Y-26755180D01*
X63714285Y-26755180D02*
X64000000Y-26850418D01*
X64000000Y-26850418D02*
X64190476Y-27040894D01*
X64190476Y-27040894D02*
X64285714Y-27231370D01*
X64285714Y-27231370D02*
X64380952Y-27612322D01*
X64380952Y-27612322D02*
X64380952Y-27898037D01*
X64380952Y-27898037D02*
X64285714Y-28278989D01*
X64285714Y-28278989D02*
X64190476Y-28469465D01*
X64190476Y-28469465D02*
X64000000Y-28659942D01*
X64000000Y-28659942D02*
X63714285Y-28755180D01*
X63714285Y-28755180D02*
X63238095Y-28755180D01*
D14*
G36*
X27396762Y-124286610D02*
G01*
X27504411Y-124394259D01*
X27560630Y-124506698D01*
X27624999Y-124764173D01*
X27624999Y-124947682D01*
X27560630Y-125205157D01*
X27504411Y-125317596D01*
X27396762Y-125425245D01*
X27229713Y-125480928D01*
X27017856Y-125480928D01*
X27017856Y-124230928D01*
X27229715Y-124230928D01*
X27396762Y-124286610D01*
G37*
G36*
X31604526Y-124280088D02*
G01*
X31708557Y-124384120D01*
X31767857Y-124621317D01*
X31767857Y-125090538D01*
X31708557Y-125327735D01*
X31604525Y-125431767D01*
X31506205Y-125480928D01*
X31279508Y-125480928D01*
X31181187Y-125431767D01*
X31077156Y-125327736D01*
X31017857Y-125090539D01*
X31017857Y-124621316D01*
X31077155Y-124384120D01*
X31181188Y-124280087D01*
X31279508Y-124230928D01*
X31506206Y-124230928D01*
X31604526Y-124280088D01*
G37*
G36*
X35088015Y-125945214D02*
G01*
X24124998Y-125945214D01*
X24124998Y-125605928D01*
X24339284Y-125605928D01*
X24359127Y-125673508D01*
X24412357Y-125719632D01*
X24482073Y-125729656D01*
X24546142Y-125700397D01*
X24584221Y-125641145D01*
X24589284Y-125605928D01*
X24589284Y-124669374D01*
X24851011Y-125230218D01*
X24862226Y-125242947D01*
X24869145Y-125258434D01*
X24885022Y-125268824D01*
X24897571Y-125283067D01*
X24913887Y-125287712D01*
X24928081Y-125297000D01*
X24947059Y-125297156D01*
X24965313Y-125302353D01*
X24981549Y-125297440D01*
X24998513Y-125297580D01*
X25014562Y-125287451D01*
X25032727Y-125281955D01*
X25043730Y-125269043D01*
X25058076Y-125259990D01*
X25077557Y-125230218D01*
X25339284Y-124669373D01*
X25339284Y-125605928D01*
X25359127Y-125673508D01*
X25412357Y-125719632D01*
X25482073Y-125729656D01*
X25546142Y-125700397D01*
X25584221Y-125641145D01*
X25589284Y-125605928D01*
X26053570Y-125605928D01*
X26073413Y-125673508D01*
X26126643Y-125719632D01*
X26196359Y-125729656D01*
X26260428Y-125700397D01*
X26298507Y-125641145D01*
X26303570Y-125605928D01*
X26767856Y-125605928D01*
X26770426Y-125614683D01*
X26769128Y-125623717D01*
X26780194Y-125647949D01*
X26787699Y-125673508D01*
X26794595Y-125679483D01*
X26798387Y-125687786D01*
X26820799Y-125702189D01*
X26840929Y-125719632D01*
X26849961Y-125720930D01*
X26857639Y-125725865D01*
X26892856Y-125730928D01*
X27249999Y-125730928D01*
X27252245Y-125730268D01*
X27254516Y-125730847D01*
X27289527Y-125724514D01*
X27503813Y-125653086D01*
X27513118Y-125646618D01*
X27524191Y-125644210D01*
X27552674Y-125622888D01*
X27569634Y-125605928D01*
X28267856Y-125605928D01*
X28287699Y-125673508D01*
X28340929Y-125719632D01*
X28410645Y-125729656D01*
X28474714Y-125700397D01*
X28512793Y-125641145D01*
X28517856Y-125605928D01*
X28517856Y-125052289D01*
X28983414Y-125052289D01*
X29012673Y-125116358D01*
X29071925Y-125154437D01*
X29107142Y-125159500D01*
X30250000Y-125159500D01*
X30317580Y-125139657D01*
X30346806Y-125105928D01*
X30767857Y-125105928D01*
X30768815Y-125109191D01*
X30771589Y-125136245D01*
X30843017Y-125421959D01*
X30851156Y-125435831D01*
X30854575Y-125451548D01*
X30875897Y-125480030D01*
X31018755Y-125622889D01*
X31020810Y-125624011D01*
X31022007Y-125626026D01*
X31051242Y-125646304D01*
X31194099Y-125717732D01*
X31205250Y-125719738D01*
X31214783Y-125725865D01*
X31250000Y-125730928D01*
X31535714Y-125730928D01*
X31546586Y-125727735D01*
X31557852Y-125728952D01*
X31591615Y-125717732D01*
X31734473Y-125646303D01*
X31736187Y-125644708D01*
X31738477Y-125644210D01*
X31766960Y-125622888D01*
X31909817Y-125480030D01*
X31917524Y-125465914D01*
X31929242Y-125454897D01*
X31942696Y-125421959D01*
X31968133Y-125320214D01*
X32410714Y-125320214D01*
X32413906Y-125331086D01*
X32412690Y-125342353D01*
X32423911Y-125376116D01*
X32495340Y-125518973D01*
X32496934Y-125520687D01*
X32497433Y-125522977D01*
X32518755Y-125551459D01*
X32590184Y-125622888D01*
X32592238Y-125624009D01*
X32593436Y-125626026D01*
X32622671Y-125646304D01*
X32765528Y-125717732D01*
X32776679Y-125719738D01*
X32786212Y-125725865D01*
X32821429Y-125730928D01*
X33107143Y-125730928D01*
X33118015Y-125727735D01*
X33129281Y-125728952D01*
X33163044Y-125717732D01*
X33305902Y-125646303D01*
X33307616Y-125644708D01*
X33309906Y-125644210D01*
X33338388Y-125622888D01*
X33409817Y-125551459D01*
X33410938Y-125549404D01*
X33412955Y-125548207D01*
X33433233Y-125518972D01*
X33504661Y-125376115D01*
X33506667Y-125364963D01*
X33512794Y-125355431D01*
X33517857Y-125320214D01*
X33517857Y-124123717D01*
X33769130Y-124123717D01*
X33798389Y-124187786D01*
X33857641Y-124225865D01*
X33892858Y-124230928D01*
X34196429Y-124230928D01*
X34196429Y-125605928D01*
X34216272Y-125673508D01*
X34269502Y-125719632D01*
X34339218Y-125729656D01*
X34403287Y-125700397D01*
X34441366Y-125641145D01*
X34446429Y-125605928D01*
X34446429Y-124230928D01*
X34750001Y-124230928D01*
X34817581Y-124211085D01*
X34863705Y-124157855D01*
X34873729Y-124088139D01*
X34844470Y-124024070D01*
X34785218Y-123985991D01*
X34750001Y-123980928D01*
X33892858Y-123980928D01*
X33825278Y-124000771D01*
X33779154Y-124054001D01*
X33769130Y-124123717D01*
X33517857Y-124123717D01*
X33517857Y-124105928D01*
X33498014Y-124038348D01*
X33444784Y-123992224D01*
X33375068Y-123982200D01*
X33310999Y-124011459D01*
X33272920Y-124070711D01*
X33267857Y-124105928D01*
X33267857Y-125290706D01*
X33218696Y-125389027D01*
X33175957Y-125431766D01*
X33077634Y-125480928D01*
X32850937Y-125480928D01*
X32752614Y-125431767D01*
X32709874Y-125389026D01*
X32660714Y-125290705D01*
X32660714Y-124105928D01*
X32640871Y-124038348D01*
X32587641Y-123992224D01*
X32517925Y-123982200D01*
X32453856Y-124011459D01*
X32415777Y-124070711D01*
X32410714Y-124105928D01*
X32410714Y-125320214D01*
X31968133Y-125320214D01*
X32014125Y-125136246D01*
X32013986Y-125132847D01*
X32017857Y-125105928D01*
X32017857Y-124605928D01*
X32016899Y-124602665D01*
X32014125Y-124575610D01*
X31942696Y-124289897D01*
X31934556Y-124276023D01*
X31931138Y-124260308D01*
X31909816Y-124231825D01*
X31766959Y-124088969D01*
X31764905Y-124087847D01*
X31763708Y-124085832D01*
X31734473Y-124065554D01*
X31591616Y-123994125D01*
X31580465Y-123992118D01*
X31570931Y-123985991D01*
X31535714Y-123980928D01*
X31250000Y-123980928D01*
X31239127Y-123984120D01*
X31227861Y-123982904D01*
X31194098Y-123994125D01*
X31051241Y-124065554D01*
X31049527Y-124067147D01*
X31047237Y-124067646D01*
X31018755Y-124088968D01*
X30875897Y-124231825D01*
X30868189Y-124245940D01*
X30856470Y-124256960D01*
X30843017Y-124289897D01*
X30771589Y-124575611D01*
X30771727Y-124579008D01*
X30767857Y-124605928D01*
X30767857Y-125105928D01*
X30346806Y-125105928D01*
X30363704Y-125086427D01*
X30373728Y-125016711D01*
X30344469Y-124952642D01*
X30285217Y-124914563D01*
X30250000Y-124909500D01*
X29107142Y-124909500D01*
X29039562Y-124929343D01*
X28993438Y-124982573D01*
X28983414Y-125052289D01*
X28517856Y-125052289D01*
X28517856Y-124105928D01*
X28498013Y-124038348D01*
X28444783Y-123992224D01*
X28375067Y-123982200D01*
X28310998Y-124011459D01*
X28272919Y-124070711D01*
X28267856Y-124105928D01*
X28267856Y-125605928D01*
X27569634Y-125605928D01*
X27695531Y-125480030D01*
X27696653Y-125477975D01*
X27698667Y-125476779D01*
X27718945Y-125447544D01*
X27790374Y-125304687D01*
X27791149Y-125300375D01*
X27799839Y-125279102D01*
X27871267Y-124993388D01*
X27871128Y-124989990D01*
X27874999Y-124963071D01*
X27874999Y-124748785D01*
X27874040Y-124745521D01*
X27871267Y-124718468D01*
X27799839Y-124432754D01*
X27797620Y-124428972D01*
X27790374Y-124407169D01*
X27718945Y-124264312D01*
X27717350Y-124262597D01*
X27716852Y-124260308D01*
X27695530Y-124231825D01*
X27552673Y-124088969D01*
X27542729Y-124083539D01*
X27535622Y-124074711D01*
X27503813Y-124058772D01*
X27289528Y-123987343D01*
X27287188Y-123987258D01*
X27285216Y-123985991D01*
X27249999Y-123980928D01*
X26892856Y-123980928D01*
X26884100Y-123983498D01*
X26875067Y-123982200D01*
X26850834Y-123993266D01*
X26825276Y-124000771D01*
X26819300Y-124007667D01*
X26810998Y-124011459D01*
X26796594Y-124033871D01*
X26779152Y-124054001D01*
X26777853Y-124063033D01*
X26772919Y-124070711D01*
X26767856Y-124105928D01*
X26767856Y-125605928D01*
X26303570Y-125605928D01*
X26303570Y-124105928D01*
X26283727Y-124038348D01*
X26230497Y-123992224D01*
X26160781Y-123982200D01*
X26096712Y-124011459D01*
X26058633Y-124070711D01*
X26053570Y-124105928D01*
X26053570Y-125605928D01*
X25589284Y-125605928D01*
X25589284Y-124105928D01*
X25586858Y-124097668D01*
X25588154Y-124089157D01*
X25577085Y-124064382D01*
X25569441Y-124038348D01*
X25562934Y-124032710D01*
X25559423Y-124024850D01*
X25536715Y-124009991D01*
X25516211Y-123992224D01*
X25507691Y-123990998D01*
X25500487Y-123986285D01*
X25473351Y-123986061D01*
X25446495Y-123982200D01*
X25438664Y-123985775D01*
X25430055Y-123985705D01*
X25407105Y-124000188D01*
X25382426Y-124011459D01*
X25377772Y-124018700D01*
X25370492Y-124023295D01*
X25351011Y-124053067D01*
X24964283Y-124881768D01*
X24577557Y-124053067D01*
X24571866Y-124046607D01*
X24569441Y-124038348D01*
X24548934Y-124020579D01*
X24530997Y-124000219D01*
X24522717Y-123997861D01*
X24516211Y-123992224D01*
X24489353Y-123988362D01*
X24463256Y-123980932D01*
X24455016Y-123983425D01*
X24446495Y-123982200D01*
X24421814Y-123993471D01*
X24395841Y-124001330D01*
X24390256Y-124007882D01*
X24382426Y-124011459D01*
X24367756Y-124034284D01*
X24350156Y-124054938D01*
X24349000Y-124063469D01*
X24344347Y-124070711D01*
X24339284Y-124105928D01*
X24339284Y-125605928D01*
X24124998Y-125605928D01*
X24124998Y-123766642D01*
X35088015Y-123766642D01*
X35088015Y-125945214D01*
G37*
G36*
X38370214Y-125960714D02*
G01*
X36191642Y-125960714D01*
X36191642Y-125121428D01*
X36405928Y-125121428D01*
X36406587Y-125123674D01*
X36406009Y-125125946D01*
X36412343Y-125160957D01*
X36483772Y-125375242D01*
X36490237Y-125384545D01*
X36492647Y-125395620D01*
X36513969Y-125424102D01*
X36656825Y-125566959D01*
X36658880Y-125568081D01*
X36660077Y-125570096D01*
X36689312Y-125590374D01*
X36832169Y-125661803D01*
X36836480Y-125662578D01*
X36857754Y-125671268D01*
X37143468Y-125742696D01*
X37146865Y-125742557D01*
X37173785Y-125746428D01*
X37388071Y-125746428D01*
X37391334Y-125745469D01*
X37418388Y-125742696D01*
X37704102Y-125671268D01*
X37707883Y-125669049D01*
X37729687Y-125661803D01*
X37872544Y-125590374D01*
X37874257Y-125588780D01*
X37876548Y-125588282D01*
X37905030Y-125566960D01*
X38047888Y-125424103D01*
X38053318Y-125414158D01*
X38062146Y-125407051D01*
X38078086Y-125375242D01*
X38149514Y-125160956D01*
X38149598Y-125158615D01*
X38150865Y-125156645D01*
X38155928Y-125121428D01*
X38155928Y-124978571D01*
X38155268Y-124976324D01*
X38155847Y-124974054D01*
X38149514Y-124939043D01*
X38078086Y-124724757D01*
X38071619Y-124715451D01*
X38069210Y-124704378D01*
X38047888Y-124675896D01*
X37976459Y-124604468D01*
X37914641Y-124570713D01*
X37844387Y-124575739D01*
X37788003Y-124617948D01*
X37763389Y-124683941D01*
X37778361Y-124752764D01*
X37799683Y-124781246D01*
X37850245Y-124831807D01*
X37905928Y-124998856D01*
X37905928Y-125101142D01*
X37850245Y-125268191D01*
X37742596Y-125375840D01*
X37630157Y-125432059D01*
X37372682Y-125496428D01*
X37189174Y-125496428D01*
X36931698Y-125432059D01*
X36819259Y-125375840D01*
X36711610Y-125268191D01*
X36655928Y-125101143D01*
X36655928Y-124998855D01*
X36711610Y-124831807D01*
X36762173Y-124781246D01*
X36795928Y-124719428D01*
X36790903Y-124649174D01*
X36748695Y-124592790D01*
X36682702Y-124568175D01*
X36613879Y-124583147D01*
X36585396Y-124604469D01*
X36513969Y-124675897D01*
X36508539Y-124685840D01*
X36499711Y-124692948D01*
X36483772Y-124724757D01*
X36412343Y-124939042D01*
X36412258Y-124941381D01*
X36410991Y-124943354D01*
X36405928Y-124978571D01*
X36405928Y-125121428D01*
X36191642Y-125121428D01*
X36191642Y-124067789D01*
X36407200Y-124067789D01*
X36436459Y-124131858D01*
X36495711Y-124169937D01*
X36530928Y-124175000D01*
X38030928Y-124175000D01*
X38039683Y-124172429D01*
X38048717Y-124173728D01*
X38072949Y-124162661D01*
X38098508Y-124155157D01*
X38104483Y-124148260D01*
X38112786Y-124144469D01*
X38127189Y-124122056D01*
X38144632Y-124101927D01*
X38145930Y-124092894D01*
X38150865Y-124085217D01*
X38155928Y-124050000D01*
X38155928Y-123335714D01*
X38136085Y-123268134D01*
X38082855Y-123222010D01*
X38013139Y-123211986D01*
X37949070Y-123241245D01*
X37910991Y-123300497D01*
X37905928Y-123335714D01*
X37905928Y-123925000D01*
X36530928Y-123925000D01*
X36463348Y-123944843D01*
X36417224Y-123998073D01*
X36407200Y-124067789D01*
X36191642Y-124067789D01*
X36191642Y-121969654D01*
X36406246Y-121969654D01*
X36421218Y-122038477D01*
X36442540Y-122066959D01*
X37086294Y-122710714D01*
X36530928Y-122710714D01*
X36463348Y-122730557D01*
X36417224Y-122783787D01*
X36407200Y-122853503D01*
X36436459Y-122917572D01*
X36495711Y-122955651D01*
X36530928Y-122960714D01*
X38030928Y-122960714D01*
X38098508Y-122940871D01*
X38144632Y-122887641D01*
X38154656Y-122817925D01*
X38125397Y-122753856D01*
X38066145Y-122715777D01*
X38030928Y-122710714D01*
X37439848Y-122710714D01*
X37364086Y-122634952D01*
X38105928Y-122078571D01*
X38148087Y-122022148D01*
X38153048Y-121951890D01*
X38119237Y-121890103D01*
X38057389Y-121856403D01*
X37987140Y-121861491D01*
X37955928Y-121878571D01*
X37185514Y-122456380D01*
X36619316Y-121890183D01*
X36557499Y-121856427D01*
X36487245Y-121861452D01*
X36430860Y-121903661D01*
X36406246Y-121969654D01*
X36191642Y-121969654D01*
X36191642Y-121642117D01*
X38370214Y-121642117D01*
X38370214Y-125960714D01*
G37*
G36*
X83240547Y-138526750D02*
G01*
X82980735Y-138786563D01*
X82720923Y-138266938D01*
X83240547Y-138526750D01*
G37*
G36*
X86355532Y-136674458D02*
G01*
X83151257Y-139878732D01*
X81610774Y-138338249D01*
X81939454Y-138009569D01*
X82318391Y-138009569D01*
X82320408Y-138015639D01*
X82320311Y-138018399D01*
X82322614Y-138022276D01*
X82329612Y-138043333D01*
X83036718Y-139457545D01*
X83084689Y-139509117D01*
X83152927Y-139526566D01*
X83219766Y-139504354D01*
X83263986Y-139449531D01*
X83271546Y-139379505D01*
X83260325Y-139345742D01*
X83098586Y-139022264D01*
X83476250Y-138644601D01*
X83799727Y-138806340D01*
X83869047Y-138818815D01*
X83934107Y-138791832D01*
X83974250Y-138733959D01*
X83976733Y-138663569D01*
X83940766Y-138603012D01*
X83911531Y-138582734D01*
X82497317Y-137875628D01*
X82466926Y-137870158D01*
X82437010Y-137862509D01*
X82432586Y-137863978D01*
X82427997Y-137863153D01*
X82399469Y-137874984D01*
X82370171Y-137884721D01*
X82367244Y-137888349D01*
X82362937Y-137890136D01*
X82345338Y-137915507D01*
X82325951Y-137939543D01*
X82325450Y-137944179D01*
X82322794Y-137948009D01*
X82321705Y-137978868D01*
X82318391Y-138009569D01*
X81939454Y-138009569D01*
X82567684Y-137381339D01*
X83225553Y-137381339D01*
X83226212Y-137383585D01*
X83225634Y-137385856D01*
X83231967Y-137420867D01*
X83282474Y-137572390D01*
X83284975Y-137575989D01*
X83293873Y-137597174D01*
X83445396Y-137849712D01*
X83447898Y-137852018D01*
X83464195Y-137873788D01*
X83615718Y-138025311D01*
X83618700Y-138026939D01*
X83639794Y-138044110D01*
X83892332Y-138195632D01*
X83896573Y-138196736D01*
X83917115Y-138207031D01*
X84068638Y-138257539D01*
X84070977Y-138257623D01*
X84072950Y-138258891D01*
X84108167Y-138263954D01*
X84310197Y-138263954D01*
X84321069Y-138260761D01*
X84332336Y-138261978D01*
X84366099Y-138250757D01*
X84568130Y-138149741D01*
X84569844Y-138148146D01*
X84572134Y-138147648D01*
X84600616Y-138126326D01*
X84701632Y-138025311D01*
X84702754Y-138023254D01*
X84704768Y-138022059D01*
X84725046Y-137992825D01*
X84826061Y-137790795D01*
X84828067Y-137779644D01*
X84834195Y-137770110D01*
X84839258Y-137734893D01*
X84839258Y-137633877D01*
X84819415Y-137566297D01*
X84766185Y-137520173D01*
X84696469Y-137510149D01*
X84632400Y-137539408D01*
X84594321Y-137598660D01*
X84589258Y-137633877D01*
X84589258Y-137705384D01*
X84510511Y-137862877D01*
X84438183Y-137935206D01*
X84280689Y-138013954D01*
X84128450Y-138013954D01*
X84009192Y-137974200D01*
X83781610Y-137837651D01*
X83651852Y-137707893D01*
X83515306Y-137480316D01*
X83475553Y-137361053D01*
X83475553Y-137208817D01*
X83554300Y-137051322D01*
X83626627Y-136978995D01*
X83784123Y-136900248D01*
X83855629Y-136900248D01*
X83923209Y-136880405D01*
X83969333Y-136827175D01*
X83979357Y-136757459D01*
X83950098Y-136693390D01*
X83890846Y-136655311D01*
X83855629Y-136650248D01*
X83754614Y-136650248D01*
X83743741Y-136653440D01*
X83732476Y-136652224D01*
X83698712Y-136663445D01*
X83496682Y-136764459D01*
X83494967Y-136766053D01*
X83492677Y-136766552D01*
X83464195Y-136787874D01*
X83363180Y-136888890D01*
X83362058Y-136890944D01*
X83360042Y-136892142D01*
X83339764Y-136921377D01*
X83238749Y-137123408D01*
X83236742Y-137134559D01*
X83230616Y-137144092D01*
X83225553Y-137179309D01*
X83225553Y-137381339D01*
X82567684Y-137381339D01*
X83628344Y-136320679D01*
X84286213Y-136320679D01*
X84286872Y-136322925D01*
X84286294Y-136325196D01*
X84292627Y-136360207D01*
X84343134Y-136511730D01*
X84345635Y-136515329D01*
X84354533Y-136536514D01*
X84506056Y-136789052D01*
X84508558Y-136791358D01*
X84524855Y-136813128D01*
X84676378Y-136964651D01*
X84679360Y-136966279D01*
X84700454Y-136983450D01*
X84952992Y-137134972D01*
X84957233Y-137136076D01*
X84977775Y-137146371D01*
X85129298Y-137196879D01*
X85131637Y-137196963D01*
X85133610Y-137198231D01*
X85168827Y-137203294D01*
X85370858Y-137203294D01*
X85381730Y-137200101D01*
X85392997Y-137201318D01*
X85426760Y-137190097D01*
X85628790Y-137089081D01*
X85630504Y-137087486D01*
X85632794Y-137086988D01*
X85661276Y-137065666D01*
X85762292Y-136964651D01*
X85763414Y-136962596D01*
X85765428Y-136961400D01*
X85785706Y-136932165D01*
X85886722Y-136730135D01*
X85888728Y-136718984D01*
X85894856Y-136709450D01*
X85899919Y-136674233D01*
X85899919Y-136573217D01*
X85880076Y-136505637D01*
X85826846Y-136459513D01*
X85757130Y-136449489D01*
X85693061Y-136478748D01*
X85654982Y-136538000D01*
X85649919Y-136573217D01*
X85649919Y-136644724D01*
X85571172Y-136802217D01*
X85498843Y-136874546D01*
X85341350Y-136953294D01*
X85189110Y-136953294D01*
X85069852Y-136913540D01*
X84842270Y-136776991D01*
X84712512Y-136647233D01*
X84575966Y-136419656D01*
X84536213Y-136300393D01*
X84536213Y-136148157D01*
X84614960Y-135990662D01*
X84687287Y-135918335D01*
X84844783Y-135839588D01*
X84916289Y-135839588D01*
X84983869Y-135819745D01*
X85029993Y-135766515D01*
X85040017Y-135696799D01*
X85010758Y-135632730D01*
X84951506Y-135594651D01*
X84916289Y-135589588D01*
X84815274Y-135589588D01*
X84804401Y-135592780D01*
X84793136Y-135591564D01*
X84759372Y-135602785D01*
X84557342Y-135703799D01*
X84555627Y-135705393D01*
X84553337Y-135705892D01*
X84524855Y-135727214D01*
X84423840Y-135828230D01*
X84422718Y-135830284D01*
X84420702Y-135831482D01*
X84400424Y-135860717D01*
X84299409Y-136062748D01*
X84297402Y-136073899D01*
X84291276Y-136083432D01*
X84286213Y-136118649D01*
X84286213Y-136320679D01*
X83628344Y-136320679D01*
X84815048Y-135133975D01*
X86355532Y-136674458D01*
G37*
D17*
G36*
X71938071Y-54516450D02*
G01*
X71900043Y-54592504D01*
X71871645Y-54620903D01*
X71795595Y-54658928D01*
X71669833Y-54658928D01*
X71593782Y-54620903D01*
X71565381Y-54592501D01*
X71527357Y-54516452D01*
X71527357Y-54176785D01*
X71938071Y-54176785D01*
X71938071Y-54516450D01*
G37*
G36*
X72527357Y-60672085D02*
G01*
X70223785Y-60672085D01*
X70223785Y-59888151D01*
X70442772Y-59888151D01*
X70478978Y-59963332D01*
X70544218Y-60015360D01*
X70625571Y-60033928D01*
X71938071Y-60033928D01*
X71938071Y-60275000D01*
X71956639Y-60356353D01*
X72008667Y-60421593D01*
X72083848Y-60457799D01*
X72167294Y-60457799D01*
X72242475Y-60421593D01*
X72294503Y-60356353D01*
X72313071Y-60275000D01*
X72313071Y-59417857D01*
X72294503Y-59336504D01*
X72242475Y-59271264D01*
X72167294Y-59235058D01*
X72083848Y-59235058D01*
X72008667Y-59271264D01*
X71956639Y-59336504D01*
X71938071Y-59417857D01*
X71938071Y-59658928D01*
X70625571Y-59658928D01*
X70544218Y-59677496D01*
X70478978Y-59729524D01*
X70442772Y-59804705D01*
X70442772Y-59888151D01*
X70223785Y-59888151D01*
X70223785Y-58989285D01*
X70438071Y-58989285D01*
X70456639Y-59070638D01*
X70508667Y-59135878D01*
X70583848Y-59172084D01*
X70667294Y-59172084D01*
X70742475Y-59135878D01*
X70794503Y-59070638D01*
X70813071Y-58989285D01*
X70813071Y-58462499D01*
X71223785Y-58462499D01*
X71223785Y-58774999D01*
X71242353Y-58856352D01*
X71294381Y-58921592D01*
X71369562Y-58957798D01*
X71453008Y-58957798D01*
X71528189Y-58921592D01*
X71580217Y-58856352D01*
X71598785Y-58774999D01*
X71598785Y-58462499D01*
X71938071Y-58462499D01*
X71938071Y-58989285D01*
X71956639Y-59070638D01*
X72008667Y-59135878D01*
X72083848Y-59172084D01*
X72167294Y-59172084D01*
X72242475Y-59135878D01*
X72294503Y-59070638D01*
X72313071Y-58989285D01*
X72313071Y-58274999D01*
X72308370Y-58254402D01*
X72308370Y-58233276D01*
X72299204Y-58214243D01*
X72294503Y-58193646D01*
X72281329Y-58177127D01*
X72272164Y-58158095D01*
X72255647Y-58144922D01*
X72242475Y-58128406D01*
X72223442Y-58119240D01*
X72206924Y-58106067D01*
X72186326Y-58101365D01*
X72167294Y-58092200D01*
X72146168Y-58092200D01*
X72125571Y-58087499D01*
X70625571Y-58087499D01*
X70604974Y-58092200D01*
X70583848Y-58092200D01*
X70564815Y-58101365D01*
X70544218Y-58106067D01*
X70527699Y-58119240D01*
X70508667Y-58128406D01*
X70495494Y-58144922D01*
X70478978Y-58158095D01*
X70469812Y-58177127D01*
X70456639Y-58193646D01*
X70451937Y-58214243D01*
X70442772Y-58233276D01*
X70442772Y-58254402D01*
X70438071Y-58274999D01*
X70438071Y-58989285D01*
X70223785Y-58989285D01*
X70223785Y-57346428D01*
X70438071Y-57346428D01*
X70438387Y-57347816D01*
X70438091Y-57349212D01*
X70447659Y-57388440D01*
X70456639Y-57427781D01*
X70457528Y-57428895D01*
X70457866Y-57430281D01*
X70529295Y-57573138D01*
X70548402Y-57596381D01*
X70564417Y-57621869D01*
X70635845Y-57693296D01*
X70661326Y-57709307D01*
X70684575Y-57728419D01*
X70827432Y-57799848D01*
X70828817Y-57800185D01*
X70829932Y-57801075D01*
X70869297Y-57810059D01*
X70908500Y-57819622D01*
X70909894Y-57819325D01*
X70911285Y-57819643D01*
X71054142Y-57819643D01*
X71055530Y-57819326D01*
X71056926Y-57819623D01*
X71096154Y-57810054D01*
X71135495Y-57801075D01*
X71136609Y-57800185D01*
X71137995Y-57799848D01*
X71280852Y-57728419D01*
X71304095Y-57709311D01*
X71329583Y-57693297D01*
X71401010Y-57621869D01*
X71417021Y-57596387D01*
X71436133Y-57573139D01*
X71507562Y-57430281D01*
X71512442Y-57410272D01*
X71521759Y-57391903D01*
X71588195Y-57126157D01*
X71636812Y-57028923D01*
X71665208Y-57000526D01*
X71741262Y-56962500D01*
X71795595Y-56962500D01*
X71871645Y-57000524D01*
X71900043Y-57028923D01*
X71938071Y-57104977D01*
X71938071Y-57387429D01*
X71876264Y-57572850D01*
X71868153Y-57655900D01*
X71896880Y-57734245D01*
X71956754Y-57792367D01*
X72035918Y-57818755D01*
X72118690Y-57808182D01*
X72188679Y-57762742D01*
X72232020Y-57691436D01*
X72303449Y-57477150D01*
X72306374Y-57447197D01*
X72313071Y-57417857D01*
X72313071Y-57060714D01*
X72312753Y-57059323D01*
X72313050Y-57057929D01*
X72303487Y-57018726D01*
X72294503Y-56979361D01*
X72293613Y-56978246D01*
X72293276Y-56976861D01*
X72221847Y-56834004D01*
X72202736Y-56810757D01*
X72186725Y-56785275D01*
X72115297Y-56713846D01*
X72089813Y-56697833D01*
X72066566Y-56678723D01*
X71923709Y-56607295D01*
X71922325Y-56606957D01*
X71921210Y-56606068D01*
X71881861Y-56597087D01*
X71842641Y-56587520D01*
X71841245Y-56587816D01*
X71839857Y-56587500D01*
X71697000Y-56587500D01*
X71695612Y-56587816D01*
X71694217Y-56587520D01*
X71654979Y-56597090D01*
X71615647Y-56606068D01*
X71614532Y-56606956D01*
X71613149Y-56607294D01*
X71470290Y-56678722D01*
X71447039Y-56697835D01*
X71421558Y-56713847D01*
X71350131Y-56785275D01*
X71334120Y-56810755D01*
X71315009Y-56834004D01*
X71243580Y-56976861D01*
X71238698Y-56996870D01*
X71229383Y-57015239D01*
X71162946Y-57280986D01*
X71114330Y-57378218D01*
X71085931Y-57406616D01*
X71009879Y-57444643D01*
X70955548Y-57444643D01*
X70879495Y-57406616D01*
X70851097Y-57378217D01*
X70813071Y-57302164D01*
X70813071Y-57019713D01*
X70874878Y-56834293D01*
X70882989Y-56751243D01*
X70854262Y-56672899D01*
X70794388Y-56614776D01*
X70715224Y-56588388D01*
X70632452Y-56598962D01*
X70562463Y-56644401D01*
X70519122Y-56715707D01*
X70447693Y-56929993D01*
X70444767Y-56959945D01*
X70438071Y-56989286D01*
X70438071Y-57346428D01*
X70223785Y-57346428D01*
X70223785Y-56203571D01*
X70438071Y-56203571D01*
X70456639Y-56284924D01*
X70508667Y-56350164D01*
X70583848Y-56386370D01*
X70667294Y-56386370D01*
X70742475Y-56350164D01*
X70794503Y-56284924D01*
X70813071Y-56203571D01*
X70813071Y-55676785D01*
X71223785Y-55676785D01*
X71223785Y-55989285D01*
X71242353Y-56070638D01*
X71294381Y-56135878D01*
X71369562Y-56172084D01*
X71453008Y-56172084D01*
X71528189Y-56135878D01*
X71580217Y-56070638D01*
X71598785Y-55989285D01*
X71598785Y-55676785D01*
X71938071Y-55676785D01*
X71938071Y-56203571D01*
X71956639Y-56284924D01*
X72008667Y-56350164D01*
X72083848Y-56386370D01*
X72167294Y-56386370D01*
X72242475Y-56350164D01*
X72294503Y-56284924D01*
X72313071Y-56203571D01*
X72313071Y-55489285D01*
X72308370Y-55468688D01*
X72308370Y-55447562D01*
X72299204Y-55428529D01*
X72294503Y-55407932D01*
X72281329Y-55391413D01*
X72272164Y-55372381D01*
X72255647Y-55359208D01*
X72242475Y-55342692D01*
X72223442Y-55333526D01*
X72206924Y-55320353D01*
X72186326Y-55315651D01*
X72167294Y-55306486D01*
X72146168Y-55306486D01*
X72125571Y-55301785D01*
X70625571Y-55301785D01*
X70604974Y-55306486D01*
X70583848Y-55306486D01*
X70564815Y-55315651D01*
X70544218Y-55320353D01*
X70527699Y-55333526D01*
X70508667Y-55342692D01*
X70495494Y-55359208D01*
X70478978Y-55372381D01*
X70469812Y-55391413D01*
X70456639Y-55407932D01*
X70451937Y-55428529D01*
X70442772Y-55447562D01*
X70442772Y-55468688D01*
X70438071Y-55489285D01*
X70438071Y-56203571D01*
X70223785Y-56203571D01*
X70223785Y-54834722D01*
X70438437Y-54834722D01*
X70451890Y-54917075D01*
X70499743Y-54985437D01*
X70572517Y-55026265D01*
X70655800Y-55031475D01*
X70733095Y-55000034D01*
X71189977Y-54680216D01*
X71243580Y-54787423D01*
X71262688Y-54810668D01*
X71278702Y-54836154D01*
X71350132Y-54907583D01*
X71375614Y-54923594D01*
X71398862Y-54942705D01*
X71541719Y-55014133D01*
X71543102Y-55014470D01*
X71544218Y-55015360D01*
X71583566Y-55024340D01*
X71622787Y-55033908D01*
X71624182Y-55033611D01*
X71625571Y-55033928D01*
X71839857Y-55033928D01*
X71841245Y-55033611D01*
X71842641Y-55033908D01*
X71881861Y-55024340D01*
X71921210Y-55015360D01*
X71922325Y-55014470D01*
X71923709Y-55014133D01*
X72066566Y-54942705D01*
X72089813Y-54923594D01*
X72115297Y-54907582D01*
X72186725Y-54836153D01*
X72202736Y-54810670D01*
X72221847Y-54787424D01*
X72293276Y-54644567D01*
X72293613Y-54643181D01*
X72294503Y-54642067D01*
X72303487Y-54602701D01*
X72313050Y-54563499D01*
X72312753Y-54562104D01*
X72313071Y-54560714D01*
X72313071Y-53989285D01*
X72308370Y-53968688D01*
X72308370Y-53947562D01*
X72299204Y-53928529D01*
X72294503Y-53907932D01*
X72281329Y-53891413D01*
X72272164Y-53872381D01*
X72255647Y-53859208D01*
X72242475Y-53842692D01*
X72223442Y-53833526D01*
X72206924Y-53820353D01*
X72186326Y-53815651D01*
X72167294Y-53806486D01*
X72146168Y-53806486D01*
X72125571Y-53801785D01*
X70625571Y-53801785D01*
X70544218Y-53820353D01*
X70478978Y-53872381D01*
X70442772Y-53947562D01*
X70442772Y-54031008D01*
X70478978Y-54106189D01*
X70544218Y-54158217D01*
X70625571Y-54176785D01*
X71152357Y-54176785D01*
X71152357Y-54248805D01*
X70518047Y-54692822D01*
X70462048Y-54754686D01*
X70438437Y-54834722D01*
X70223785Y-54834722D01*
X70223785Y-53587499D01*
X72527357Y-53587499D01*
X72527357Y-60672085D01*
G37*
M02*
