%TF.GenerationSoftware,KiCad,Pcbnew,7.0.6*%
%TF.CreationDate,2023-08-27T12:30:40+10:00*%
%TF.ProjectId,NanoGris,4e616e6f-4772-4697-932e-6b696361645f,rev?*%
%TF.SameCoordinates,Original*%
%TF.FileFunction,Drillmap*%
%TF.FilePolarity,Positive*%
%FSLAX45Y45*%
G04 Gerber Fmt 4.5, Leading zero omitted, Abs format (unit mm)*
G04 Created by KiCad (PCBNEW 7.0.6) date 2023-08-27 12:30:40*
%MOMM*%
%LPD*%
G01*
G04 APERTURE LIST*
%ADD10C,0.050000*%
%ADD11C,0.200000*%
%ADD12C,0.320000*%
%ADD13C,0.640000*%
%ADD14C,0.650000*%
%ADD15C,0.700000*%
G04 APERTURE END LIST*
D10*
X1856125Y-14723594D02*
X8891125Y-14723594D01*
X8891125Y-14723594D02*
X8891125Y-1874594D01*
X1856125Y-14723594D02*
X1856125Y-1874594D01*
X1856125Y-1874594D02*
X8891125Y-1874594D01*
D11*
D12*
X4530000Y-9690000D02*
X4850000Y-10010000D01*
X4850000Y-9690000D02*
X4530000Y-10010000D01*
X6220000Y-9690000D02*
X6540000Y-10010000D01*
X6540000Y-9690000D02*
X6220000Y-10010000D01*
X6251586Y-4647462D02*
X6571586Y-4967462D01*
X6571586Y-4647462D02*
X6251586Y-4967462D01*
X7810000Y-9690000D02*
X8130000Y-10010000D01*
X8130000Y-9690000D02*
X7810000Y-10010000D01*
D13*
X3309125Y-5071594D02*
G75*
G03*
X3309125Y-5071594I-320000J0D01*
G01*
X3309125Y-7738594D02*
G75*
G03*
X3309125Y-7738594I-320000J0D01*
G01*
X3309125Y-10786594D02*
G75*
G03*
X3309125Y-10786594I-320000J0D01*
G01*
X3309125Y-11929594D02*
G75*
G03*
X3309125Y-11929594I-320000J0D01*
G01*
X3309125Y-13072594D02*
G75*
G03*
X3309125Y-13072594I-320000J0D01*
G01*
X5010125Y-3547594D02*
G75*
G03*
X5010125Y-3547594I-320000J0D01*
G01*
X5010125Y-4817594D02*
G75*
G03*
X5010125Y-4817594I-320000J0D01*
G01*
X5010125Y-10786594D02*
G75*
G03*
X5010125Y-10786594I-320000J0D01*
G01*
X5010125Y-11929594D02*
G75*
G03*
X5010125Y-11929594I-320000J0D01*
G01*
X5010125Y-13072594D02*
G75*
G03*
X5010125Y-13072594I-320000J0D01*
G01*
X6706125Y-13072594D02*
G75*
G03*
X6706125Y-13072594I-320000J0D01*
G01*
X6711125Y-10786594D02*
G75*
G03*
X6711125Y-10786594I-320000J0D01*
G01*
X6711125Y-11929594D02*
G75*
G03*
X6711125Y-11929594I-320000J0D01*
G01*
X8307125Y-10786594D02*
G75*
G03*
X8307125Y-10786594I-320000J0D01*
G01*
X8307125Y-11929594D02*
G75*
G03*
X8307125Y-11929594I-320000J0D01*
G01*
X8307125Y-13072594D02*
G75*
G03*
X8307125Y-13072594I-320000J0D01*
G01*
D14*
X6416050Y-5360594D02*
X6416050Y-6010594D01*
X6091050Y-5685594D02*
X6741050Y-5685594D01*
D15*
X3236614Y-3795084D02*
X3236614Y-3300104D01*
X2741635Y-3300104D01*
X2741635Y-3795084D01*
X3236614Y-3795084D01*
X3236614Y-6462084D02*
X3236614Y-5967104D01*
X2741635Y-5967104D01*
X2741635Y-6462084D01*
X3236614Y-6462084D01*
X3236614Y-9547490D02*
X3236614Y-9052510D01*
X2741635Y-9052510D01*
X2741635Y-9547490D01*
X3236614Y-9547490D01*
X4965490Y-6387490D02*
X4965490Y-5892510D01*
X4470510Y-5892510D01*
X4470510Y-6387490D01*
X4965490Y-6387490D01*
X6667490Y-7587490D02*
X6667490Y-7092510D01*
X6172510Y-7092510D01*
X6172510Y-7587490D01*
X6667490Y-7587490D01*
X6670614Y-3802490D02*
X6670614Y-3307510D01*
X6175635Y-3307510D01*
X6175635Y-3802490D01*
X6670614Y-3802490D01*
X8217490Y-8807490D02*
X8217490Y-8312510D01*
X7722510Y-8312510D01*
X7722510Y-8807490D01*
X8217490Y-8807490D01*
D11*
X2114402Y-15037578D02*
X2114402Y-14837578D01*
X2114402Y-14837578D02*
X2162021Y-14837578D01*
X2162021Y-14837578D02*
X2190592Y-14847102D01*
X2190592Y-14847102D02*
X2209640Y-14866149D01*
X2209640Y-14866149D02*
X2219163Y-14885197D01*
X2219163Y-14885197D02*
X2228687Y-14923292D01*
X2228687Y-14923292D02*
X2228687Y-14951864D01*
X2228687Y-14951864D02*
X2219163Y-14989959D01*
X2219163Y-14989959D02*
X2209640Y-15009006D01*
X2209640Y-15009006D02*
X2190592Y-15028054D01*
X2190592Y-15028054D02*
X2162021Y-15037578D01*
X2162021Y-15037578D02*
X2114402Y-15037578D01*
X2314402Y-15037578D02*
X2314402Y-14904245D01*
X2314402Y-14942340D02*
X2323925Y-14923292D01*
X2323925Y-14923292D02*
X2333449Y-14913768D01*
X2333449Y-14913768D02*
X2352497Y-14904245D01*
X2352497Y-14904245D02*
X2371544Y-14904245D01*
X2438211Y-15037578D02*
X2438211Y-14904245D01*
X2438211Y-14837578D02*
X2428687Y-14847102D01*
X2428687Y-14847102D02*
X2438211Y-14856626D01*
X2438211Y-14856626D02*
X2447735Y-14847102D01*
X2447735Y-14847102D02*
X2438211Y-14837578D01*
X2438211Y-14837578D02*
X2438211Y-14856626D01*
X2562021Y-15037578D02*
X2542973Y-15028054D01*
X2542973Y-15028054D02*
X2533449Y-15009006D01*
X2533449Y-15009006D02*
X2533449Y-14837578D01*
X2666782Y-15037578D02*
X2647735Y-15028054D01*
X2647735Y-15028054D02*
X2638211Y-15009006D01*
X2638211Y-15009006D02*
X2638211Y-14837578D01*
X2895354Y-15037578D02*
X2895354Y-14837578D01*
X2895354Y-14837578D02*
X2962021Y-14980435D01*
X2962021Y-14980435D02*
X3028687Y-14837578D01*
X3028687Y-14837578D02*
X3028687Y-15037578D01*
X3209640Y-15037578D02*
X3209640Y-14932816D01*
X3209640Y-14932816D02*
X3200116Y-14913768D01*
X3200116Y-14913768D02*
X3181068Y-14904245D01*
X3181068Y-14904245D02*
X3142973Y-14904245D01*
X3142973Y-14904245D02*
X3123925Y-14913768D01*
X3209640Y-15028054D02*
X3190592Y-15037578D01*
X3190592Y-15037578D02*
X3142973Y-15037578D01*
X3142973Y-15037578D02*
X3123925Y-15028054D01*
X3123925Y-15028054D02*
X3114401Y-15009006D01*
X3114401Y-15009006D02*
X3114401Y-14989959D01*
X3114401Y-14989959D02*
X3123925Y-14970911D01*
X3123925Y-14970911D02*
X3142973Y-14961387D01*
X3142973Y-14961387D02*
X3190592Y-14961387D01*
X3190592Y-14961387D02*
X3209640Y-14951864D01*
X3304878Y-14904245D02*
X3304878Y-15104245D01*
X3304878Y-14913768D02*
X3323925Y-14904245D01*
X3323925Y-14904245D02*
X3362021Y-14904245D01*
X3362021Y-14904245D02*
X3381068Y-14913768D01*
X3381068Y-14913768D02*
X3390592Y-14923292D01*
X3390592Y-14923292D02*
X3400116Y-14942340D01*
X3400116Y-14942340D02*
X3400116Y-14999483D01*
X3400116Y-14999483D02*
X3390592Y-15018530D01*
X3390592Y-15018530D02*
X3381068Y-15028054D01*
X3381068Y-15028054D02*
X3362021Y-15037578D01*
X3362021Y-15037578D02*
X3323925Y-15037578D01*
X3323925Y-15037578D02*
X3304878Y-15028054D01*
X3485830Y-15018530D02*
X3495354Y-15028054D01*
X3495354Y-15028054D02*
X3485830Y-15037578D01*
X3485830Y-15037578D02*
X3476306Y-15028054D01*
X3476306Y-15028054D02*
X3485830Y-15018530D01*
X3485830Y-15018530D02*
X3485830Y-15037578D01*
X3485830Y-14913768D02*
X3495354Y-14923292D01*
X3495354Y-14923292D02*
X3485830Y-14932816D01*
X3485830Y-14932816D02*
X3476306Y-14923292D01*
X3476306Y-14923292D02*
X3485830Y-14913768D01*
X3485830Y-14913768D02*
X3485830Y-14932816D01*
X1653625Y-15266094D02*
X1853625Y-15466094D01*
X1853625Y-15266094D02*
X1653625Y-15466094D01*
X2095354Y-15257578D02*
X2219163Y-15257578D01*
X2219163Y-15257578D02*
X2152497Y-15333768D01*
X2152497Y-15333768D02*
X2181068Y-15333768D01*
X2181068Y-15333768D02*
X2200116Y-15343292D01*
X2200116Y-15343292D02*
X2209640Y-15352816D01*
X2209640Y-15352816D02*
X2219163Y-15371864D01*
X2219163Y-15371864D02*
X2219163Y-15419483D01*
X2219163Y-15419483D02*
X2209640Y-15438530D01*
X2209640Y-15438530D02*
X2200116Y-15448054D01*
X2200116Y-15448054D02*
X2181068Y-15457578D01*
X2181068Y-15457578D02*
X2123925Y-15457578D01*
X2123925Y-15457578D02*
X2104878Y-15448054D01*
X2104878Y-15448054D02*
X2095354Y-15438530D01*
X2304878Y-15438530D02*
X2314402Y-15448054D01*
X2314402Y-15448054D02*
X2304878Y-15457578D01*
X2304878Y-15457578D02*
X2295354Y-15448054D01*
X2295354Y-15448054D02*
X2304878Y-15438530D01*
X2304878Y-15438530D02*
X2304878Y-15457578D01*
X2390592Y-15276626D02*
X2400116Y-15267102D01*
X2400116Y-15267102D02*
X2419163Y-15257578D01*
X2419163Y-15257578D02*
X2466783Y-15257578D01*
X2466783Y-15257578D02*
X2485830Y-15267102D01*
X2485830Y-15267102D02*
X2495354Y-15276626D01*
X2495354Y-15276626D02*
X2504878Y-15295673D01*
X2504878Y-15295673D02*
X2504878Y-15314721D01*
X2504878Y-15314721D02*
X2495354Y-15343292D01*
X2495354Y-15343292D02*
X2381068Y-15457578D01*
X2381068Y-15457578D02*
X2504878Y-15457578D01*
X2628687Y-15257578D02*
X2647735Y-15257578D01*
X2647735Y-15257578D02*
X2666783Y-15267102D01*
X2666783Y-15267102D02*
X2676306Y-15276626D01*
X2676306Y-15276626D02*
X2685830Y-15295673D01*
X2685830Y-15295673D02*
X2695354Y-15333768D01*
X2695354Y-15333768D02*
X2695354Y-15381387D01*
X2695354Y-15381387D02*
X2685830Y-15419483D01*
X2685830Y-15419483D02*
X2676306Y-15438530D01*
X2676306Y-15438530D02*
X2666783Y-15448054D01*
X2666783Y-15448054D02*
X2647735Y-15457578D01*
X2647735Y-15457578D02*
X2628687Y-15457578D01*
X2628687Y-15457578D02*
X2609640Y-15448054D01*
X2609640Y-15448054D02*
X2600116Y-15438530D01*
X2600116Y-15438530D02*
X2590592Y-15419483D01*
X2590592Y-15419483D02*
X2581068Y-15381387D01*
X2581068Y-15381387D02*
X2581068Y-15333768D01*
X2581068Y-15333768D02*
X2590592Y-15295673D01*
X2590592Y-15295673D02*
X2600116Y-15276626D01*
X2600116Y-15276626D02*
X2609640Y-15267102D01*
X2609640Y-15267102D02*
X2628687Y-15257578D01*
X2819163Y-15257578D02*
X2838211Y-15257578D01*
X2838211Y-15257578D02*
X2857259Y-15267102D01*
X2857259Y-15267102D02*
X2866782Y-15276626D01*
X2866782Y-15276626D02*
X2876306Y-15295673D01*
X2876306Y-15295673D02*
X2885830Y-15333768D01*
X2885830Y-15333768D02*
X2885830Y-15381387D01*
X2885830Y-15381387D02*
X2876306Y-15419483D01*
X2876306Y-15419483D02*
X2866782Y-15438530D01*
X2866782Y-15438530D02*
X2857259Y-15448054D01*
X2857259Y-15448054D02*
X2838211Y-15457578D01*
X2838211Y-15457578D02*
X2819163Y-15457578D01*
X2819163Y-15457578D02*
X2800116Y-15448054D01*
X2800116Y-15448054D02*
X2790592Y-15438530D01*
X2790592Y-15438530D02*
X2781068Y-15419483D01*
X2781068Y-15419483D02*
X2771544Y-15381387D01*
X2771544Y-15381387D02*
X2771544Y-15333768D01*
X2771544Y-15333768D02*
X2781068Y-15295673D01*
X2781068Y-15295673D02*
X2790592Y-15276626D01*
X2790592Y-15276626D02*
X2800116Y-15267102D01*
X2800116Y-15267102D02*
X2819163Y-15257578D01*
X2971544Y-15457578D02*
X2971544Y-15324245D01*
X2971544Y-15343292D02*
X2981068Y-15333768D01*
X2981068Y-15333768D02*
X3000116Y-15324245D01*
X3000116Y-15324245D02*
X3028687Y-15324245D01*
X3028687Y-15324245D02*
X3047735Y-15333768D01*
X3047735Y-15333768D02*
X3057259Y-15352816D01*
X3057259Y-15352816D02*
X3057259Y-15457578D01*
X3057259Y-15352816D02*
X3066782Y-15333768D01*
X3066782Y-15333768D02*
X3085830Y-15324245D01*
X3085830Y-15324245D02*
X3114401Y-15324245D01*
X3114401Y-15324245D02*
X3133449Y-15333768D01*
X3133449Y-15333768D02*
X3142973Y-15352816D01*
X3142973Y-15352816D02*
X3142973Y-15457578D01*
X3238211Y-15457578D02*
X3238211Y-15324245D01*
X3238211Y-15343292D02*
X3247735Y-15333768D01*
X3247735Y-15333768D02*
X3266782Y-15324245D01*
X3266782Y-15324245D02*
X3295354Y-15324245D01*
X3295354Y-15324245D02*
X3314402Y-15333768D01*
X3314402Y-15333768D02*
X3323925Y-15352816D01*
X3323925Y-15352816D02*
X3323925Y-15457578D01*
X3323925Y-15352816D02*
X3333449Y-15333768D01*
X3333449Y-15333768D02*
X3352497Y-15324245D01*
X3352497Y-15324245D02*
X3381068Y-15324245D01*
X3381068Y-15324245D02*
X3400116Y-15333768D01*
X3400116Y-15333768D02*
X3409640Y-15352816D01*
X3409640Y-15352816D02*
X3409640Y-15457578D01*
X3800116Y-15248054D02*
X3628687Y-15505197D01*
X4057259Y-15257578D02*
X4076306Y-15257578D01*
X4076306Y-15257578D02*
X4095354Y-15267102D01*
X4095354Y-15267102D02*
X4104878Y-15276626D01*
X4104878Y-15276626D02*
X4114402Y-15295673D01*
X4114402Y-15295673D02*
X4123925Y-15333768D01*
X4123925Y-15333768D02*
X4123925Y-15381387D01*
X4123925Y-15381387D02*
X4114402Y-15419483D01*
X4114402Y-15419483D02*
X4104878Y-15438530D01*
X4104878Y-15438530D02*
X4095354Y-15448054D01*
X4095354Y-15448054D02*
X4076306Y-15457578D01*
X4076306Y-15457578D02*
X4057259Y-15457578D01*
X4057259Y-15457578D02*
X4038211Y-15448054D01*
X4038211Y-15448054D02*
X4028687Y-15438530D01*
X4028687Y-15438530D02*
X4019164Y-15419483D01*
X4019164Y-15419483D02*
X4009640Y-15381387D01*
X4009640Y-15381387D02*
X4009640Y-15333768D01*
X4009640Y-15333768D02*
X4019164Y-15295673D01*
X4019164Y-15295673D02*
X4028687Y-15276626D01*
X4028687Y-15276626D02*
X4038211Y-15267102D01*
X4038211Y-15267102D02*
X4057259Y-15257578D01*
X4209640Y-15438530D02*
X4219164Y-15448054D01*
X4219164Y-15448054D02*
X4209640Y-15457578D01*
X4209640Y-15457578D02*
X4200116Y-15448054D01*
X4200116Y-15448054D02*
X4209640Y-15438530D01*
X4209640Y-15438530D02*
X4209640Y-15457578D01*
X4409640Y-15457578D02*
X4295354Y-15457578D01*
X4352497Y-15457578D02*
X4352497Y-15257578D01*
X4352497Y-15257578D02*
X4333449Y-15286149D01*
X4333449Y-15286149D02*
X4314402Y-15305197D01*
X4314402Y-15305197D02*
X4295354Y-15314721D01*
X4485830Y-15276626D02*
X4495354Y-15267102D01*
X4495354Y-15267102D02*
X4514402Y-15257578D01*
X4514402Y-15257578D02*
X4562021Y-15257578D01*
X4562021Y-15257578D02*
X4581068Y-15267102D01*
X4581068Y-15267102D02*
X4590592Y-15276626D01*
X4590592Y-15276626D02*
X4600116Y-15295673D01*
X4600116Y-15295673D02*
X4600116Y-15314721D01*
X4600116Y-15314721D02*
X4590592Y-15343292D01*
X4590592Y-15343292D02*
X4476307Y-15457578D01*
X4476307Y-15457578D02*
X4600116Y-15457578D01*
X4771545Y-15257578D02*
X4733449Y-15257578D01*
X4733449Y-15257578D02*
X4714402Y-15267102D01*
X4714402Y-15267102D02*
X4704878Y-15276626D01*
X4704878Y-15276626D02*
X4685830Y-15305197D01*
X4685830Y-15305197D02*
X4676307Y-15343292D01*
X4676307Y-15343292D02*
X4676307Y-15419483D01*
X4676307Y-15419483D02*
X4685830Y-15438530D01*
X4685830Y-15438530D02*
X4695354Y-15448054D01*
X4695354Y-15448054D02*
X4714402Y-15457578D01*
X4714402Y-15457578D02*
X4752497Y-15457578D01*
X4752497Y-15457578D02*
X4771545Y-15448054D01*
X4771545Y-15448054D02*
X4781068Y-15438530D01*
X4781068Y-15438530D02*
X4790592Y-15419483D01*
X4790592Y-15419483D02*
X4790592Y-15371864D01*
X4790592Y-15371864D02*
X4781068Y-15352816D01*
X4781068Y-15352816D02*
X4771545Y-15343292D01*
X4771545Y-15343292D02*
X4752497Y-15333768D01*
X4752497Y-15333768D02*
X4714402Y-15333768D01*
X4714402Y-15333768D02*
X4695354Y-15343292D01*
X4695354Y-15343292D02*
X4685830Y-15352816D01*
X4685830Y-15352816D02*
X4676307Y-15371864D01*
X4914402Y-15257578D02*
X4933449Y-15257578D01*
X4933449Y-15257578D02*
X4952497Y-15267102D01*
X4952497Y-15267102D02*
X4962021Y-15276626D01*
X4962021Y-15276626D02*
X4971545Y-15295673D01*
X4971545Y-15295673D02*
X4981068Y-15333768D01*
X4981068Y-15333768D02*
X4981068Y-15381387D01*
X4981068Y-15381387D02*
X4971545Y-15419483D01*
X4971545Y-15419483D02*
X4962021Y-15438530D01*
X4962021Y-15438530D02*
X4952497Y-15448054D01*
X4952497Y-15448054D02*
X4933449Y-15457578D01*
X4933449Y-15457578D02*
X4914402Y-15457578D01*
X4914402Y-15457578D02*
X4895354Y-15448054D01*
X4895354Y-15448054D02*
X4885830Y-15438530D01*
X4885830Y-15438530D02*
X4876307Y-15419483D01*
X4876307Y-15419483D02*
X4866783Y-15381387D01*
X4866783Y-15381387D02*
X4866783Y-15333768D01*
X4866783Y-15333768D02*
X4876307Y-15295673D01*
X4876307Y-15295673D02*
X4885830Y-15276626D01*
X4885830Y-15276626D02*
X4895354Y-15267102D01*
X4895354Y-15267102D02*
X4914402Y-15257578D01*
X5057259Y-15257578D02*
X5057259Y-15295673D01*
X5133449Y-15257578D02*
X5133449Y-15295673D01*
X5428688Y-15533768D02*
X5419164Y-15524245D01*
X5419164Y-15524245D02*
X5400116Y-15495673D01*
X5400116Y-15495673D02*
X5390592Y-15476626D01*
X5390592Y-15476626D02*
X5381069Y-15448054D01*
X5381069Y-15448054D02*
X5371545Y-15400435D01*
X5371545Y-15400435D02*
X5371545Y-15362340D01*
X5371545Y-15362340D02*
X5381069Y-15314721D01*
X5381069Y-15314721D02*
X5390592Y-15286149D01*
X5390592Y-15286149D02*
X5400116Y-15267102D01*
X5400116Y-15267102D02*
X5419164Y-15238530D01*
X5419164Y-15238530D02*
X5428688Y-15229006D01*
X5590592Y-15324245D02*
X5590592Y-15457578D01*
X5542973Y-15248054D02*
X5495354Y-15390911D01*
X5495354Y-15390911D02*
X5619164Y-15390911D01*
X5847735Y-15457578D02*
X5847735Y-15257578D01*
X5933449Y-15457578D02*
X5933449Y-15352816D01*
X5933449Y-15352816D02*
X5923926Y-15333768D01*
X5923926Y-15333768D02*
X5904878Y-15324245D01*
X5904878Y-15324245D02*
X5876307Y-15324245D01*
X5876307Y-15324245D02*
X5857259Y-15333768D01*
X5857259Y-15333768D02*
X5847735Y-15343292D01*
X6057259Y-15457578D02*
X6038211Y-15448054D01*
X6038211Y-15448054D02*
X6028688Y-15438530D01*
X6028688Y-15438530D02*
X6019164Y-15419483D01*
X6019164Y-15419483D02*
X6019164Y-15362340D01*
X6019164Y-15362340D02*
X6028688Y-15343292D01*
X6028688Y-15343292D02*
X6038211Y-15333768D01*
X6038211Y-15333768D02*
X6057259Y-15324245D01*
X6057259Y-15324245D02*
X6085830Y-15324245D01*
X6085830Y-15324245D02*
X6104878Y-15333768D01*
X6104878Y-15333768D02*
X6114402Y-15343292D01*
X6114402Y-15343292D02*
X6123926Y-15362340D01*
X6123926Y-15362340D02*
X6123926Y-15419483D01*
X6123926Y-15419483D02*
X6114402Y-15438530D01*
X6114402Y-15438530D02*
X6104878Y-15448054D01*
X6104878Y-15448054D02*
X6085830Y-15457578D01*
X6085830Y-15457578D02*
X6057259Y-15457578D01*
X6238211Y-15457578D02*
X6219164Y-15448054D01*
X6219164Y-15448054D02*
X6209640Y-15429006D01*
X6209640Y-15429006D02*
X6209640Y-15257578D01*
X6390592Y-15448054D02*
X6371545Y-15457578D01*
X6371545Y-15457578D02*
X6333449Y-15457578D01*
X6333449Y-15457578D02*
X6314402Y-15448054D01*
X6314402Y-15448054D02*
X6304878Y-15429006D01*
X6304878Y-15429006D02*
X6304878Y-15352816D01*
X6304878Y-15352816D02*
X6314402Y-15333768D01*
X6314402Y-15333768D02*
X6333449Y-15324245D01*
X6333449Y-15324245D02*
X6371545Y-15324245D01*
X6371545Y-15324245D02*
X6390592Y-15333768D01*
X6390592Y-15333768D02*
X6400116Y-15352816D01*
X6400116Y-15352816D02*
X6400116Y-15371864D01*
X6400116Y-15371864D02*
X6304878Y-15390911D01*
X6476307Y-15448054D02*
X6495354Y-15457578D01*
X6495354Y-15457578D02*
X6533449Y-15457578D01*
X6533449Y-15457578D02*
X6552497Y-15448054D01*
X6552497Y-15448054D02*
X6562021Y-15429006D01*
X6562021Y-15429006D02*
X6562021Y-15419483D01*
X6562021Y-15419483D02*
X6552497Y-15400435D01*
X6552497Y-15400435D02*
X6533449Y-15390911D01*
X6533449Y-15390911D02*
X6504878Y-15390911D01*
X6504878Y-15390911D02*
X6485830Y-15381387D01*
X6485830Y-15381387D02*
X6476307Y-15362340D01*
X6476307Y-15362340D02*
X6476307Y-15352816D01*
X6476307Y-15352816D02*
X6485830Y-15333768D01*
X6485830Y-15333768D02*
X6504878Y-15324245D01*
X6504878Y-15324245D02*
X6533449Y-15324245D01*
X6533449Y-15324245D02*
X6552497Y-15333768D01*
X6628688Y-15533768D02*
X6638211Y-15524245D01*
X6638211Y-15524245D02*
X6657259Y-15495673D01*
X6657259Y-15495673D02*
X6666783Y-15476626D01*
X6666783Y-15476626D02*
X6676307Y-15448054D01*
X6676307Y-15448054D02*
X6685830Y-15400435D01*
X6685830Y-15400435D02*
X6685830Y-15362340D01*
X6685830Y-15362340D02*
X6676307Y-15314721D01*
X6676307Y-15314721D02*
X6666783Y-15286149D01*
X6666783Y-15286149D02*
X6657259Y-15267102D01*
X6657259Y-15267102D02*
X6638211Y-15238530D01*
X6638211Y-15238530D02*
X6628688Y-15229006D01*
X6990592Y-15533768D02*
X6981069Y-15524245D01*
X6981069Y-15524245D02*
X6962021Y-15495673D01*
X6962021Y-15495673D02*
X6952497Y-15476626D01*
X6952497Y-15476626D02*
X6942973Y-15448054D01*
X6942973Y-15448054D02*
X6933450Y-15400435D01*
X6933450Y-15400435D02*
X6933450Y-15362340D01*
X6933450Y-15362340D02*
X6942973Y-15314721D01*
X6942973Y-15314721D02*
X6952497Y-15286149D01*
X6952497Y-15286149D02*
X6962021Y-15267102D01*
X6962021Y-15267102D02*
X6981069Y-15238530D01*
X6981069Y-15238530D02*
X6990592Y-15229006D01*
X7066783Y-15324245D02*
X7066783Y-15457578D01*
X7066783Y-15343292D02*
X7076307Y-15333768D01*
X7076307Y-15333768D02*
X7095354Y-15324245D01*
X7095354Y-15324245D02*
X7123926Y-15324245D01*
X7123926Y-15324245D02*
X7142973Y-15333768D01*
X7142973Y-15333768D02*
X7152497Y-15352816D01*
X7152497Y-15352816D02*
X7152497Y-15457578D01*
X7276307Y-15457578D02*
X7257259Y-15448054D01*
X7257259Y-15448054D02*
X7247735Y-15438530D01*
X7247735Y-15438530D02*
X7238211Y-15419483D01*
X7238211Y-15419483D02*
X7238211Y-15362340D01*
X7238211Y-15362340D02*
X7247735Y-15343292D01*
X7247735Y-15343292D02*
X7257259Y-15333768D01*
X7257259Y-15333768D02*
X7276307Y-15324245D01*
X7276307Y-15324245D02*
X7304878Y-15324245D01*
X7304878Y-15324245D02*
X7323926Y-15333768D01*
X7323926Y-15333768D02*
X7333450Y-15343292D01*
X7333450Y-15343292D02*
X7342973Y-15362340D01*
X7342973Y-15362340D02*
X7342973Y-15419483D01*
X7342973Y-15419483D02*
X7333450Y-15438530D01*
X7333450Y-15438530D02*
X7323926Y-15448054D01*
X7323926Y-15448054D02*
X7304878Y-15457578D01*
X7304878Y-15457578D02*
X7276307Y-15457578D01*
X7400116Y-15324245D02*
X7476307Y-15324245D01*
X7428688Y-15257578D02*
X7428688Y-15429006D01*
X7428688Y-15429006D02*
X7438211Y-15448054D01*
X7438211Y-15448054D02*
X7457259Y-15457578D01*
X7457259Y-15457578D02*
X7476307Y-15457578D01*
X7695354Y-15324245D02*
X7695354Y-15524245D01*
X7695354Y-15333768D02*
X7714402Y-15324245D01*
X7714402Y-15324245D02*
X7752497Y-15324245D01*
X7752497Y-15324245D02*
X7771545Y-15333768D01*
X7771545Y-15333768D02*
X7781069Y-15343292D01*
X7781069Y-15343292D02*
X7790592Y-15362340D01*
X7790592Y-15362340D02*
X7790592Y-15419483D01*
X7790592Y-15419483D02*
X7781069Y-15438530D01*
X7781069Y-15438530D02*
X7771545Y-15448054D01*
X7771545Y-15448054D02*
X7752497Y-15457578D01*
X7752497Y-15457578D02*
X7714402Y-15457578D01*
X7714402Y-15457578D02*
X7695354Y-15448054D01*
X7904878Y-15457578D02*
X7885831Y-15448054D01*
X7885831Y-15448054D02*
X7876307Y-15429006D01*
X7876307Y-15429006D02*
X7876307Y-15257578D01*
X8066783Y-15457578D02*
X8066783Y-15352816D01*
X8066783Y-15352816D02*
X8057259Y-15333768D01*
X8057259Y-15333768D02*
X8038212Y-15324245D01*
X8038212Y-15324245D02*
X8000116Y-15324245D01*
X8000116Y-15324245D02*
X7981069Y-15333768D01*
X8066783Y-15448054D02*
X8047735Y-15457578D01*
X8047735Y-15457578D02*
X8000116Y-15457578D01*
X8000116Y-15457578D02*
X7981069Y-15448054D01*
X7981069Y-15448054D02*
X7971545Y-15429006D01*
X7971545Y-15429006D02*
X7971545Y-15409959D01*
X7971545Y-15409959D02*
X7981069Y-15390911D01*
X7981069Y-15390911D02*
X8000116Y-15381387D01*
X8000116Y-15381387D02*
X8047735Y-15381387D01*
X8047735Y-15381387D02*
X8066783Y-15371864D01*
X8133450Y-15324245D02*
X8209640Y-15324245D01*
X8162021Y-15257578D02*
X8162021Y-15429006D01*
X8162021Y-15429006D02*
X8171545Y-15448054D01*
X8171545Y-15448054D02*
X8190592Y-15457578D01*
X8190592Y-15457578D02*
X8209640Y-15457578D01*
X8352497Y-15448054D02*
X8333450Y-15457578D01*
X8333450Y-15457578D02*
X8295354Y-15457578D01*
X8295354Y-15457578D02*
X8276307Y-15448054D01*
X8276307Y-15448054D02*
X8266783Y-15429006D01*
X8266783Y-15429006D02*
X8266783Y-15352816D01*
X8266783Y-15352816D02*
X8276307Y-15333768D01*
X8276307Y-15333768D02*
X8295354Y-15324245D01*
X8295354Y-15324245D02*
X8333450Y-15324245D01*
X8333450Y-15324245D02*
X8352497Y-15333768D01*
X8352497Y-15333768D02*
X8362021Y-15352816D01*
X8362021Y-15352816D02*
X8362021Y-15371864D01*
X8362021Y-15371864D02*
X8266783Y-15390911D01*
X8533450Y-15457578D02*
X8533450Y-15257578D01*
X8533450Y-15448054D02*
X8514402Y-15457578D01*
X8514402Y-15457578D02*
X8476307Y-15457578D01*
X8476307Y-15457578D02*
X8457259Y-15448054D01*
X8457259Y-15448054D02*
X8447735Y-15438530D01*
X8447735Y-15438530D02*
X8438212Y-15419483D01*
X8438212Y-15419483D02*
X8438212Y-15362340D01*
X8438212Y-15362340D02*
X8447735Y-15343292D01*
X8447735Y-15343292D02*
X8457259Y-15333768D01*
X8457259Y-15333768D02*
X8476307Y-15324245D01*
X8476307Y-15324245D02*
X8514402Y-15324245D01*
X8514402Y-15324245D02*
X8533450Y-15333768D01*
X8609640Y-15533768D02*
X8619164Y-15524245D01*
X8619164Y-15524245D02*
X8638212Y-15495673D01*
X8638212Y-15495673D02*
X8647735Y-15476626D01*
X8647735Y-15476626D02*
X8657259Y-15448054D01*
X8657259Y-15448054D02*
X8666783Y-15400435D01*
X8666783Y-15400435D02*
X8666783Y-15362340D01*
X8666783Y-15362340D02*
X8657259Y-15314721D01*
X8657259Y-15314721D02*
X8647735Y-15286149D01*
X8647735Y-15286149D02*
X8638212Y-15267102D01*
X8638212Y-15267102D02*
X8619164Y-15238530D01*
X8619164Y-15238530D02*
X8609640Y-15229006D01*
X1853625Y-15686094D02*
G75*
G03*
X1853625Y-15686094I-100000J0D01*
G01*
X2200116Y-15577578D02*
X2162021Y-15577578D01*
X2162021Y-15577578D02*
X2142973Y-15587102D01*
X2142973Y-15587102D02*
X2133449Y-15596626D01*
X2133449Y-15596626D02*
X2114402Y-15625197D01*
X2114402Y-15625197D02*
X2104878Y-15663292D01*
X2104878Y-15663292D02*
X2104878Y-15739483D01*
X2104878Y-15739483D02*
X2114402Y-15758530D01*
X2114402Y-15758530D02*
X2123925Y-15768054D01*
X2123925Y-15768054D02*
X2142973Y-15777578D01*
X2142973Y-15777578D02*
X2181068Y-15777578D01*
X2181068Y-15777578D02*
X2200116Y-15768054D01*
X2200116Y-15768054D02*
X2209640Y-15758530D01*
X2209640Y-15758530D02*
X2219163Y-15739483D01*
X2219163Y-15739483D02*
X2219163Y-15691864D01*
X2219163Y-15691864D02*
X2209640Y-15672816D01*
X2209640Y-15672816D02*
X2200116Y-15663292D01*
X2200116Y-15663292D02*
X2181068Y-15653768D01*
X2181068Y-15653768D02*
X2142973Y-15653768D01*
X2142973Y-15653768D02*
X2123925Y-15663292D01*
X2123925Y-15663292D02*
X2114402Y-15672816D01*
X2114402Y-15672816D02*
X2104878Y-15691864D01*
X2304878Y-15758530D02*
X2314402Y-15768054D01*
X2314402Y-15768054D02*
X2304878Y-15777578D01*
X2304878Y-15777578D02*
X2295354Y-15768054D01*
X2295354Y-15768054D02*
X2304878Y-15758530D01*
X2304878Y-15758530D02*
X2304878Y-15777578D01*
X2485830Y-15644245D02*
X2485830Y-15777578D01*
X2438211Y-15568054D02*
X2390592Y-15710911D01*
X2390592Y-15710911D02*
X2514402Y-15710911D01*
X2628687Y-15577578D02*
X2647735Y-15577578D01*
X2647735Y-15577578D02*
X2666783Y-15587102D01*
X2666783Y-15587102D02*
X2676306Y-15596626D01*
X2676306Y-15596626D02*
X2685830Y-15615673D01*
X2685830Y-15615673D02*
X2695354Y-15653768D01*
X2695354Y-15653768D02*
X2695354Y-15701387D01*
X2695354Y-15701387D02*
X2685830Y-15739483D01*
X2685830Y-15739483D02*
X2676306Y-15758530D01*
X2676306Y-15758530D02*
X2666783Y-15768054D01*
X2666783Y-15768054D02*
X2647735Y-15777578D01*
X2647735Y-15777578D02*
X2628687Y-15777578D01*
X2628687Y-15777578D02*
X2609640Y-15768054D01*
X2609640Y-15768054D02*
X2600116Y-15758530D01*
X2600116Y-15758530D02*
X2590592Y-15739483D01*
X2590592Y-15739483D02*
X2581068Y-15701387D01*
X2581068Y-15701387D02*
X2581068Y-15653768D01*
X2581068Y-15653768D02*
X2590592Y-15615673D01*
X2590592Y-15615673D02*
X2600116Y-15596626D01*
X2600116Y-15596626D02*
X2609640Y-15587102D01*
X2609640Y-15587102D02*
X2628687Y-15577578D01*
X2819163Y-15577578D02*
X2838211Y-15577578D01*
X2838211Y-15577578D02*
X2857259Y-15587102D01*
X2857259Y-15587102D02*
X2866782Y-15596626D01*
X2866782Y-15596626D02*
X2876306Y-15615673D01*
X2876306Y-15615673D02*
X2885830Y-15653768D01*
X2885830Y-15653768D02*
X2885830Y-15701387D01*
X2885830Y-15701387D02*
X2876306Y-15739483D01*
X2876306Y-15739483D02*
X2866782Y-15758530D01*
X2866782Y-15758530D02*
X2857259Y-15768054D01*
X2857259Y-15768054D02*
X2838211Y-15777578D01*
X2838211Y-15777578D02*
X2819163Y-15777578D01*
X2819163Y-15777578D02*
X2800116Y-15768054D01*
X2800116Y-15768054D02*
X2790592Y-15758530D01*
X2790592Y-15758530D02*
X2781068Y-15739483D01*
X2781068Y-15739483D02*
X2771544Y-15701387D01*
X2771544Y-15701387D02*
X2771544Y-15653768D01*
X2771544Y-15653768D02*
X2781068Y-15615673D01*
X2781068Y-15615673D02*
X2790592Y-15596626D01*
X2790592Y-15596626D02*
X2800116Y-15587102D01*
X2800116Y-15587102D02*
X2819163Y-15577578D01*
X2971544Y-15777578D02*
X2971544Y-15644245D01*
X2971544Y-15663292D02*
X2981068Y-15653768D01*
X2981068Y-15653768D02*
X3000116Y-15644245D01*
X3000116Y-15644245D02*
X3028687Y-15644245D01*
X3028687Y-15644245D02*
X3047735Y-15653768D01*
X3047735Y-15653768D02*
X3057259Y-15672816D01*
X3057259Y-15672816D02*
X3057259Y-15777578D01*
X3057259Y-15672816D02*
X3066782Y-15653768D01*
X3066782Y-15653768D02*
X3085830Y-15644245D01*
X3085830Y-15644245D02*
X3114401Y-15644245D01*
X3114401Y-15644245D02*
X3133449Y-15653768D01*
X3133449Y-15653768D02*
X3142973Y-15672816D01*
X3142973Y-15672816D02*
X3142973Y-15777578D01*
X3238211Y-15777578D02*
X3238211Y-15644245D01*
X3238211Y-15663292D02*
X3247735Y-15653768D01*
X3247735Y-15653768D02*
X3266782Y-15644245D01*
X3266782Y-15644245D02*
X3295354Y-15644245D01*
X3295354Y-15644245D02*
X3314402Y-15653768D01*
X3314402Y-15653768D02*
X3323925Y-15672816D01*
X3323925Y-15672816D02*
X3323925Y-15777578D01*
X3323925Y-15672816D02*
X3333449Y-15653768D01*
X3333449Y-15653768D02*
X3352497Y-15644245D01*
X3352497Y-15644245D02*
X3381068Y-15644245D01*
X3381068Y-15644245D02*
X3400116Y-15653768D01*
X3400116Y-15653768D02*
X3409640Y-15672816D01*
X3409640Y-15672816D02*
X3409640Y-15777578D01*
X3800116Y-15568054D02*
X3628687Y-15825197D01*
X4057259Y-15577578D02*
X4076306Y-15577578D01*
X4076306Y-15577578D02*
X4095354Y-15587102D01*
X4095354Y-15587102D02*
X4104878Y-15596626D01*
X4104878Y-15596626D02*
X4114402Y-15615673D01*
X4114402Y-15615673D02*
X4123925Y-15653768D01*
X4123925Y-15653768D02*
X4123925Y-15701387D01*
X4123925Y-15701387D02*
X4114402Y-15739483D01*
X4114402Y-15739483D02*
X4104878Y-15758530D01*
X4104878Y-15758530D02*
X4095354Y-15768054D01*
X4095354Y-15768054D02*
X4076306Y-15777578D01*
X4076306Y-15777578D02*
X4057259Y-15777578D01*
X4057259Y-15777578D02*
X4038211Y-15768054D01*
X4038211Y-15768054D02*
X4028687Y-15758530D01*
X4028687Y-15758530D02*
X4019164Y-15739483D01*
X4019164Y-15739483D02*
X4009640Y-15701387D01*
X4009640Y-15701387D02*
X4009640Y-15653768D01*
X4009640Y-15653768D02*
X4019164Y-15615673D01*
X4019164Y-15615673D02*
X4028687Y-15596626D01*
X4028687Y-15596626D02*
X4038211Y-15587102D01*
X4038211Y-15587102D02*
X4057259Y-15577578D01*
X4209640Y-15758530D02*
X4219164Y-15768054D01*
X4219164Y-15768054D02*
X4209640Y-15777578D01*
X4209640Y-15777578D02*
X4200116Y-15768054D01*
X4200116Y-15768054D02*
X4209640Y-15758530D01*
X4209640Y-15758530D02*
X4209640Y-15777578D01*
X4295354Y-15596626D02*
X4304878Y-15587102D01*
X4304878Y-15587102D02*
X4323926Y-15577578D01*
X4323926Y-15577578D02*
X4371545Y-15577578D01*
X4371545Y-15577578D02*
X4390592Y-15587102D01*
X4390592Y-15587102D02*
X4400116Y-15596626D01*
X4400116Y-15596626D02*
X4409640Y-15615673D01*
X4409640Y-15615673D02*
X4409640Y-15634721D01*
X4409640Y-15634721D02*
X4400116Y-15663292D01*
X4400116Y-15663292D02*
X4285830Y-15777578D01*
X4285830Y-15777578D02*
X4409640Y-15777578D01*
X4590592Y-15577578D02*
X4495354Y-15577578D01*
X4495354Y-15577578D02*
X4485830Y-15672816D01*
X4485830Y-15672816D02*
X4495354Y-15663292D01*
X4495354Y-15663292D02*
X4514402Y-15653768D01*
X4514402Y-15653768D02*
X4562021Y-15653768D01*
X4562021Y-15653768D02*
X4581068Y-15663292D01*
X4581068Y-15663292D02*
X4590592Y-15672816D01*
X4590592Y-15672816D02*
X4600116Y-15691864D01*
X4600116Y-15691864D02*
X4600116Y-15739483D01*
X4600116Y-15739483D02*
X4590592Y-15758530D01*
X4590592Y-15758530D02*
X4581068Y-15768054D01*
X4581068Y-15768054D02*
X4562021Y-15777578D01*
X4562021Y-15777578D02*
X4514402Y-15777578D01*
X4514402Y-15777578D02*
X4495354Y-15768054D01*
X4495354Y-15768054D02*
X4485830Y-15758530D01*
X4676307Y-15596626D02*
X4685830Y-15587102D01*
X4685830Y-15587102D02*
X4704878Y-15577578D01*
X4704878Y-15577578D02*
X4752497Y-15577578D01*
X4752497Y-15577578D02*
X4771545Y-15587102D01*
X4771545Y-15587102D02*
X4781068Y-15596626D01*
X4781068Y-15596626D02*
X4790592Y-15615673D01*
X4790592Y-15615673D02*
X4790592Y-15634721D01*
X4790592Y-15634721D02*
X4781068Y-15663292D01*
X4781068Y-15663292D02*
X4666783Y-15777578D01*
X4666783Y-15777578D02*
X4790592Y-15777578D01*
X4914402Y-15577578D02*
X4933449Y-15577578D01*
X4933449Y-15577578D02*
X4952497Y-15587102D01*
X4952497Y-15587102D02*
X4962021Y-15596626D01*
X4962021Y-15596626D02*
X4971545Y-15615673D01*
X4971545Y-15615673D02*
X4981068Y-15653768D01*
X4981068Y-15653768D02*
X4981068Y-15701387D01*
X4981068Y-15701387D02*
X4971545Y-15739483D01*
X4971545Y-15739483D02*
X4962021Y-15758530D01*
X4962021Y-15758530D02*
X4952497Y-15768054D01*
X4952497Y-15768054D02*
X4933449Y-15777578D01*
X4933449Y-15777578D02*
X4914402Y-15777578D01*
X4914402Y-15777578D02*
X4895354Y-15768054D01*
X4895354Y-15768054D02*
X4885830Y-15758530D01*
X4885830Y-15758530D02*
X4876307Y-15739483D01*
X4876307Y-15739483D02*
X4866783Y-15701387D01*
X4866783Y-15701387D02*
X4866783Y-15653768D01*
X4866783Y-15653768D02*
X4876307Y-15615673D01*
X4876307Y-15615673D02*
X4885830Y-15596626D01*
X4885830Y-15596626D02*
X4895354Y-15587102D01*
X4895354Y-15587102D02*
X4914402Y-15577578D01*
X5057259Y-15577578D02*
X5057259Y-15615673D01*
X5133449Y-15577578D02*
X5133449Y-15615673D01*
X5428688Y-15853768D02*
X5419164Y-15844245D01*
X5419164Y-15844245D02*
X5400116Y-15815673D01*
X5400116Y-15815673D02*
X5390592Y-15796626D01*
X5390592Y-15796626D02*
X5381069Y-15768054D01*
X5381069Y-15768054D02*
X5371545Y-15720435D01*
X5371545Y-15720435D02*
X5371545Y-15682340D01*
X5371545Y-15682340D02*
X5381069Y-15634721D01*
X5381069Y-15634721D02*
X5390592Y-15606149D01*
X5390592Y-15606149D02*
X5400116Y-15587102D01*
X5400116Y-15587102D02*
X5419164Y-15558530D01*
X5419164Y-15558530D02*
X5428688Y-15549006D01*
X5609640Y-15777578D02*
X5495354Y-15777578D01*
X5552497Y-15777578D02*
X5552497Y-15577578D01*
X5552497Y-15577578D02*
X5533449Y-15606149D01*
X5533449Y-15606149D02*
X5514402Y-15625197D01*
X5514402Y-15625197D02*
X5495354Y-15634721D01*
X5781068Y-15577578D02*
X5742973Y-15577578D01*
X5742973Y-15577578D02*
X5723926Y-15587102D01*
X5723926Y-15587102D02*
X5714402Y-15596626D01*
X5714402Y-15596626D02*
X5695354Y-15625197D01*
X5695354Y-15625197D02*
X5685830Y-15663292D01*
X5685830Y-15663292D02*
X5685830Y-15739483D01*
X5685830Y-15739483D02*
X5695354Y-15758530D01*
X5695354Y-15758530D02*
X5704878Y-15768054D01*
X5704878Y-15768054D02*
X5723926Y-15777578D01*
X5723926Y-15777578D02*
X5762021Y-15777578D01*
X5762021Y-15777578D02*
X5781068Y-15768054D01*
X5781068Y-15768054D02*
X5790592Y-15758530D01*
X5790592Y-15758530D02*
X5800116Y-15739483D01*
X5800116Y-15739483D02*
X5800116Y-15691864D01*
X5800116Y-15691864D02*
X5790592Y-15672816D01*
X5790592Y-15672816D02*
X5781068Y-15663292D01*
X5781068Y-15663292D02*
X5762021Y-15653768D01*
X5762021Y-15653768D02*
X5723926Y-15653768D01*
X5723926Y-15653768D02*
X5704878Y-15663292D01*
X5704878Y-15663292D02*
X5695354Y-15672816D01*
X5695354Y-15672816D02*
X5685830Y-15691864D01*
X6038211Y-15777578D02*
X6038211Y-15577578D01*
X6123926Y-15777578D02*
X6123926Y-15672816D01*
X6123926Y-15672816D02*
X6114402Y-15653768D01*
X6114402Y-15653768D02*
X6095354Y-15644245D01*
X6095354Y-15644245D02*
X6066783Y-15644245D01*
X6066783Y-15644245D02*
X6047735Y-15653768D01*
X6047735Y-15653768D02*
X6038211Y-15663292D01*
X6247735Y-15777578D02*
X6228688Y-15768054D01*
X6228688Y-15768054D02*
X6219164Y-15758530D01*
X6219164Y-15758530D02*
X6209640Y-15739483D01*
X6209640Y-15739483D02*
X6209640Y-15682340D01*
X6209640Y-15682340D02*
X6219164Y-15663292D01*
X6219164Y-15663292D02*
X6228688Y-15653768D01*
X6228688Y-15653768D02*
X6247735Y-15644245D01*
X6247735Y-15644245D02*
X6276307Y-15644245D01*
X6276307Y-15644245D02*
X6295354Y-15653768D01*
X6295354Y-15653768D02*
X6304878Y-15663292D01*
X6304878Y-15663292D02*
X6314402Y-15682340D01*
X6314402Y-15682340D02*
X6314402Y-15739483D01*
X6314402Y-15739483D02*
X6304878Y-15758530D01*
X6304878Y-15758530D02*
X6295354Y-15768054D01*
X6295354Y-15768054D02*
X6276307Y-15777578D01*
X6276307Y-15777578D02*
X6247735Y-15777578D01*
X6428688Y-15777578D02*
X6409640Y-15768054D01*
X6409640Y-15768054D02*
X6400116Y-15749006D01*
X6400116Y-15749006D02*
X6400116Y-15577578D01*
X6581069Y-15768054D02*
X6562021Y-15777578D01*
X6562021Y-15777578D02*
X6523926Y-15777578D01*
X6523926Y-15777578D02*
X6504878Y-15768054D01*
X6504878Y-15768054D02*
X6495354Y-15749006D01*
X6495354Y-15749006D02*
X6495354Y-15672816D01*
X6495354Y-15672816D02*
X6504878Y-15653768D01*
X6504878Y-15653768D02*
X6523926Y-15644245D01*
X6523926Y-15644245D02*
X6562021Y-15644245D01*
X6562021Y-15644245D02*
X6581069Y-15653768D01*
X6581069Y-15653768D02*
X6590592Y-15672816D01*
X6590592Y-15672816D02*
X6590592Y-15691864D01*
X6590592Y-15691864D02*
X6495354Y-15710911D01*
X6666783Y-15768054D02*
X6685830Y-15777578D01*
X6685830Y-15777578D02*
X6723926Y-15777578D01*
X6723926Y-15777578D02*
X6742973Y-15768054D01*
X6742973Y-15768054D02*
X6752497Y-15749006D01*
X6752497Y-15749006D02*
X6752497Y-15739483D01*
X6752497Y-15739483D02*
X6742973Y-15720435D01*
X6742973Y-15720435D02*
X6723926Y-15710911D01*
X6723926Y-15710911D02*
X6695354Y-15710911D01*
X6695354Y-15710911D02*
X6676307Y-15701387D01*
X6676307Y-15701387D02*
X6666783Y-15682340D01*
X6666783Y-15682340D02*
X6666783Y-15672816D01*
X6666783Y-15672816D02*
X6676307Y-15653768D01*
X6676307Y-15653768D02*
X6695354Y-15644245D01*
X6695354Y-15644245D02*
X6723926Y-15644245D01*
X6723926Y-15644245D02*
X6742973Y-15653768D01*
X6819164Y-15853768D02*
X6828688Y-15844245D01*
X6828688Y-15844245D02*
X6847735Y-15815673D01*
X6847735Y-15815673D02*
X6857259Y-15796626D01*
X6857259Y-15796626D02*
X6866783Y-15768054D01*
X6866783Y-15768054D02*
X6876307Y-15720435D01*
X6876307Y-15720435D02*
X6876307Y-15682340D01*
X6876307Y-15682340D02*
X6866783Y-15634721D01*
X6866783Y-15634721D02*
X6857259Y-15606149D01*
X6857259Y-15606149D02*
X6847735Y-15587102D01*
X6847735Y-15587102D02*
X6828688Y-15558530D01*
X6828688Y-15558530D02*
X6819164Y-15549006D01*
X7181069Y-15853768D02*
X7171545Y-15844245D01*
X7171545Y-15844245D02*
X7152497Y-15815673D01*
X7152497Y-15815673D02*
X7142973Y-15796626D01*
X7142973Y-15796626D02*
X7133450Y-15768054D01*
X7133450Y-15768054D02*
X7123926Y-15720435D01*
X7123926Y-15720435D02*
X7123926Y-15682340D01*
X7123926Y-15682340D02*
X7133450Y-15634721D01*
X7133450Y-15634721D02*
X7142973Y-15606149D01*
X7142973Y-15606149D02*
X7152497Y-15587102D01*
X7152497Y-15587102D02*
X7171545Y-15558530D01*
X7171545Y-15558530D02*
X7181069Y-15549006D01*
X7257259Y-15644245D02*
X7257259Y-15777578D01*
X7257259Y-15663292D02*
X7266783Y-15653768D01*
X7266783Y-15653768D02*
X7285830Y-15644245D01*
X7285830Y-15644245D02*
X7314402Y-15644245D01*
X7314402Y-15644245D02*
X7333450Y-15653768D01*
X7333450Y-15653768D02*
X7342973Y-15672816D01*
X7342973Y-15672816D02*
X7342973Y-15777578D01*
X7466783Y-15777578D02*
X7447735Y-15768054D01*
X7447735Y-15768054D02*
X7438211Y-15758530D01*
X7438211Y-15758530D02*
X7428688Y-15739483D01*
X7428688Y-15739483D02*
X7428688Y-15682340D01*
X7428688Y-15682340D02*
X7438211Y-15663292D01*
X7438211Y-15663292D02*
X7447735Y-15653768D01*
X7447735Y-15653768D02*
X7466783Y-15644245D01*
X7466783Y-15644245D02*
X7495354Y-15644245D01*
X7495354Y-15644245D02*
X7514402Y-15653768D01*
X7514402Y-15653768D02*
X7523926Y-15663292D01*
X7523926Y-15663292D02*
X7533450Y-15682340D01*
X7533450Y-15682340D02*
X7533450Y-15739483D01*
X7533450Y-15739483D02*
X7523926Y-15758530D01*
X7523926Y-15758530D02*
X7514402Y-15768054D01*
X7514402Y-15768054D02*
X7495354Y-15777578D01*
X7495354Y-15777578D02*
X7466783Y-15777578D01*
X7590592Y-15644245D02*
X7666783Y-15644245D01*
X7619164Y-15577578D02*
X7619164Y-15749006D01*
X7619164Y-15749006D02*
X7628688Y-15768054D01*
X7628688Y-15768054D02*
X7647735Y-15777578D01*
X7647735Y-15777578D02*
X7666783Y-15777578D01*
X7885831Y-15644245D02*
X7885831Y-15844245D01*
X7885831Y-15653768D02*
X7904878Y-15644245D01*
X7904878Y-15644245D02*
X7942973Y-15644245D01*
X7942973Y-15644245D02*
X7962021Y-15653768D01*
X7962021Y-15653768D02*
X7971545Y-15663292D01*
X7971545Y-15663292D02*
X7981069Y-15682340D01*
X7981069Y-15682340D02*
X7981069Y-15739483D01*
X7981069Y-15739483D02*
X7971545Y-15758530D01*
X7971545Y-15758530D02*
X7962021Y-15768054D01*
X7962021Y-15768054D02*
X7942973Y-15777578D01*
X7942973Y-15777578D02*
X7904878Y-15777578D01*
X7904878Y-15777578D02*
X7885831Y-15768054D01*
X8095354Y-15777578D02*
X8076307Y-15768054D01*
X8076307Y-15768054D02*
X8066783Y-15749006D01*
X8066783Y-15749006D02*
X8066783Y-15577578D01*
X8257259Y-15777578D02*
X8257259Y-15672816D01*
X8257259Y-15672816D02*
X8247735Y-15653768D01*
X8247735Y-15653768D02*
X8228688Y-15644245D01*
X8228688Y-15644245D02*
X8190592Y-15644245D01*
X8190592Y-15644245D02*
X8171545Y-15653768D01*
X8257259Y-15768054D02*
X8238212Y-15777578D01*
X8238212Y-15777578D02*
X8190592Y-15777578D01*
X8190592Y-15777578D02*
X8171545Y-15768054D01*
X8171545Y-15768054D02*
X8162021Y-15749006D01*
X8162021Y-15749006D02*
X8162021Y-15729959D01*
X8162021Y-15729959D02*
X8171545Y-15710911D01*
X8171545Y-15710911D02*
X8190592Y-15701387D01*
X8190592Y-15701387D02*
X8238212Y-15701387D01*
X8238212Y-15701387D02*
X8257259Y-15691864D01*
X8323926Y-15644245D02*
X8400116Y-15644245D01*
X8352497Y-15577578D02*
X8352497Y-15749006D01*
X8352497Y-15749006D02*
X8362021Y-15768054D01*
X8362021Y-15768054D02*
X8381069Y-15777578D01*
X8381069Y-15777578D02*
X8400116Y-15777578D01*
X8542974Y-15768054D02*
X8523926Y-15777578D01*
X8523926Y-15777578D02*
X8485831Y-15777578D01*
X8485831Y-15777578D02*
X8466783Y-15768054D01*
X8466783Y-15768054D02*
X8457259Y-15749006D01*
X8457259Y-15749006D02*
X8457259Y-15672816D01*
X8457259Y-15672816D02*
X8466783Y-15653768D01*
X8466783Y-15653768D02*
X8485831Y-15644245D01*
X8485831Y-15644245D02*
X8523926Y-15644245D01*
X8523926Y-15644245D02*
X8542974Y-15653768D01*
X8542974Y-15653768D02*
X8552497Y-15672816D01*
X8552497Y-15672816D02*
X8552497Y-15691864D01*
X8552497Y-15691864D02*
X8457259Y-15710911D01*
X8723926Y-15777578D02*
X8723926Y-15577578D01*
X8723926Y-15768054D02*
X8704878Y-15777578D01*
X8704878Y-15777578D02*
X8666783Y-15777578D01*
X8666783Y-15777578D02*
X8647735Y-15768054D01*
X8647735Y-15768054D02*
X8638212Y-15758530D01*
X8638212Y-15758530D02*
X8628688Y-15739483D01*
X8628688Y-15739483D02*
X8628688Y-15682340D01*
X8628688Y-15682340D02*
X8638212Y-15663292D01*
X8638212Y-15663292D02*
X8647735Y-15653768D01*
X8647735Y-15653768D02*
X8666783Y-15644245D01*
X8666783Y-15644245D02*
X8704878Y-15644245D01*
X8704878Y-15644245D02*
X8723926Y-15653768D01*
X8800116Y-15853768D02*
X8809640Y-15844245D01*
X8809640Y-15844245D02*
X8828688Y-15815673D01*
X8828688Y-15815673D02*
X8838212Y-15796626D01*
X8838212Y-15796626D02*
X8847735Y-15768054D01*
X8847735Y-15768054D02*
X8857259Y-15720435D01*
X8857259Y-15720435D02*
X8857259Y-15682340D01*
X8857259Y-15682340D02*
X8847735Y-15634721D01*
X8847735Y-15634721D02*
X8838212Y-15606149D01*
X8838212Y-15606149D02*
X8828688Y-15587102D01*
X8828688Y-15587102D02*
X8809640Y-15558530D01*
X8809640Y-15558530D02*
X8800116Y-15549006D01*
X1753625Y-15906094D02*
X1753625Y-16106094D01*
X1653625Y-16006094D02*
X1853625Y-16006094D01*
X2200116Y-15897578D02*
X2162021Y-15897578D01*
X2162021Y-15897578D02*
X2142973Y-15907102D01*
X2142973Y-15907102D02*
X2133449Y-15916626D01*
X2133449Y-15916626D02*
X2114402Y-15945197D01*
X2114402Y-15945197D02*
X2104878Y-15983292D01*
X2104878Y-15983292D02*
X2104878Y-16059483D01*
X2104878Y-16059483D02*
X2114402Y-16078530D01*
X2114402Y-16078530D02*
X2123925Y-16088054D01*
X2123925Y-16088054D02*
X2142973Y-16097578D01*
X2142973Y-16097578D02*
X2181068Y-16097578D01*
X2181068Y-16097578D02*
X2200116Y-16088054D01*
X2200116Y-16088054D02*
X2209640Y-16078530D01*
X2209640Y-16078530D02*
X2219163Y-16059483D01*
X2219163Y-16059483D02*
X2219163Y-16011864D01*
X2219163Y-16011864D02*
X2209640Y-15992816D01*
X2209640Y-15992816D02*
X2200116Y-15983292D01*
X2200116Y-15983292D02*
X2181068Y-15973768D01*
X2181068Y-15973768D02*
X2142973Y-15973768D01*
X2142973Y-15973768D02*
X2123925Y-15983292D01*
X2123925Y-15983292D02*
X2114402Y-15992816D01*
X2114402Y-15992816D02*
X2104878Y-16011864D01*
X2304878Y-16078530D02*
X2314402Y-16088054D01*
X2314402Y-16088054D02*
X2304878Y-16097578D01*
X2304878Y-16097578D02*
X2295354Y-16088054D01*
X2295354Y-16088054D02*
X2304878Y-16078530D01*
X2304878Y-16078530D02*
X2304878Y-16097578D01*
X2495354Y-15897578D02*
X2400116Y-15897578D01*
X2400116Y-15897578D02*
X2390592Y-15992816D01*
X2390592Y-15992816D02*
X2400116Y-15983292D01*
X2400116Y-15983292D02*
X2419163Y-15973768D01*
X2419163Y-15973768D02*
X2466783Y-15973768D01*
X2466783Y-15973768D02*
X2485830Y-15983292D01*
X2485830Y-15983292D02*
X2495354Y-15992816D01*
X2495354Y-15992816D02*
X2504878Y-16011864D01*
X2504878Y-16011864D02*
X2504878Y-16059483D01*
X2504878Y-16059483D02*
X2495354Y-16078530D01*
X2495354Y-16078530D02*
X2485830Y-16088054D01*
X2485830Y-16088054D02*
X2466783Y-16097578D01*
X2466783Y-16097578D02*
X2419163Y-16097578D01*
X2419163Y-16097578D02*
X2400116Y-16088054D01*
X2400116Y-16088054D02*
X2390592Y-16078530D01*
X2628687Y-15897578D02*
X2647735Y-15897578D01*
X2647735Y-15897578D02*
X2666783Y-15907102D01*
X2666783Y-15907102D02*
X2676306Y-15916626D01*
X2676306Y-15916626D02*
X2685830Y-15935673D01*
X2685830Y-15935673D02*
X2695354Y-15973768D01*
X2695354Y-15973768D02*
X2695354Y-16021387D01*
X2695354Y-16021387D02*
X2685830Y-16059483D01*
X2685830Y-16059483D02*
X2676306Y-16078530D01*
X2676306Y-16078530D02*
X2666783Y-16088054D01*
X2666783Y-16088054D02*
X2647735Y-16097578D01*
X2647735Y-16097578D02*
X2628687Y-16097578D01*
X2628687Y-16097578D02*
X2609640Y-16088054D01*
X2609640Y-16088054D02*
X2600116Y-16078530D01*
X2600116Y-16078530D02*
X2590592Y-16059483D01*
X2590592Y-16059483D02*
X2581068Y-16021387D01*
X2581068Y-16021387D02*
X2581068Y-15973768D01*
X2581068Y-15973768D02*
X2590592Y-15935673D01*
X2590592Y-15935673D02*
X2600116Y-15916626D01*
X2600116Y-15916626D02*
X2609640Y-15907102D01*
X2609640Y-15907102D02*
X2628687Y-15897578D01*
X2819163Y-15897578D02*
X2838211Y-15897578D01*
X2838211Y-15897578D02*
X2857259Y-15907102D01*
X2857259Y-15907102D02*
X2866782Y-15916626D01*
X2866782Y-15916626D02*
X2876306Y-15935673D01*
X2876306Y-15935673D02*
X2885830Y-15973768D01*
X2885830Y-15973768D02*
X2885830Y-16021387D01*
X2885830Y-16021387D02*
X2876306Y-16059483D01*
X2876306Y-16059483D02*
X2866782Y-16078530D01*
X2866782Y-16078530D02*
X2857259Y-16088054D01*
X2857259Y-16088054D02*
X2838211Y-16097578D01*
X2838211Y-16097578D02*
X2819163Y-16097578D01*
X2819163Y-16097578D02*
X2800116Y-16088054D01*
X2800116Y-16088054D02*
X2790592Y-16078530D01*
X2790592Y-16078530D02*
X2781068Y-16059483D01*
X2781068Y-16059483D02*
X2771544Y-16021387D01*
X2771544Y-16021387D02*
X2771544Y-15973768D01*
X2771544Y-15973768D02*
X2781068Y-15935673D01*
X2781068Y-15935673D02*
X2790592Y-15916626D01*
X2790592Y-15916626D02*
X2800116Y-15907102D01*
X2800116Y-15907102D02*
X2819163Y-15897578D01*
X2971544Y-16097578D02*
X2971544Y-15964245D01*
X2971544Y-15983292D02*
X2981068Y-15973768D01*
X2981068Y-15973768D02*
X3000116Y-15964245D01*
X3000116Y-15964245D02*
X3028687Y-15964245D01*
X3028687Y-15964245D02*
X3047735Y-15973768D01*
X3047735Y-15973768D02*
X3057259Y-15992816D01*
X3057259Y-15992816D02*
X3057259Y-16097578D01*
X3057259Y-15992816D02*
X3066782Y-15973768D01*
X3066782Y-15973768D02*
X3085830Y-15964245D01*
X3085830Y-15964245D02*
X3114401Y-15964245D01*
X3114401Y-15964245D02*
X3133449Y-15973768D01*
X3133449Y-15973768D02*
X3142973Y-15992816D01*
X3142973Y-15992816D02*
X3142973Y-16097578D01*
X3238211Y-16097578D02*
X3238211Y-15964245D01*
X3238211Y-15983292D02*
X3247735Y-15973768D01*
X3247735Y-15973768D02*
X3266782Y-15964245D01*
X3266782Y-15964245D02*
X3295354Y-15964245D01*
X3295354Y-15964245D02*
X3314402Y-15973768D01*
X3314402Y-15973768D02*
X3323925Y-15992816D01*
X3323925Y-15992816D02*
X3323925Y-16097578D01*
X3323925Y-15992816D02*
X3333449Y-15973768D01*
X3333449Y-15973768D02*
X3352497Y-15964245D01*
X3352497Y-15964245D02*
X3381068Y-15964245D01*
X3381068Y-15964245D02*
X3400116Y-15973768D01*
X3400116Y-15973768D02*
X3409640Y-15992816D01*
X3409640Y-15992816D02*
X3409640Y-16097578D01*
X3800116Y-15888054D02*
X3628687Y-16145197D01*
X4057259Y-15897578D02*
X4076306Y-15897578D01*
X4076306Y-15897578D02*
X4095354Y-15907102D01*
X4095354Y-15907102D02*
X4104878Y-15916626D01*
X4104878Y-15916626D02*
X4114402Y-15935673D01*
X4114402Y-15935673D02*
X4123925Y-15973768D01*
X4123925Y-15973768D02*
X4123925Y-16021387D01*
X4123925Y-16021387D02*
X4114402Y-16059483D01*
X4114402Y-16059483D02*
X4104878Y-16078530D01*
X4104878Y-16078530D02*
X4095354Y-16088054D01*
X4095354Y-16088054D02*
X4076306Y-16097578D01*
X4076306Y-16097578D02*
X4057259Y-16097578D01*
X4057259Y-16097578D02*
X4038211Y-16088054D01*
X4038211Y-16088054D02*
X4028687Y-16078530D01*
X4028687Y-16078530D02*
X4019164Y-16059483D01*
X4019164Y-16059483D02*
X4009640Y-16021387D01*
X4009640Y-16021387D02*
X4009640Y-15973768D01*
X4009640Y-15973768D02*
X4019164Y-15935673D01*
X4019164Y-15935673D02*
X4028687Y-15916626D01*
X4028687Y-15916626D02*
X4038211Y-15907102D01*
X4038211Y-15907102D02*
X4057259Y-15897578D01*
X4209640Y-16078530D02*
X4219164Y-16088054D01*
X4219164Y-16088054D02*
X4209640Y-16097578D01*
X4209640Y-16097578D02*
X4200116Y-16088054D01*
X4200116Y-16088054D02*
X4209640Y-16078530D01*
X4209640Y-16078530D02*
X4209640Y-16097578D01*
X4295354Y-15916626D02*
X4304878Y-15907102D01*
X4304878Y-15907102D02*
X4323926Y-15897578D01*
X4323926Y-15897578D02*
X4371545Y-15897578D01*
X4371545Y-15897578D02*
X4390592Y-15907102D01*
X4390592Y-15907102D02*
X4400116Y-15916626D01*
X4400116Y-15916626D02*
X4409640Y-15935673D01*
X4409640Y-15935673D02*
X4409640Y-15954721D01*
X4409640Y-15954721D02*
X4400116Y-15983292D01*
X4400116Y-15983292D02*
X4285830Y-16097578D01*
X4285830Y-16097578D02*
X4409640Y-16097578D01*
X4590592Y-15897578D02*
X4495354Y-15897578D01*
X4495354Y-15897578D02*
X4485830Y-15992816D01*
X4485830Y-15992816D02*
X4495354Y-15983292D01*
X4495354Y-15983292D02*
X4514402Y-15973768D01*
X4514402Y-15973768D02*
X4562021Y-15973768D01*
X4562021Y-15973768D02*
X4581068Y-15983292D01*
X4581068Y-15983292D02*
X4590592Y-15992816D01*
X4590592Y-15992816D02*
X4600116Y-16011864D01*
X4600116Y-16011864D02*
X4600116Y-16059483D01*
X4600116Y-16059483D02*
X4590592Y-16078530D01*
X4590592Y-16078530D02*
X4581068Y-16088054D01*
X4581068Y-16088054D02*
X4562021Y-16097578D01*
X4562021Y-16097578D02*
X4514402Y-16097578D01*
X4514402Y-16097578D02*
X4495354Y-16088054D01*
X4495354Y-16088054D02*
X4485830Y-16078530D01*
X4781068Y-15897578D02*
X4685830Y-15897578D01*
X4685830Y-15897578D02*
X4676307Y-15992816D01*
X4676307Y-15992816D02*
X4685830Y-15983292D01*
X4685830Y-15983292D02*
X4704878Y-15973768D01*
X4704878Y-15973768D02*
X4752497Y-15973768D01*
X4752497Y-15973768D02*
X4771545Y-15983292D01*
X4771545Y-15983292D02*
X4781068Y-15992816D01*
X4781068Y-15992816D02*
X4790592Y-16011864D01*
X4790592Y-16011864D02*
X4790592Y-16059483D01*
X4790592Y-16059483D02*
X4781068Y-16078530D01*
X4781068Y-16078530D02*
X4771545Y-16088054D01*
X4771545Y-16088054D02*
X4752497Y-16097578D01*
X4752497Y-16097578D02*
X4704878Y-16097578D01*
X4704878Y-16097578D02*
X4685830Y-16088054D01*
X4685830Y-16088054D02*
X4676307Y-16078530D01*
X4885830Y-16097578D02*
X4923926Y-16097578D01*
X4923926Y-16097578D02*
X4942973Y-16088054D01*
X4942973Y-16088054D02*
X4952497Y-16078530D01*
X4952497Y-16078530D02*
X4971545Y-16049959D01*
X4971545Y-16049959D02*
X4981068Y-16011864D01*
X4981068Y-16011864D02*
X4981068Y-15935673D01*
X4981068Y-15935673D02*
X4971545Y-15916626D01*
X4971545Y-15916626D02*
X4962021Y-15907102D01*
X4962021Y-15907102D02*
X4942973Y-15897578D01*
X4942973Y-15897578D02*
X4904878Y-15897578D01*
X4904878Y-15897578D02*
X4885830Y-15907102D01*
X4885830Y-15907102D02*
X4876307Y-15916626D01*
X4876307Y-15916626D02*
X4866783Y-15935673D01*
X4866783Y-15935673D02*
X4866783Y-15983292D01*
X4866783Y-15983292D02*
X4876307Y-16002340D01*
X4876307Y-16002340D02*
X4885830Y-16011864D01*
X4885830Y-16011864D02*
X4904878Y-16021387D01*
X4904878Y-16021387D02*
X4942973Y-16021387D01*
X4942973Y-16021387D02*
X4962021Y-16011864D01*
X4962021Y-16011864D02*
X4971545Y-16002340D01*
X4971545Y-16002340D02*
X4981068Y-15983292D01*
X5057259Y-15897578D02*
X5057259Y-15935673D01*
X5133449Y-15897578D02*
X5133449Y-15935673D01*
X5428688Y-16173768D02*
X5419164Y-16164245D01*
X5419164Y-16164245D02*
X5400116Y-16135673D01*
X5400116Y-16135673D02*
X5390592Y-16116626D01*
X5390592Y-16116626D02*
X5381069Y-16088054D01*
X5381069Y-16088054D02*
X5371545Y-16040435D01*
X5371545Y-16040435D02*
X5371545Y-16002340D01*
X5371545Y-16002340D02*
X5381069Y-15954721D01*
X5381069Y-15954721D02*
X5390592Y-15926149D01*
X5390592Y-15926149D02*
X5400116Y-15907102D01*
X5400116Y-15907102D02*
X5419164Y-15878530D01*
X5419164Y-15878530D02*
X5428688Y-15869006D01*
X5609640Y-16097578D02*
X5495354Y-16097578D01*
X5552497Y-16097578D02*
X5552497Y-15897578D01*
X5552497Y-15897578D02*
X5533449Y-15926149D01*
X5533449Y-15926149D02*
X5514402Y-15945197D01*
X5514402Y-15945197D02*
X5495354Y-15954721D01*
X5847735Y-16097578D02*
X5847735Y-15897578D01*
X5933449Y-16097578D02*
X5933449Y-15992816D01*
X5933449Y-15992816D02*
X5923926Y-15973768D01*
X5923926Y-15973768D02*
X5904878Y-15964245D01*
X5904878Y-15964245D02*
X5876307Y-15964245D01*
X5876307Y-15964245D02*
X5857259Y-15973768D01*
X5857259Y-15973768D02*
X5847735Y-15983292D01*
X6057259Y-16097578D02*
X6038211Y-16088054D01*
X6038211Y-16088054D02*
X6028688Y-16078530D01*
X6028688Y-16078530D02*
X6019164Y-16059483D01*
X6019164Y-16059483D02*
X6019164Y-16002340D01*
X6019164Y-16002340D02*
X6028688Y-15983292D01*
X6028688Y-15983292D02*
X6038211Y-15973768D01*
X6038211Y-15973768D02*
X6057259Y-15964245D01*
X6057259Y-15964245D02*
X6085830Y-15964245D01*
X6085830Y-15964245D02*
X6104878Y-15973768D01*
X6104878Y-15973768D02*
X6114402Y-15983292D01*
X6114402Y-15983292D02*
X6123926Y-16002340D01*
X6123926Y-16002340D02*
X6123926Y-16059483D01*
X6123926Y-16059483D02*
X6114402Y-16078530D01*
X6114402Y-16078530D02*
X6104878Y-16088054D01*
X6104878Y-16088054D02*
X6085830Y-16097578D01*
X6085830Y-16097578D02*
X6057259Y-16097578D01*
X6238211Y-16097578D02*
X6219164Y-16088054D01*
X6219164Y-16088054D02*
X6209640Y-16069006D01*
X6209640Y-16069006D02*
X6209640Y-15897578D01*
X6390592Y-16088054D02*
X6371545Y-16097578D01*
X6371545Y-16097578D02*
X6333449Y-16097578D01*
X6333449Y-16097578D02*
X6314402Y-16088054D01*
X6314402Y-16088054D02*
X6304878Y-16069006D01*
X6304878Y-16069006D02*
X6304878Y-15992816D01*
X6304878Y-15992816D02*
X6314402Y-15973768D01*
X6314402Y-15973768D02*
X6333449Y-15964245D01*
X6333449Y-15964245D02*
X6371545Y-15964245D01*
X6371545Y-15964245D02*
X6390592Y-15973768D01*
X6390592Y-15973768D02*
X6400116Y-15992816D01*
X6400116Y-15992816D02*
X6400116Y-16011864D01*
X6400116Y-16011864D02*
X6304878Y-16030911D01*
X6466783Y-16173768D02*
X6476307Y-16164245D01*
X6476307Y-16164245D02*
X6495354Y-16135673D01*
X6495354Y-16135673D02*
X6504878Y-16116626D01*
X6504878Y-16116626D02*
X6514402Y-16088054D01*
X6514402Y-16088054D02*
X6523926Y-16040435D01*
X6523926Y-16040435D02*
X6523926Y-16002340D01*
X6523926Y-16002340D02*
X6514402Y-15954721D01*
X6514402Y-15954721D02*
X6504878Y-15926149D01*
X6504878Y-15926149D02*
X6495354Y-15907102D01*
X6495354Y-15907102D02*
X6476307Y-15878530D01*
X6476307Y-15878530D02*
X6466783Y-15869006D01*
X6828688Y-16173768D02*
X6819164Y-16164245D01*
X6819164Y-16164245D02*
X6800116Y-16135673D01*
X6800116Y-16135673D02*
X6790592Y-16116626D01*
X6790592Y-16116626D02*
X6781069Y-16088054D01*
X6781069Y-16088054D02*
X6771545Y-16040435D01*
X6771545Y-16040435D02*
X6771545Y-16002340D01*
X6771545Y-16002340D02*
X6781069Y-15954721D01*
X6781069Y-15954721D02*
X6790592Y-15926149D01*
X6790592Y-15926149D02*
X6800116Y-15907102D01*
X6800116Y-15907102D02*
X6819164Y-15878530D01*
X6819164Y-15878530D02*
X6828688Y-15869006D01*
X6904878Y-15964245D02*
X6904878Y-16097578D01*
X6904878Y-15983292D02*
X6914402Y-15973768D01*
X6914402Y-15973768D02*
X6933449Y-15964245D01*
X6933449Y-15964245D02*
X6962021Y-15964245D01*
X6962021Y-15964245D02*
X6981069Y-15973768D01*
X6981069Y-15973768D02*
X6990592Y-15992816D01*
X6990592Y-15992816D02*
X6990592Y-16097578D01*
X7114402Y-16097578D02*
X7095354Y-16088054D01*
X7095354Y-16088054D02*
X7085830Y-16078530D01*
X7085830Y-16078530D02*
X7076307Y-16059483D01*
X7076307Y-16059483D02*
X7076307Y-16002340D01*
X7076307Y-16002340D02*
X7085830Y-15983292D01*
X7085830Y-15983292D02*
X7095354Y-15973768D01*
X7095354Y-15973768D02*
X7114402Y-15964245D01*
X7114402Y-15964245D02*
X7142973Y-15964245D01*
X7142973Y-15964245D02*
X7162021Y-15973768D01*
X7162021Y-15973768D02*
X7171545Y-15983292D01*
X7171545Y-15983292D02*
X7181069Y-16002340D01*
X7181069Y-16002340D02*
X7181069Y-16059483D01*
X7181069Y-16059483D02*
X7171545Y-16078530D01*
X7171545Y-16078530D02*
X7162021Y-16088054D01*
X7162021Y-16088054D02*
X7142973Y-16097578D01*
X7142973Y-16097578D02*
X7114402Y-16097578D01*
X7238211Y-15964245D02*
X7314402Y-15964245D01*
X7266783Y-15897578D02*
X7266783Y-16069006D01*
X7266783Y-16069006D02*
X7276307Y-16088054D01*
X7276307Y-16088054D02*
X7295354Y-16097578D01*
X7295354Y-16097578D02*
X7314402Y-16097578D01*
X7533450Y-15964245D02*
X7533450Y-16164245D01*
X7533450Y-15973768D02*
X7552497Y-15964245D01*
X7552497Y-15964245D02*
X7590592Y-15964245D01*
X7590592Y-15964245D02*
X7609640Y-15973768D01*
X7609640Y-15973768D02*
X7619164Y-15983292D01*
X7619164Y-15983292D02*
X7628688Y-16002340D01*
X7628688Y-16002340D02*
X7628688Y-16059483D01*
X7628688Y-16059483D02*
X7619164Y-16078530D01*
X7619164Y-16078530D02*
X7609640Y-16088054D01*
X7609640Y-16088054D02*
X7590592Y-16097578D01*
X7590592Y-16097578D02*
X7552497Y-16097578D01*
X7552497Y-16097578D02*
X7533450Y-16088054D01*
X7742973Y-16097578D02*
X7723926Y-16088054D01*
X7723926Y-16088054D02*
X7714402Y-16069006D01*
X7714402Y-16069006D02*
X7714402Y-15897578D01*
X7904878Y-16097578D02*
X7904878Y-15992816D01*
X7904878Y-15992816D02*
X7895354Y-15973768D01*
X7895354Y-15973768D02*
X7876307Y-15964245D01*
X7876307Y-15964245D02*
X7838211Y-15964245D01*
X7838211Y-15964245D02*
X7819164Y-15973768D01*
X7904878Y-16088054D02*
X7885831Y-16097578D01*
X7885831Y-16097578D02*
X7838211Y-16097578D01*
X7838211Y-16097578D02*
X7819164Y-16088054D01*
X7819164Y-16088054D02*
X7809640Y-16069006D01*
X7809640Y-16069006D02*
X7809640Y-16049959D01*
X7809640Y-16049959D02*
X7819164Y-16030911D01*
X7819164Y-16030911D02*
X7838211Y-16021387D01*
X7838211Y-16021387D02*
X7885831Y-16021387D01*
X7885831Y-16021387D02*
X7904878Y-16011864D01*
X7971545Y-15964245D02*
X8047735Y-15964245D01*
X8000116Y-15897578D02*
X8000116Y-16069006D01*
X8000116Y-16069006D02*
X8009640Y-16088054D01*
X8009640Y-16088054D02*
X8028688Y-16097578D01*
X8028688Y-16097578D02*
X8047735Y-16097578D01*
X8190592Y-16088054D02*
X8171545Y-16097578D01*
X8171545Y-16097578D02*
X8133450Y-16097578D01*
X8133450Y-16097578D02*
X8114402Y-16088054D01*
X8114402Y-16088054D02*
X8104878Y-16069006D01*
X8104878Y-16069006D02*
X8104878Y-15992816D01*
X8104878Y-15992816D02*
X8114402Y-15973768D01*
X8114402Y-15973768D02*
X8133450Y-15964245D01*
X8133450Y-15964245D02*
X8171545Y-15964245D01*
X8171545Y-15964245D02*
X8190592Y-15973768D01*
X8190592Y-15973768D02*
X8200116Y-15992816D01*
X8200116Y-15992816D02*
X8200116Y-16011864D01*
X8200116Y-16011864D02*
X8104878Y-16030911D01*
X8371545Y-16097578D02*
X8371545Y-15897578D01*
X8371545Y-16088054D02*
X8352497Y-16097578D01*
X8352497Y-16097578D02*
X8314402Y-16097578D01*
X8314402Y-16097578D02*
X8295354Y-16088054D01*
X8295354Y-16088054D02*
X8285831Y-16078530D01*
X8285831Y-16078530D02*
X8276307Y-16059483D01*
X8276307Y-16059483D02*
X8276307Y-16002340D01*
X8276307Y-16002340D02*
X8285831Y-15983292D01*
X8285831Y-15983292D02*
X8295354Y-15973768D01*
X8295354Y-15973768D02*
X8314402Y-15964245D01*
X8314402Y-15964245D02*
X8352497Y-15964245D01*
X8352497Y-15964245D02*
X8371545Y-15973768D01*
X8447735Y-16173768D02*
X8457259Y-16164245D01*
X8457259Y-16164245D02*
X8476307Y-16135673D01*
X8476307Y-16135673D02*
X8485831Y-16116626D01*
X8485831Y-16116626D02*
X8495354Y-16088054D01*
X8495354Y-16088054D02*
X8504878Y-16040435D01*
X8504878Y-16040435D02*
X8504878Y-16002340D01*
X8504878Y-16002340D02*
X8495354Y-15954721D01*
X8495354Y-15954721D02*
X8485831Y-15926149D01*
X8485831Y-15926149D02*
X8476307Y-15907102D01*
X8476307Y-15907102D02*
X8457259Y-15878530D01*
X8457259Y-15878530D02*
X8447735Y-15869006D01*
X1824336Y-16396806D02*
X1824336Y-16255383D01*
X1682913Y-16255383D01*
X1682913Y-16396806D01*
X1824336Y-16396806D01*
X2095354Y-16217578D02*
X2228687Y-16217578D01*
X2228687Y-16217578D02*
X2142973Y-16417578D01*
X2304878Y-16398530D02*
X2314402Y-16408054D01*
X2314402Y-16408054D02*
X2304878Y-16417578D01*
X2304878Y-16417578D02*
X2295354Y-16408054D01*
X2295354Y-16408054D02*
X2304878Y-16398530D01*
X2304878Y-16398530D02*
X2304878Y-16417578D01*
X2438211Y-16217578D02*
X2457259Y-16217578D01*
X2457259Y-16217578D02*
X2476306Y-16227102D01*
X2476306Y-16227102D02*
X2485830Y-16236626D01*
X2485830Y-16236626D02*
X2495354Y-16255673D01*
X2495354Y-16255673D02*
X2504878Y-16293768D01*
X2504878Y-16293768D02*
X2504878Y-16341387D01*
X2504878Y-16341387D02*
X2495354Y-16379483D01*
X2495354Y-16379483D02*
X2485830Y-16398530D01*
X2485830Y-16398530D02*
X2476306Y-16408054D01*
X2476306Y-16408054D02*
X2457259Y-16417578D01*
X2457259Y-16417578D02*
X2438211Y-16417578D01*
X2438211Y-16417578D02*
X2419163Y-16408054D01*
X2419163Y-16408054D02*
X2409640Y-16398530D01*
X2409640Y-16398530D02*
X2400116Y-16379483D01*
X2400116Y-16379483D02*
X2390592Y-16341387D01*
X2390592Y-16341387D02*
X2390592Y-16293768D01*
X2390592Y-16293768D02*
X2400116Y-16255673D01*
X2400116Y-16255673D02*
X2409640Y-16236626D01*
X2409640Y-16236626D02*
X2419163Y-16227102D01*
X2419163Y-16227102D02*
X2438211Y-16217578D01*
X2628687Y-16217578D02*
X2647735Y-16217578D01*
X2647735Y-16217578D02*
X2666783Y-16227102D01*
X2666783Y-16227102D02*
X2676306Y-16236626D01*
X2676306Y-16236626D02*
X2685830Y-16255673D01*
X2685830Y-16255673D02*
X2695354Y-16293768D01*
X2695354Y-16293768D02*
X2695354Y-16341387D01*
X2695354Y-16341387D02*
X2685830Y-16379483D01*
X2685830Y-16379483D02*
X2676306Y-16398530D01*
X2676306Y-16398530D02*
X2666783Y-16408054D01*
X2666783Y-16408054D02*
X2647735Y-16417578D01*
X2647735Y-16417578D02*
X2628687Y-16417578D01*
X2628687Y-16417578D02*
X2609640Y-16408054D01*
X2609640Y-16408054D02*
X2600116Y-16398530D01*
X2600116Y-16398530D02*
X2590592Y-16379483D01*
X2590592Y-16379483D02*
X2581068Y-16341387D01*
X2581068Y-16341387D02*
X2581068Y-16293768D01*
X2581068Y-16293768D02*
X2590592Y-16255673D01*
X2590592Y-16255673D02*
X2600116Y-16236626D01*
X2600116Y-16236626D02*
X2609640Y-16227102D01*
X2609640Y-16227102D02*
X2628687Y-16217578D01*
X2819163Y-16217578D02*
X2838211Y-16217578D01*
X2838211Y-16217578D02*
X2857259Y-16227102D01*
X2857259Y-16227102D02*
X2866782Y-16236626D01*
X2866782Y-16236626D02*
X2876306Y-16255673D01*
X2876306Y-16255673D02*
X2885830Y-16293768D01*
X2885830Y-16293768D02*
X2885830Y-16341387D01*
X2885830Y-16341387D02*
X2876306Y-16379483D01*
X2876306Y-16379483D02*
X2866782Y-16398530D01*
X2866782Y-16398530D02*
X2857259Y-16408054D01*
X2857259Y-16408054D02*
X2838211Y-16417578D01*
X2838211Y-16417578D02*
X2819163Y-16417578D01*
X2819163Y-16417578D02*
X2800116Y-16408054D01*
X2800116Y-16408054D02*
X2790592Y-16398530D01*
X2790592Y-16398530D02*
X2781068Y-16379483D01*
X2781068Y-16379483D02*
X2771544Y-16341387D01*
X2771544Y-16341387D02*
X2771544Y-16293768D01*
X2771544Y-16293768D02*
X2781068Y-16255673D01*
X2781068Y-16255673D02*
X2790592Y-16236626D01*
X2790592Y-16236626D02*
X2800116Y-16227102D01*
X2800116Y-16227102D02*
X2819163Y-16217578D01*
X2971544Y-16417578D02*
X2971544Y-16284245D01*
X2971544Y-16303292D02*
X2981068Y-16293768D01*
X2981068Y-16293768D02*
X3000116Y-16284245D01*
X3000116Y-16284245D02*
X3028687Y-16284245D01*
X3028687Y-16284245D02*
X3047735Y-16293768D01*
X3047735Y-16293768D02*
X3057259Y-16312816D01*
X3057259Y-16312816D02*
X3057259Y-16417578D01*
X3057259Y-16312816D02*
X3066782Y-16293768D01*
X3066782Y-16293768D02*
X3085830Y-16284245D01*
X3085830Y-16284245D02*
X3114401Y-16284245D01*
X3114401Y-16284245D02*
X3133449Y-16293768D01*
X3133449Y-16293768D02*
X3142973Y-16312816D01*
X3142973Y-16312816D02*
X3142973Y-16417578D01*
X3238211Y-16417578D02*
X3238211Y-16284245D01*
X3238211Y-16303292D02*
X3247735Y-16293768D01*
X3247735Y-16293768D02*
X3266782Y-16284245D01*
X3266782Y-16284245D02*
X3295354Y-16284245D01*
X3295354Y-16284245D02*
X3314402Y-16293768D01*
X3314402Y-16293768D02*
X3323925Y-16312816D01*
X3323925Y-16312816D02*
X3323925Y-16417578D01*
X3323925Y-16312816D02*
X3333449Y-16293768D01*
X3333449Y-16293768D02*
X3352497Y-16284245D01*
X3352497Y-16284245D02*
X3381068Y-16284245D01*
X3381068Y-16284245D02*
X3400116Y-16293768D01*
X3400116Y-16293768D02*
X3409640Y-16312816D01*
X3409640Y-16312816D02*
X3409640Y-16417578D01*
X3800116Y-16208054D02*
X3628687Y-16465197D01*
X4057259Y-16217578D02*
X4076306Y-16217578D01*
X4076306Y-16217578D02*
X4095354Y-16227102D01*
X4095354Y-16227102D02*
X4104878Y-16236626D01*
X4104878Y-16236626D02*
X4114402Y-16255673D01*
X4114402Y-16255673D02*
X4123925Y-16293768D01*
X4123925Y-16293768D02*
X4123925Y-16341387D01*
X4123925Y-16341387D02*
X4114402Y-16379483D01*
X4114402Y-16379483D02*
X4104878Y-16398530D01*
X4104878Y-16398530D02*
X4095354Y-16408054D01*
X4095354Y-16408054D02*
X4076306Y-16417578D01*
X4076306Y-16417578D02*
X4057259Y-16417578D01*
X4057259Y-16417578D02*
X4038211Y-16408054D01*
X4038211Y-16408054D02*
X4028687Y-16398530D01*
X4028687Y-16398530D02*
X4019164Y-16379483D01*
X4019164Y-16379483D02*
X4009640Y-16341387D01*
X4009640Y-16341387D02*
X4009640Y-16293768D01*
X4009640Y-16293768D02*
X4019164Y-16255673D01*
X4019164Y-16255673D02*
X4028687Y-16236626D01*
X4028687Y-16236626D02*
X4038211Y-16227102D01*
X4038211Y-16227102D02*
X4057259Y-16217578D01*
X4209640Y-16398530D02*
X4219164Y-16408054D01*
X4219164Y-16408054D02*
X4209640Y-16417578D01*
X4209640Y-16417578D02*
X4200116Y-16408054D01*
X4200116Y-16408054D02*
X4209640Y-16398530D01*
X4209640Y-16398530D02*
X4209640Y-16417578D01*
X4295354Y-16236626D02*
X4304878Y-16227102D01*
X4304878Y-16227102D02*
X4323926Y-16217578D01*
X4323926Y-16217578D02*
X4371545Y-16217578D01*
X4371545Y-16217578D02*
X4390592Y-16227102D01*
X4390592Y-16227102D02*
X4400116Y-16236626D01*
X4400116Y-16236626D02*
X4409640Y-16255673D01*
X4409640Y-16255673D02*
X4409640Y-16274721D01*
X4409640Y-16274721D02*
X4400116Y-16303292D01*
X4400116Y-16303292D02*
X4285830Y-16417578D01*
X4285830Y-16417578D02*
X4409640Y-16417578D01*
X4476307Y-16217578D02*
X4609640Y-16217578D01*
X4609640Y-16217578D02*
X4523926Y-16417578D01*
X4781068Y-16217578D02*
X4685830Y-16217578D01*
X4685830Y-16217578D02*
X4676307Y-16312816D01*
X4676307Y-16312816D02*
X4685830Y-16303292D01*
X4685830Y-16303292D02*
X4704878Y-16293768D01*
X4704878Y-16293768D02*
X4752497Y-16293768D01*
X4752497Y-16293768D02*
X4771545Y-16303292D01*
X4771545Y-16303292D02*
X4781068Y-16312816D01*
X4781068Y-16312816D02*
X4790592Y-16331864D01*
X4790592Y-16331864D02*
X4790592Y-16379483D01*
X4790592Y-16379483D02*
X4781068Y-16398530D01*
X4781068Y-16398530D02*
X4771545Y-16408054D01*
X4771545Y-16408054D02*
X4752497Y-16417578D01*
X4752497Y-16417578D02*
X4704878Y-16417578D01*
X4704878Y-16417578D02*
X4685830Y-16408054D01*
X4685830Y-16408054D02*
X4676307Y-16398530D01*
X4962021Y-16217578D02*
X4923926Y-16217578D01*
X4923926Y-16217578D02*
X4904878Y-16227102D01*
X4904878Y-16227102D02*
X4895354Y-16236626D01*
X4895354Y-16236626D02*
X4876307Y-16265197D01*
X4876307Y-16265197D02*
X4866783Y-16303292D01*
X4866783Y-16303292D02*
X4866783Y-16379483D01*
X4866783Y-16379483D02*
X4876307Y-16398530D01*
X4876307Y-16398530D02*
X4885830Y-16408054D01*
X4885830Y-16408054D02*
X4904878Y-16417578D01*
X4904878Y-16417578D02*
X4942973Y-16417578D01*
X4942973Y-16417578D02*
X4962021Y-16408054D01*
X4962021Y-16408054D02*
X4971545Y-16398530D01*
X4971545Y-16398530D02*
X4981068Y-16379483D01*
X4981068Y-16379483D02*
X4981068Y-16331864D01*
X4981068Y-16331864D02*
X4971545Y-16312816D01*
X4971545Y-16312816D02*
X4962021Y-16303292D01*
X4962021Y-16303292D02*
X4942973Y-16293768D01*
X4942973Y-16293768D02*
X4904878Y-16293768D01*
X4904878Y-16293768D02*
X4885830Y-16303292D01*
X4885830Y-16303292D02*
X4876307Y-16312816D01*
X4876307Y-16312816D02*
X4866783Y-16331864D01*
X5057259Y-16217578D02*
X5057259Y-16255673D01*
X5133449Y-16217578D02*
X5133449Y-16255673D01*
X5428688Y-16493768D02*
X5419164Y-16484245D01*
X5419164Y-16484245D02*
X5400116Y-16455673D01*
X5400116Y-16455673D02*
X5390592Y-16436626D01*
X5390592Y-16436626D02*
X5381069Y-16408054D01*
X5381069Y-16408054D02*
X5371545Y-16360435D01*
X5371545Y-16360435D02*
X5371545Y-16322340D01*
X5371545Y-16322340D02*
X5381069Y-16274721D01*
X5381069Y-16274721D02*
X5390592Y-16246149D01*
X5390592Y-16246149D02*
X5400116Y-16227102D01*
X5400116Y-16227102D02*
X5419164Y-16198530D01*
X5419164Y-16198530D02*
X5428688Y-16189006D01*
X5485830Y-16217578D02*
X5619164Y-16217578D01*
X5619164Y-16217578D02*
X5533449Y-16417578D01*
X5847735Y-16417578D02*
X5847735Y-16217578D01*
X5933449Y-16417578D02*
X5933449Y-16312816D01*
X5933449Y-16312816D02*
X5923926Y-16293768D01*
X5923926Y-16293768D02*
X5904878Y-16284245D01*
X5904878Y-16284245D02*
X5876307Y-16284245D01*
X5876307Y-16284245D02*
X5857259Y-16293768D01*
X5857259Y-16293768D02*
X5847735Y-16303292D01*
X6057259Y-16417578D02*
X6038211Y-16408054D01*
X6038211Y-16408054D02*
X6028688Y-16398530D01*
X6028688Y-16398530D02*
X6019164Y-16379483D01*
X6019164Y-16379483D02*
X6019164Y-16322340D01*
X6019164Y-16322340D02*
X6028688Y-16303292D01*
X6028688Y-16303292D02*
X6038211Y-16293768D01*
X6038211Y-16293768D02*
X6057259Y-16284245D01*
X6057259Y-16284245D02*
X6085830Y-16284245D01*
X6085830Y-16284245D02*
X6104878Y-16293768D01*
X6104878Y-16293768D02*
X6114402Y-16303292D01*
X6114402Y-16303292D02*
X6123926Y-16322340D01*
X6123926Y-16322340D02*
X6123926Y-16379483D01*
X6123926Y-16379483D02*
X6114402Y-16398530D01*
X6114402Y-16398530D02*
X6104878Y-16408054D01*
X6104878Y-16408054D02*
X6085830Y-16417578D01*
X6085830Y-16417578D02*
X6057259Y-16417578D01*
X6238211Y-16417578D02*
X6219164Y-16408054D01*
X6219164Y-16408054D02*
X6209640Y-16389006D01*
X6209640Y-16389006D02*
X6209640Y-16217578D01*
X6390592Y-16408054D02*
X6371545Y-16417578D01*
X6371545Y-16417578D02*
X6333449Y-16417578D01*
X6333449Y-16417578D02*
X6314402Y-16408054D01*
X6314402Y-16408054D02*
X6304878Y-16389006D01*
X6304878Y-16389006D02*
X6304878Y-16312816D01*
X6304878Y-16312816D02*
X6314402Y-16293768D01*
X6314402Y-16293768D02*
X6333449Y-16284245D01*
X6333449Y-16284245D02*
X6371545Y-16284245D01*
X6371545Y-16284245D02*
X6390592Y-16293768D01*
X6390592Y-16293768D02*
X6400116Y-16312816D01*
X6400116Y-16312816D02*
X6400116Y-16331864D01*
X6400116Y-16331864D02*
X6304878Y-16350911D01*
X6476307Y-16408054D02*
X6495354Y-16417578D01*
X6495354Y-16417578D02*
X6533449Y-16417578D01*
X6533449Y-16417578D02*
X6552497Y-16408054D01*
X6552497Y-16408054D02*
X6562021Y-16389006D01*
X6562021Y-16389006D02*
X6562021Y-16379483D01*
X6562021Y-16379483D02*
X6552497Y-16360435D01*
X6552497Y-16360435D02*
X6533449Y-16350911D01*
X6533449Y-16350911D02*
X6504878Y-16350911D01*
X6504878Y-16350911D02*
X6485830Y-16341387D01*
X6485830Y-16341387D02*
X6476307Y-16322340D01*
X6476307Y-16322340D02*
X6476307Y-16312816D01*
X6476307Y-16312816D02*
X6485830Y-16293768D01*
X6485830Y-16293768D02*
X6504878Y-16284245D01*
X6504878Y-16284245D02*
X6533449Y-16284245D01*
X6533449Y-16284245D02*
X6552497Y-16293768D01*
X6628688Y-16493768D02*
X6638211Y-16484245D01*
X6638211Y-16484245D02*
X6657259Y-16455673D01*
X6657259Y-16455673D02*
X6666783Y-16436626D01*
X6666783Y-16436626D02*
X6676307Y-16408054D01*
X6676307Y-16408054D02*
X6685830Y-16360435D01*
X6685830Y-16360435D02*
X6685830Y-16322340D01*
X6685830Y-16322340D02*
X6676307Y-16274721D01*
X6676307Y-16274721D02*
X6666783Y-16246149D01*
X6666783Y-16246149D02*
X6657259Y-16227102D01*
X6657259Y-16227102D02*
X6638211Y-16198530D01*
X6638211Y-16198530D02*
X6628688Y-16189006D01*
X6990592Y-16493768D02*
X6981069Y-16484245D01*
X6981069Y-16484245D02*
X6962021Y-16455673D01*
X6962021Y-16455673D02*
X6952497Y-16436626D01*
X6952497Y-16436626D02*
X6942973Y-16408054D01*
X6942973Y-16408054D02*
X6933450Y-16360435D01*
X6933450Y-16360435D02*
X6933450Y-16322340D01*
X6933450Y-16322340D02*
X6942973Y-16274721D01*
X6942973Y-16274721D02*
X6952497Y-16246149D01*
X6952497Y-16246149D02*
X6962021Y-16227102D01*
X6962021Y-16227102D02*
X6981069Y-16198530D01*
X6981069Y-16198530D02*
X6990592Y-16189006D01*
X7066783Y-16284245D02*
X7066783Y-16417578D01*
X7066783Y-16303292D02*
X7076307Y-16293768D01*
X7076307Y-16293768D02*
X7095354Y-16284245D01*
X7095354Y-16284245D02*
X7123926Y-16284245D01*
X7123926Y-16284245D02*
X7142973Y-16293768D01*
X7142973Y-16293768D02*
X7152497Y-16312816D01*
X7152497Y-16312816D02*
X7152497Y-16417578D01*
X7276307Y-16417578D02*
X7257259Y-16408054D01*
X7257259Y-16408054D02*
X7247735Y-16398530D01*
X7247735Y-16398530D02*
X7238211Y-16379483D01*
X7238211Y-16379483D02*
X7238211Y-16322340D01*
X7238211Y-16322340D02*
X7247735Y-16303292D01*
X7247735Y-16303292D02*
X7257259Y-16293768D01*
X7257259Y-16293768D02*
X7276307Y-16284245D01*
X7276307Y-16284245D02*
X7304878Y-16284245D01*
X7304878Y-16284245D02*
X7323926Y-16293768D01*
X7323926Y-16293768D02*
X7333450Y-16303292D01*
X7333450Y-16303292D02*
X7342973Y-16322340D01*
X7342973Y-16322340D02*
X7342973Y-16379483D01*
X7342973Y-16379483D02*
X7333450Y-16398530D01*
X7333450Y-16398530D02*
X7323926Y-16408054D01*
X7323926Y-16408054D02*
X7304878Y-16417578D01*
X7304878Y-16417578D02*
X7276307Y-16417578D01*
X7400116Y-16284245D02*
X7476307Y-16284245D01*
X7428688Y-16217578D02*
X7428688Y-16389006D01*
X7428688Y-16389006D02*
X7438211Y-16408054D01*
X7438211Y-16408054D02*
X7457259Y-16417578D01*
X7457259Y-16417578D02*
X7476307Y-16417578D01*
X7695354Y-16284245D02*
X7695354Y-16484245D01*
X7695354Y-16293768D02*
X7714402Y-16284245D01*
X7714402Y-16284245D02*
X7752497Y-16284245D01*
X7752497Y-16284245D02*
X7771545Y-16293768D01*
X7771545Y-16293768D02*
X7781069Y-16303292D01*
X7781069Y-16303292D02*
X7790592Y-16322340D01*
X7790592Y-16322340D02*
X7790592Y-16379483D01*
X7790592Y-16379483D02*
X7781069Y-16398530D01*
X7781069Y-16398530D02*
X7771545Y-16408054D01*
X7771545Y-16408054D02*
X7752497Y-16417578D01*
X7752497Y-16417578D02*
X7714402Y-16417578D01*
X7714402Y-16417578D02*
X7695354Y-16408054D01*
X7904878Y-16417578D02*
X7885831Y-16408054D01*
X7885831Y-16408054D02*
X7876307Y-16389006D01*
X7876307Y-16389006D02*
X7876307Y-16217578D01*
X8066783Y-16417578D02*
X8066783Y-16312816D01*
X8066783Y-16312816D02*
X8057259Y-16293768D01*
X8057259Y-16293768D02*
X8038212Y-16284245D01*
X8038212Y-16284245D02*
X8000116Y-16284245D01*
X8000116Y-16284245D02*
X7981069Y-16293768D01*
X8066783Y-16408054D02*
X8047735Y-16417578D01*
X8047735Y-16417578D02*
X8000116Y-16417578D01*
X8000116Y-16417578D02*
X7981069Y-16408054D01*
X7981069Y-16408054D02*
X7971545Y-16389006D01*
X7971545Y-16389006D02*
X7971545Y-16369959D01*
X7971545Y-16369959D02*
X7981069Y-16350911D01*
X7981069Y-16350911D02*
X8000116Y-16341387D01*
X8000116Y-16341387D02*
X8047735Y-16341387D01*
X8047735Y-16341387D02*
X8066783Y-16331864D01*
X8133450Y-16284245D02*
X8209640Y-16284245D01*
X8162021Y-16217578D02*
X8162021Y-16389006D01*
X8162021Y-16389006D02*
X8171545Y-16408054D01*
X8171545Y-16408054D02*
X8190592Y-16417578D01*
X8190592Y-16417578D02*
X8209640Y-16417578D01*
X8352497Y-16408054D02*
X8333450Y-16417578D01*
X8333450Y-16417578D02*
X8295354Y-16417578D01*
X8295354Y-16417578D02*
X8276307Y-16408054D01*
X8276307Y-16408054D02*
X8266783Y-16389006D01*
X8266783Y-16389006D02*
X8266783Y-16312816D01*
X8266783Y-16312816D02*
X8276307Y-16293768D01*
X8276307Y-16293768D02*
X8295354Y-16284245D01*
X8295354Y-16284245D02*
X8333450Y-16284245D01*
X8333450Y-16284245D02*
X8352497Y-16293768D01*
X8352497Y-16293768D02*
X8362021Y-16312816D01*
X8362021Y-16312816D02*
X8362021Y-16331864D01*
X8362021Y-16331864D02*
X8266783Y-16350911D01*
X8533450Y-16417578D02*
X8533450Y-16217578D01*
X8533450Y-16408054D02*
X8514402Y-16417578D01*
X8514402Y-16417578D02*
X8476307Y-16417578D01*
X8476307Y-16417578D02*
X8457259Y-16408054D01*
X8457259Y-16408054D02*
X8447735Y-16398530D01*
X8447735Y-16398530D02*
X8438212Y-16379483D01*
X8438212Y-16379483D02*
X8438212Y-16322340D01*
X8438212Y-16322340D02*
X8447735Y-16303292D01*
X8447735Y-16303292D02*
X8457259Y-16293768D01*
X8457259Y-16293768D02*
X8476307Y-16284245D01*
X8476307Y-16284245D02*
X8514402Y-16284245D01*
X8514402Y-16284245D02*
X8533450Y-16293768D01*
X8609640Y-16493768D02*
X8619164Y-16484245D01*
X8619164Y-16484245D02*
X8638212Y-16455673D01*
X8638212Y-16455673D02*
X8647735Y-16436626D01*
X8647735Y-16436626D02*
X8657259Y-16408054D01*
X8657259Y-16408054D02*
X8666783Y-16360435D01*
X8666783Y-16360435D02*
X8666783Y-16322340D01*
X8666783Y-16322340D02*
X8657259Y-16274721D01*
X8657259Y-16274721D02*
X8647735Y-16246149D01*
X8647735Y-16246149D02*
X8638212Y-16227102D01*
X8638212Y-16227102D02*
X8619164Y-16198530D01*
X8619164Y-16198530D02*
X8609640Y-16189006D01*
M02*
