G04 #@! TF.GenerationSoftware,KiCad,Pcbnew,7.0.6*
G04 #@! TF.CreationDate,2023-08-27T12:29:34+10:00*
G04 #@! TF.ProjectId,NanoGris,4e616e6f-4772-4697-932e-6b696361645f,rev?*
G04 #@! TF.SameCoordinates,Original*
G04 #@! TF.FileFunction,Legend,Bot*
G04 #@! TF.FilePolarity,Positive*
%FSLAX46Y46*%
G04 Gerber Fmt 4.6, Leading zero omitted, Abs format (unit mm)*
G04 Created by KiCad (PCBNEW 7.0.6) date 2023-08-27 12:29:34*
%MOMM*%
%LPD*%
G01*
G04 APERTURE LIST*
%ADD10C,0.150000*%
G04 APERTURE END LIST*
D10*
X59000295Y-21270761D02*
X59000295Y-21985046D01*
X59000295Y-21985046D02*
X59047914Y-22127903D01*
X59047914Y-22127903D02*
X59143152Y-22223142D01*
X59143152Y-22223142D02*
X59286009Y-22270761D01*
X59286009Y-22270761D02*
X59381247Y-22270761D01*
X58047914Y-22270761D02*
X58524104Y-22270761D01*
X58524104Y-22270761D02*
X58524104Y-21270761D01*
X57143152Y-22175522D02*
X57190771Y-22223142D01*
X57190771Y-22223142D02*
X57333628Y-22270761D01*
X57333628Y-22270761D02*
X57428866Y-22270761D01*
X57428866Y-22270761D02*
X57571723Y-22223142D01*
X57571723Y-22223142D02*
X57666961Y-22127903D01*
X57666961Y-22127903D02*
X57714580Y-22032665D01*
X57714580Y-22032665D02*
X57762199Y-21842189D01*
X57762199Y-21842189D02*
X57762199Y-21699332D01*
X57762199Y-21699332D02*
X57714580Y-21508856D01*
X57714580Y-21508856D02*
X57666961Y-21413618D01*
X57666961Y-21413618D02*
X57571723Y-21318380D01*
X57571723Y-21318380D02*
X57428866Y-21270761D01*
X57428866Y-21270761D02*
X57333628Y-21270761D01*
X57333628Y-21270761D02*
X57190771Y-21318380D01*
X57190771Y-21318380D02*
X57143152Y-21365999D01*
X56428866Y-21270761D02*
X56428866Y-21985046D01*
X56428866Y-21985046D02*
X56476485Y-22127903D01*
X56476485Y-22127903D02*
X56571723Y-22223142D01*
X56571723Y-22223142D02*
X56714580Y-22270761D01*
X56714580Y-22270761D02*
X56809818Y-22270761D01*
X55476485Y-22270761D02*
X55952675Y-22270761D01*
X55952675Y-22270761D02*
X55952675Y-21270761D01*
X54571723Y-22175522D02*
X54619342Y-22223142D01*
X54619342Y-22223142D02*
X54762199Y-22270761D01*
X54762199Y-22270761D02*
X54857437Y-22270761D01*
X54857437Y-22270761D02*
X55000294Y-22223142D01*
X55000294Y-22223142D02*
X55095532Y-22127903D01*
X55095532Y-22127903D02*
X55143151Y-22032665D01*
X55143151Y-22032665D02*
X55190770Y-21842189D01*
X55190770Y-21842189D02*
X55190770Y-21699332D01*
X55190770Y-21699332D02*
X55143151Y-21508856D01*
X55143151Y-21508856D02*
X55095532Y-21413618D01*
X55095532Y-21413618D02*
X55000294Y-21318380D01*
X55000294Y-21318380D02*
X54857437Y-21270761D01*
X54857437Y-21270761D02*
X54762199Y-21270761D01*
X54762199Y-21270761D02*
X54619342Y-21318380D01*
X54619342Y-21318380D02*
X54571723Y-21365999D01*
X53857437Y-21270761D02*
X53857437Y-21985046D01*
X53857437Y-21985046D02*
X53905056Y-22127903D01*
X53905056Y-22127903D02*
X54000294Y-22223142D01*
X54000294Y-22223142D02*
X54143151Y-22270761D01*
X54143151Y-22270761D02*
X54238389Y-22270761D01*
X52905056Y-22270761D02*
X53381246Y-22270761D01*
X53381246Y-22270761D02*
X53381246Y-21270761D01*
X52000294Y-22175522D02*
X52047913Y-22223142D01*
X52047913Y-22223142D02*
X52190770Y-22270761D01*
X52190770Y-22270761D02*
X52286008Y-22270761D01*
X52286008Y-22270761D02*
X52428865Y-22223142D01*
X52428865Y-22223142D02*
X52524103Y-22127903D01*
X52524103Y-22127903D02*
X52571722Y-22032665D01*
X52571722Y-22032665D02*
X52619341Y-21842189D01*
X52619341Y-21842189D02*
X52619341Y-21699332D01*
X52619341Y-21699332D02*
X52571722Y-21508856D01*
X52571722Y-21508856D02*
X52524103Y-21413618D01*
X52524103Y-21413618D02*
X52428865Y-21318380D01*
X52428865Y-21318380D02*
X52286008Y-21270761D01*
X52286008Y-21270761D02*
X52190770Y-21270761D01*
X52190770Y-21270761D02*
X52047913Y-21318380D01*
X52047913Y-21318380D02*
X52000294Y-21365999D01*
X51286008Y-21270761D02*
X51286008Y-21985046D01*
X51286008Y-21985046D02*
X51333627Y-22127903D01*
X51333627Y-22127903D02*
X51428865Y-22223142D01*
X51428865Y-22223142D02*
X51571722Y-22270761D01*
X51571722Y-22270761D02*
X51666960Y-22270761D01*
X50333627Y-22270761D02*
X50809817Y-22270761D01*
X50809817Y-22270761D02*
X50809817Y-21270761D01*
X49428865Y-22175522D02*
X49476484Y-22223142D01*
X49476484Y-22223142D02*
X49619341Y-22270761D01*
X49619341Y-22270761D02*
X49714579Y-22270761D01*
X49714579Y-22270761D02*
X49857436Y-22223142D01*
X49857436Y-22223142D02*
X49952674Y-22127903D01*
X49952674Y-22127903D02*
X50000293Y-22032665D01*
X50000293Y-22032665D02*
X50047912Y-21842189D01*
X50047912Y-21842189D02*
X50047912Y-21699332D01*
X50047912Y-21699332D02*
X50000293Y-21508856D01*
X50000293Y-21508856D02*
X49952674Y-21413618D01*
X49952674Y-21413618D02*
X49857436Y-21318380D01*
X49857436Y-21318380D02*
X49714579Y-21270761D01*
X49714579Y-21270761D02*
X49619341Y-21270761D01*
X49619341Y-21270761D02*
X49476484Y-21318380D01*
X49476484Y-21318380D02*
X49428865Y-21365999D01*
M02*
